<?xml version="1.0" encoding="UTF-8"?>
<svg xmlns="http://www.w3.org/2000/svg" xmlns:xlink="http://www.w3.org/1999/xlink" width="2640" height="2640" viewBox="0 0 2640 2640">

<path fill-rule="evenodd" fill="rgb(0%, 0%, 0%)" fill-opacity="1" d="M 1025.628906 588.679688 C 1125.089844 603.308594 1190.960938 715.550781 1172.75 839.371094 C 1154.539062 963.191406 1059.140625 1051.699219 959.671875 1037.070312 C 860.203125 1022.441406 794.332031 910.210938 812.546875 786.390625 C 830.757812 662.570312 926.15625 574.050781 1025.628906 588.679688 "/>
<path fill-rule="evenodd" fill="rgb(59.959412%, 59.959412%, 19.993591%)" fill-opacity="1" d="M 1026.949219 627.539062 C 1109.179688 639.640625 1163.640625 732.421875 1148.578125 834.78125 C 1133.519531 937.128906 1054.660156 1010.308594 972.433594 998.210938 C 890.207031 986.121094 835.753906 893.339844 850.808594 790.980469 C 855.59375 758.449219 866.828125 728.878906 882.558594 704.050781 C 872.398438 723.070312 865.117188 744.730469 861.675781 768.140625 C 848.5625 857.300781 895.988281 938.109375 967.605469 948.640625 C 1039.21875 959.171875 1107.910156 895.441406 1121.019531 806.289062 C 1133.78125 719.550781 1089.230469 640.710938 1020.839844 626.808594 C 1022.878906 627.011719 1024.921875 627.238281 1026.949219 627.539062 "/>
<path fill-rule="evenodd" fill="rgb(100%, 100%, 100%)" fill-opacity="1" d="M 969.828125 642.039062 C 993.648438 645.550781 1009.421875 672.421875 1005.058594 702.070312 C 1000.699219 731.730469 977.855469 752.921875 954.035156 749.421875 C 930.214844 745.921875 914.441406 719.039062 918.800781 689.390625 C 923.164062 659.738281 946.007812 638.539062 969.828125 642.039062 "/>
<path fill-rule="nonzero" fill="rgb(0%, 0%, 0%)" fill-opacity="1" d="M 1471.640625 1732.039062 C 1471.378906 1730.164062 1471.378906 1728.316406 1471.609375 1726.527344 C 1470.441406 1725.035156 1469.261719 1723.53125 1468.101562 1722.019531 C 1458.449219 1722.679688 1448.769531 1723.101562 1439.101562 1723.261719 C 1418.011719 1723.609375 1396.910156 1722.734375 1376.21875 1720.476562 C 1378.878906 1722.546875 1381.558594 1724.566406 1384.25 1726.523438 C 1403.359375 1740.4375 1423.609375 1751.746094 1444.96875 1760.441406 L 1444.949219 1760.46875 C 1447.371094 1761.445312 1449.628906 1762.90625 1451.589844 1764.859375 C 1460.789062 1773.980469 1466.761719 1783.371094 1469.488281 1793.035156 C 1474.140625 1774.601562 1474.859375 1754.269531 1471.640625 1732.039062 Z M 1515.859375 1716.785156 C 1530.808594 1734.078125 1546.460938 1749.304688 1562.789062 1762.464844 C 1585.679688 1780.90625 1610.03125 1795.382812 1635.851562 1805.886719 L 1635.839844 1805.914062 C 1638.25 1806.894531 1640.511719 1808.355469 1642.480469 1810.308594 C 1651.71875 1819.472656 1657.699219 1828.90625 1660.410156 1838.613281 C 1670.808594 1797.546875 1661.609375 1746.765625 1632.808594 1686.265625 C 1598.378906 1699.746094 1558.140625 1710.417969 1515.859375 1716.785156 Z M 1669.480469 1669.699219 C 1706.859375 1748.566406 1714.601562 1815.117188 1692.679688 1869.332031 C 1671.878906 1920.773438 1625.320312 1959.550781 1553.011719 1985.671875 C 1555.21875 1992.027344 1555.898438 1998.3125 1555.070312 2004.523438 C 1553.589844 2015.546875 1543.449219 2023.285156 1532.421875 2021.804688 C 1530.921875 2021.601562 1529.480469 2021.238281 1528.121094 2020.734375 C 1515.648438 2016.601562 1505.148438 2014.628906 1496.628906 2014.824219 C 1490.148438 2014.972656 1485.140625 2016.4375 1481.589844 2019.214844 C 1477.839844 2022.144531 1473.378906 2023.53125 1468.96875 2023.476562 L 1402.550781 2023.472656 C 1391.441406 2023.472656 1382.429688 2014.464844 1382.429688 2003.355469 C 1382.429688 1998.097656 1384.441406 1993.3125 1387.738281 1989.730469 L 1387.710938 1989.703125 C 1401.199219 1975.019531 1418.160156 1963.070312 1438.589844 1953.863281 C 1457.511719 1945.339844 1479.429688 1939.164062 1504.351562 1935.347656 C 1557.628906 1911.121094 1593.011719 1889.367188 1610.480469 1870.101562 C 1620.460938 1859.101562 1622.421875 1849.5625 1616.359375 1841.484375 C 1588.578125 1829.691406 1562.300781 1813.816406 1537.550781 1793.867188 C 1529.351562 1787.269531 1521.339844 1780.226562 1513.5 1772.753906 C 1511.011719 1807.433594 1499.109375 1838.082031 1477.789062 1864.679688 C 1452.398438 1896.359375 1413.839844 1921.539062 1362.128906 1940.222656 C 1364.328125 1946.578125 1365.019531 1952.863281 1364.179688 1959.074219 C 1362.710938 1970.101562 1352.558594 1977.835938 1341.539062 1976.355469 C 1340.039062 1976.152344 1338.601562 1975.789062 1337.238281 1975.285156 C 1324.769531 1971.152344 1314.269531 1969.183594 1305.75 1969.378906 C 1299.269531 1969.523438 1294.25 1970.988281 1290.710938 1973.765625 C 1286.960938 1976.695312 1282.5 1978.082031 1278.078125 1978.027344 L 1211.660156 1978.023438 C 1200.550781 1978.023438 1191.539062 1969.015625 1191.539062 1957.90625 C 1191.539062 1952.648438 1193.558594 1947.863281 1196.859375 1944.28125 L 1196.828125 1944.253906 C 1210.320312 1929.570312 1227.28125 1917.621094 1247.710938 1908.414062 C 1266.621094 1899.890625 1288.539062 1893.714844 1313.460938 1889.898438 C 1366.738281 1865.671875 1402.121094 1843.921875 1419.601562 1824.652344 C 1429.578125 1813.652344 1431.53125 1804.113281 1425.480469 1796.035156 C 1402.960938 1786.472656 1381.328125 1774.132812 1360.578125 1759.03125 C 1339.46875 1743.667969 1319.578125 1725.660156 1300.921875 1705.019531 C 1273.441406 1696.316406 1247.910156 1684.265625 1225.558594 1668.363281 C 1107.601562 1584.410156 1158.058594 1481.160156 1217 1360.550781 C 1236.921875 1319.789062 1257.898438 1276.859375 1272.710938 1232.738281 L 1044.78125 1232.738281 C 1017.839844 1232.738281 992.597656 1224.730469 971.308594 1210.960938 C 953.175781 1199.230469 937.980469 1183.300781 927.132812 1164.570312 L 697.976562 1164.570312 L 697.976562 1164.488281 C 652.441406 1164.5 615.480469 1164.511719 615.480469 1109.828125 C 615.480469 1083.5 626.816406 1068.171875 644.894531 1058.300781 C 659.597656 1050.269531 677.226562 1047.339844 696.308594 1044.421875 L 908.921875 1011.839844 L 908.921875 856.519531 C 908.921875 819.140625 924.199219 785.171875 948.8125 760.550781 C 973.425781 735.941406 1007.398438 720.660156 1044.78125 720.660156 L 1271.960938 720.660156 C 1309.339844 720.660156 1343.308594 735.941406 1367.921875 760.550781 C 1392.539062 785.171875 1407.820312 819.140625 1407.820312 856.519531 C 1407.820312 882.550781 1408.328125 906.179688 1408.871094 931.050781 C 1410.820312 1020.539062 1413.089844 1125.121094 1396.359375 1203.058594 C 1388.359375 1240.378906 1375.570312 1280.179688 1358.019531 1322.441406 C 1349.128906 1343.839844 1339.03125 1365.871094 1327.710938 1388.53125 C 1433.960938 1334.539062 1543.878906 1335.808594 1645.421875 1373 C 1754.410156 1412.921875 1853.488281 1494.539062 1927.339844 1593.261719 C 1941.789062 1612.578125 1955.179688 1632.371094 1967.398438 1652.460938 C 1973.191406 1661.960938 1970.191406 1674.359375 1960.691406 1680.152344 C 1955.441406 1683.355469 1949.308594 1683.871094 1943.898438 1682.089844 L 1943.890625 1682.128906 C 1887.371094 1663.453125 1835.371094 1649.707031 1790.339844 1645.347656 C 1747.519531 1641.203125 1711.089844 1645.425781 1683.269531 1662.007812 C 1678.878906 1664.625 1674.269531 1667.191406 1669.480469 1669.699219 Z M 1271.960938 761.058594 L 1044.78125 761.058594 C 1018.550781 761.058594 994.6875 771.808594 977.378906 789.121094 C 960.066406 806.429688 949.320312 830.289062 949.320312 856.519531 L 949.320312 1005.648438 L 1004.75 997.148438 C 1008.210938 996.621094 1011.601562 996.371094 1014.921875 996.371094 L 1015.839844 996.371094 L 1016.769531 996.390625 L 1017.691406 996.421875 L 1018.609375 996.46875 L 1019.519531 996.53125 L 1020.429688 996.589844 L 1021.339844 996.679688 L 1022.238281 996.769531 L 1023.140625 996.871094 L 1024.039062 996.988281 L 1024.929688 997.121094 L 1024.941406 997.121094 L 1025.828125 997.261719 L 1026.710938 997.421875 L 1027.601562 997.578125 L 1028.480469 997.761719 L 1029.351562 997.949219 L 1030.230469 998.148438 L 1031.101562 998.359375 L 1031.960938 998.578125 L 1032.820312 998.808594 L 1033.679688 999.058594 L 1034.53125 999.308594 L 1035.378906 999.578125 L 1036.230469 999.859375 L 1037.070312 1000.148438 L 1037.898438 1000.441406 L 1038.738281 1000.75 L 1039.558594 1001.070312 L 1040.390625 1001.398438 L 1041.210938 1001.738281 L 1042.019531 1002.089844 L 1042.828125 1002.449219 L 1043.640625 1002.820312 L 1044.441406 1003.210938 L 1045.230469 1003.601562 L 1046.019531 1004 L 1046.808594 1004.410156 L 1047.589844 1004.820312 L 1048.371094 1005.25 L 1049.140625 1005.691406 L 1049.910156 1006.140625 L 1050.671875 1006.601562 L 1051.429688 1007.058594 L 1052.179688 1007.539062 L 1052.921875 1008.019531 L 1053.660156 1008.511719 L 1054.398438 1009.019531 L 1055.128906 1009.53125 L 1055.851562 1010.039062 L 1056.570312 1010.570312 L 1057.289062 1011.109375 L 1057.988281 1011.648438 L 1058 1011.648438 L 1058.699219 1012.199219 L 1059.390625 1012.769531 L 1060.078125 1013.339844 L 1060.089844 1013.339844 L 1060.769531 1013.910156 L 1061.449219 1014.5 L 1062.121094 1015.089844 L 1062.789062 1015.691406 L 1063.449219 1016.300781 L 1064.101562 1016.910156 L 1064.109375 1016.910156 L 1064.75 1017.539062 L 1065.398438 1018.171875 L 1066.03125 1018.808594 L 1066.628906 1019.410156 L 1067.21875 1020.03125 L 1067.808594 1020.660156 L 1068.378906 1021.289062 L 1068.960938 1021.921875 L 1069.519531 1022.558594 L 1070.089844 1023.210938 L 1071.191406 1024.53125 L 1071.730469 1025.199219 L 1072.269531 1025.871094 L 1072.800781 1026.550781 L 1073.320312 1027.230469 L 1073.328125 1027.230469 L 1073.839844 1027.921875 L 1074.359375 1028.621094 L 1074.859375 1029.320312 L 1075.359375 1030.03125 L 1075.851562 1030.738281 L 1076.339844 1031.460938 C 1076.660156 1031.941406 1076.980469 1032.421875 1077.289062 1032.910156 L 1077.761719 1033.640625 L 1078.210938 1034.378906 L 1078.671875 1035.121094 L 1079.109375 1035.871094 L 1079.550781 1036.621094 L 1079.980469 1037.378906 L 1080.410156 1038.140625 L 1081.640625 1040.449219 L 1082.03125 1041.230469 L 1082.421875 1042.019531 L 1082.800781 1042.800781 L 1083.179688 1043.589844 L 1083.898438 1045.191406 L 1084.25 1045.988281 L 1084.601562 1046.800781 L 1084.929688 1047.609375 L 1085.261719 1048.421875 L 1085.578125 1049.230469 L 1085.578125 1049.238281 L 1085.898438 1050.050781 L 1086.199219 1050.878906 L 1086.5 1051.699219 L 1086.789062 1052.53125 L 1087.070312 1053.359375 L 1087.070312 1053.371094 L 1087.339844 1054.199219 L 1087.609375 1055.039062 L 1087.871094 1055.878906 L 1088.109375 1056.71875 L 1088.359375 1057.570312 L 1088.589844 1058.410156 L 1088.808594 1059.261719 L 1088.808594 1059.269531 L 1089.03125 1060.121094 C 1089.171875 1060.691406 1089.300781 1061.261719 1089.429688 1061.828125 L 1089.621094 1062.691406 L 1089.808594 1063.550781 L 1089.980469 1064.410156 L 1090.140625 1065.28125 L 1090.300781 1066.148438 L 1090.441406 1067.011719 L 1090.578125 1067.878906 C 1091.238281 1072.148438 1091.578125 1076.460938 1091.578125 1080.738281 L 1091.578125 1080.75 C 1091.578125 1103.820312 1082.148438 1124.78125 1066.96875 1139.960938 C 1051.789062 1155.148438 1030.820312 1164.570312 1007.75 1164.570312 L 977.589844 1164.570312 C 982.34375 1169.300781 987.589844 1173.53125 993.242188 1177.191406 C 1008.058594 1186.769531 1025.75 1192.339844 1044.78125 1192.339844 L 1271.960938 1192.339844 C 1276.460938 1192.339844 1280.488281 1192.109375 1284.058594 1191.648438 C 1287.730469 1191.179688 1291.410156 1190.480469 1295.070312 1189.558594 C 1298.519531 1188.511719 1302.308594 1188.371094 1306.058594 1189.359375 C 1316.820312 1192.191406 1323.25 1203.210938 1320.421875 1213.96875 C 1304.96875 1272.480469 1278.320312 1327.019531 1253.289062 1378.230469 C 1202.421875 1482.328125 1158.871094 1571.449219 1248.910156 1635.539062 C 1298.511719 1670.835938 1368.128906 1684.1875 1438.46875 1683.019531 C 1524.339844 1681.59375 1610.25 1658.644531 1662.601562 1627.449219 C 1698.539062 1606.03125 1743.089844 1600.320312 1794.128906 1605.261719 C 1827.601562 1608.5 1863.839844 1616.269531 1902.25 1627.089844 C 1899.910156 1623.839844 1897.539062 1620.609375 1895.148438 1617.410156 C 1825.730469 1524.609375 1733.039062 1448.050781 1631.53125 1410.871094 C 1531.761719 1374.328125 1423.179688 1376.160156 1319.929688 1438.960938 C 1308.898438 1445.671875 1298.058594 1452.960938 1287.449219 1460.828125 C 1281.160156 1466.351562 1271.808594 1467.558594 1264.128906 1463.171875 C 1254.460938 1457.640625 1251.101562 1445.308594 1256.628906 1435.628906 C 1282.671875 1390.128906 1304.058594 1347.238281 1320.78125 1306.980469 C 1337.390625 1266.980469 1349.429688 1229.550781 1356.910156 1194.699219 C 1372.738281 1120.941406 1370.53125 1019.039062 1368.628906 931.839844 C 1368.011719 903.261719 1367.421875 876.140625 1367.421875 856.519531 C 1367.421875 830.289062 1356.671875 806.429688 1339.359375 789.121094 C 1322.050781 771.808594 1298.191406 761.058594 1271.960938 761.058594 Z M 1010.75 1037.078125 L 702.308594 1084.351562 C 686.800781 1086.71875 672.609375 1089.019531 664.148438 1093.648438 C 659.066406 1096.421875 655.878906 1101.171875 655.878906 1109.828125 C 655.878906 1124.261719 674.742188 1124.261719 697.976562 1124.25 L 697.976562 1124.171875 L 1007.75 1124.171875 C 1019.671875 1124.171875 1030.53125 1119.28125 1038.410156 1111.398438 C 1046.289062 1103.519531 1051.179688 1092.671875 1051.179688 1080.75 L 1051.179688 1080.738281 C 1051.179688 1078.421875 1051 1076.121094 1050.660156 1073.878906 L 1050.578125 1073.398438 L 1050.5 1072.929688 L 1050.320312 1071.96875 L 1050.230469 1071.5 L 1050.128906 1071.03125 L 1050.03125 1070.558594 L 1049.921875 1070.089844 L 1049.800781 1069.621094 L 1049.691406 1069.148438 L 1049.558594 1068.679688 L 1049.441406 1068.21875 L 1049.308594 1067.75 L 1049.171875 1067.289062 L 1049.03125 1066.828125 L 1048.890625 1066.371094 L 1048.738281 1065.910156 L 1048.578125 1065.449219 L 1048.429688 1065 L 1048.261719 1064.550781 L 1048.101562 1064.101562 L 1047.929688 1063.648438 L 1047.75 1063.199219 L 1047.570312 1062.761719 L 1047.390625 1062.308594 L 1047.199219 1061.871094 L 1047.011719 1061.429688 L 1046.820312 1061 L 1046.621094 1060.558594 L 1046.421875 1060.128906 L 1046 1059.269531 L 1045.78125 1058.839844 L 1045.558594 1058.421875 L 1045.339844 1058 L 1045.109375 1057.578125 L 1044.878906 1057.160156 L 1044.648438 1056.75 L 1044.171875 1055.929688 L 1043.921875 1055.53125 L 1043.671875 1055.121094 L 1043.421875 1054.730469 L 1043.160156 1054.328125 L 1042.898438 1053.929688 L 1042.640625 1053.539062 L 1042.371094 1053.160156 L 1042.101562 1052.769531 L 1041.828125 1052.390625 L 1041.550781 1052.011719 L 1041.269531 1051.628906 L 1040.980469 1051.261719 L 1040.691406 1050.890625 L 1040.398438 1050.519531 L 1040.109375 1050.160156 L 1039.808594 1049.800781 L 1039.511719 1049.449219 L 1039.210938 1049.089844 L 1038.898438 1048.738281 L 1038.589844 1048.398438 L 1038.269531 1048.058594 L 1037.960938 1047.71875 L 1037.640625 1047.378906 L 1037.308594 1047.050781 L 1037.019531 1046.761719 L 1036.730469 1046.46875 L 1036.429688 1046.191406 L 1036.128906 1045.898438 L 1035.828125 1045.621094 L 1035.53125 1045.351562 L 1035.21875 1045.078125 L 1034.921875 1044.808594 L 1034.910156 1044.808594 L 1034.609375 1044.550781 L 1034.601562 1044.550781 L 1034.289062 1044.289062 L 1033.980469 1044.03125 L 1033.660156 1043.769531 L 1033.339844 1043.519531 L 1033.019531 1043.28125 L 1032.699219 1043.039062 L 1032.378906 1042.800781 L 1032.050781 1042.558594 L 1031.71875 1042.339844 L 1031.390625 1042.109375 L 1031.058594 1041.890625 L 1030.71875 1041.671875 L 1030.390625 1041.460938 L 1029.710938 1041.039062 L 1029.371094 1040.839844 L 1029.019531 1040.640625 L 1028.679688 1040.449219 L 1028.328125 1040.261719 L 1027.980469 1040.078125 L 1027.628906 1039.898438 L 1027.28125 1039.730469 L 1026.929688 1039.558594 L 1026.570312 1039.390625 L 1026.21875 1039.230469 L 1025.859375 1039.070312 L 1025.5 1038.921875 L 1025.140625 1038.78125 L 1024.769531 1038.628906 L 1024.050781 1038.371094 L 1024.039062 1038.371094 L 1023.679688 1038.238281 L 1023.308594 1038.121094 L 1022.941406 1038 L 1022.199219 1037.78125 L 1021.820312 1037.679688 L 1021.449219 1037.578125 L 1021.070312 1037.488281 L 1020.699219 1037.398438 L 1020.320312 1037.320312 L 1019.941406 1037.25 L 1019.558594 1037.179688 L 1019.179688 1037.109375 L 1018.800781 1037.050781 L 1018.410156 1037 L 1018.03125 1036.949219 L 1017.640625 1036.910156 L 1017.261719 1036.871094 L 1016.480469 1036.808594 L 1016.089844 1036.789062 L 1015.699219 1036.78125 L 1015.308594 1036.769531 L 1014.921875 1036.769531 C 1013.519531 1036.769531 1012.128906 1036.871094 1010.75 1037.078125 "/>
<path fill-rule="evenodd" fill="rgb(214, 124, 85)" fill-opacity="1" d="M 1356.910156 1194.699219 C 1372.738281 1120.941406 1370.53125 1019.039062 1368.628906 931.839844 C 1368.011719 903.261719 1367.421875 876.140625 1367.421875 856.519531 C 1367.421875 830.289062 1356.671875 806.429688 1339.359375 789.121094 C 1322.050781 771.808594 1298.191406 761.058594 1271.960938 761.058594 L 1044.78125 761.058594 C 1018.550781 761.058594 994.6875 771.808594 977.378906 789.121094 C 960.066406 806.429688 949.320312 830.289062 949.320312 856.519531 L 949.320312 1005.648438 L 1004.75 997.148438 C 1008.210938 996.621094 1011.601562 996.371094 1014.921875 996.371094 L 1015.839844 996.371094 L 1016.769531 996.390625 L 1017.691406 996.421875 L 1018.609375 996.46875 L 1019.519531 996.53125 L 1020.429688 996.589844 L 1021.339844 996.679688 L 1022.238281 996.769531 L 1023.140625 996.871094 L 1024.039062 996.988281 L 1024.941406 997.121094 L 1025.828125 997.261719 L 1026.710938 997.421875 L 1027.601562 997.578125 L 1028.480469 997.761719 L 1029.351562 997.949219 L 1030.230469 998.148438 L 1031.101562 998.359375 L 1031.960938 998.578125 L 1032.820312 998.808594 L 1033.679688 999.058594 L 1034.53125 999.308594 L 1035.378906 999.578125 L 1036.230469 999.859375 L 1037.070312 1000.148438 L 1037.898438 1000.441406 L 1038.738281 1000.75 L 1039.558594 1001.070312 L 1040.390625 1001.398438 L 1041.210938 1001.738281 L 1042.019531 1002.089844 L 1042.828125 1002.449219 L 1043.640625 1002.820312 L 1044.441406 1003.210938 L 1045.230469 1003.601562 L 1046.019531 1004 L 1046.808594 1004.410156 L 1047.589844 1004.820312 L 1048.371094 1005.25 L 1049.140625 1005.691406 L 1049.910156 1006.140625 L 1050.671875 1006.601562 L 1051.429688 1007.058594 L 1052.179688 1007.539062 L 1052.921875 1008.019531 L 1053.660156 1008.511719 L 1054.398438 1009.019531 L 1055.128906 1009.53125 L 1055.851562 1010.039062 L 1056.570312 1010.570312 L 1057.289062 1011.109375 L 1058 1011.648438 L 1058.699219 1012.199219 L 1059.390625 1012.769531 L 1060.089844 1013.339844 L 1060.769531 1013.910156 L 1061.449219 1014.5 L 1062.121094 1015.089844 L 1062.789062 1015.691406 L 1064.109375 1016.910156 L 1064.75 1017.539062 L 1065.398438 1018.171875 L 1066.03125 1018.808594 L 1066.628906 1019.410156 L 1067.21875 1020.03125 L 1067.808594 1020.660156 L 1068.378906 1021.289062 L 1068.960938 1021.921875 L 1069.519531 1022.558594 L 1070.089844 1023.210938 L 1071.191406 1024.53125 L 1071.730469 1025.199219 L 1072.269531 1025.871094 L 1072.800781 1026.550781 L 1073.328125 1027.230469 L 1073.839844 1027.921875 L 1074.359375 1028.621094 L 1074.859375 1029.320312 L 1075.359375 1030.03125 L 1075.851562 1030.738281 L 1076.339844 1031.460938 L 1077.289062 1032.910156 L 1077.761719 1033.640625 L 1078.210938 1034.378906 L 1078.671875 1035.121094 L 1079.109375 1035.871094 L 1079.550781 1036.621094 L 1079.980469 1037.378906 L 1080.410156 1038.140625 L 1081.640625 1040.449219 L 1082.03125 1041.230469 L 1082.421875 1042.019531 L 1082.800781 1042.800781 L 1083.179688 1043.589844 L 1083.898438 1045.191406 L 1084.25 1045.988281 L 1084.601562 1046.800781 L 1084.929688 1047.609375 L 1085.261719 1048.421875 L 1085.578125 1049.238281 L 1085.898438 1050.050781 L 1086.199219 1050.878906 L 1086.5 1051.699219 L 1086.789062 1052.53125 L 1087.070312 1053.371094 L 1087.339844 1054.199219 L 1087.609375 1055.039062 L 1087.871094 1055.878906 L 1088.109375 1056.71875 L 1088.359375 1057.570312 L 1088.589844 1058.410156 L 1088.808594 1059.269531 L 1089.03125 1060.121094 L 1089.429688 1061.828125 L 1089.621094 1062.691406 L 1089.808594 1063.550781 L 1089.980469 1064.410156 L 1090.140625 1065.28125 L 1090.300781 1066.148438 L 1090.441406 1067.011719 L 1090.578125 1067.878906 C 1091.238281 1072.148438 1091.578125 1076.460938 1091.578125 1080.75 C 1091.578125 1103.820312 1082.148438 1124.78125 1066.96875 1139.960938 C 1051.789062 1155.148438 1030.820312 1164.570312 1007.75 1164.570312 L 977.589844 1164.570312 C 982.34375 1169.300781 987.589844 1173.53125 993.242188 1177.191406 C 1008.058594 1186.769531 1025.75 1192.339844 1044.78125 1192.339844 L 1271.960938 1192.339844 C 1276.460938 1192.339844 1280.488281 1192.109375 1284.058594 1191.648438 C 1287.730469 1191.179688 1291.410156 1190.480469 1295.070312 1189.558594 C 1298.519531 1188.511719 1302.308594 1188.371094 1306.058594 1189.359375 C 1316.820312 1192.191406 1323.25 1203.210938 1320.421875 1213.96875 C 1304.96875 1272.480469 1278.320312 1327.019531 1253.289062 1378.230469 C 1202.421875 1482.328125 1158.871094 1571.449219 1248.910156 1635.539062 C 1298.511719 1670.835938 1368.128906 1684.1875 1438.46875 1683.019531 C 1524.339844 1681.59375 1610.25 1658.644531 1662.601562 1627.449219 C 1698.539062 1606.03125 1743.089844 1600.320312 1794.128906 1605.261719 C 1827.601562 1608.5 1863.839844 1616.269531 1902.25 1627.089844 L 1895.148438 1617.410156 C 1825.730469 1524.609375 1733.039062 1448.050781 1631.53125 1410.871094 C 1531.761719 1374.328125 1423.179688 1376.160156 1319.929688 1438.960938 C 1308.898438 1445.671875 1298.058594 1452.960938 1287.449219 1460.828125 C 1281.160156 1466.351562 1271.808594 1467.558594 1264.128906 1463.171875 C 1254.460938 1457.640625 1251.101562 1445.308594 1256.628906 1435.628906 C 1282.671875 1390.128906 1304.058594 1347.238281 1320.78125 1306.980469 C 1337.390625 1266.980469 1349.429688 1229.550781 1356.910156 1194.699219 Z M 1469.488281 1793.035156 C 1474.140625 1774.601562 1474.859375 1754.269531 1471.640625 1732.039062 C 1471.378906 1730.164062 1471.378906 1728.316406 1471.609375 1726.527344 L 1468.101562 1722.019531 C 1458.449219 1722.679688 1448.769531 1723.101562 1439.101562 1723.261719 C 1418.011719 1723.609375 1396.910156 1722.734375 1376.21875 1720.476562 C 1378.878906 1722.546875 1381.558594 1724.566406 1384.25 1726.523438 C 1403.359375 1740.4375 1423.609375 1751.746094 1444.96875 1760.441406 L 1444.949219 1760.46875 C 1447.371094 1761.445312 1449.628906 1762.90625 1451.589844 1764.859375 C 1460.789062 1773.980469 1466.761719 1783.371094 1469.488281 1793.035156 Z M 1632.808594 1686.265625 C 1598.378906 1699.746094 1558.140625 1710.417969 1515.859375 1716.785156 C 1530.808594 1734.078125 1546.460938 1749.304688 1562.789062 1762.464844 C 1585.679688 1780.90625 1610.03125 1795.382812 1635.851562 1805.886719 L 1635.839844 1805.914062 C 1638.25 1806.894531 1640.511719 1808.355469 1642.480469 1810.308594 C 1651.71875 1819.472656 1657.699219 1828.90625 1660.410156 1838.613281 C 1670.808594 1797.546875 1661.609375 1746.765625 1632.808594 1686.265625 "/>
<path fill-rule="evenodd" fill="rgb(100%, 80.076599%, 59.959412%)" fill-opacity="1" d="M 699.308594 1124.171875 L 1007.75 1124.171875 C 1019.671875 1124.171875 1030.53125 1119.28125 1038.410156 1111.398438 C 1046.289062 1103.519531 1051.179688 1092.671875 1051.179688 1080.738281 C 1051.179688 1078.421875 1051 1076.121094 1050.660156 1073.878906 L 1050.578125 1073.398438 L 1050.5 1072.929688 L 1050.320312 1071.96875 L 1050.230469 1071.5 L 1050.128906 1071.03125 L 1050.03125 1070.558594 L 1049.921875 1070.089844 L 1049.800781 1069.621094 L 1049.691406 1069.148438 L 1049.558594 1068.679688 L 1049.441406 1068.21875 L 1049.308594 1067.75 L 1049.171875 1067.289062 L 1049.03125 1066.828125 L 1048.890625 1066.371094 L 1048.738281 1065.910156 L 1048.578125 1065.449219 L 1048.429688 1065 L 1048.261719 1064.550781 L 1048.101562 1064.101562 L 1047.929688 1063.648438 L 1047.75 1063.199219 L 1047.570312 1062.761719 L 1047.390625 1062.308594 L 1047.199219 1061.871094 L 1047.011719 1061.429688 L 1046.820312 1061 L 1046.621094 1060.558594 L 1046.421875 1060.128906 L 1046 1059.269531 L 1045.78125 1058.839844 L 1045.558594 1058.421875 L 1045.339844 1058 L 1045.109375 1057.578125 L 1044.878906 1057.160156 L 1044.648438 1056.75 L 1044.171875 1055.929688 L 1043.921875 1055.53125 L 1043.671875 1055.121094 L 1043.421875 1054.730469 L 1043.160156 1054.328125 L 1042.898438 1053.929688 L 1042.640625 1053.539062 L 1042.371094 1053.160156 L 1042.101562 1052.769531 L 1041.828125 1052.390625 L 1041.550781 1052.011719 L 1041.269531 1051.628906 L 1040.980469 1051.261719 L 1040.691406 1050.890625 L 1040.398438 1050.519531 L 1040.109375 1050.160156 L 1039.808594 1049.800781 L 1039.511719 1049.449219 L 1039.210938 1049.089844 L 1038.898438 1048.738281 L 1038.589844 1048.398438 L 1038.269531 1048.058594 L 1037.960938 1047.71875 L 1037.640625 1047.378906 L 1037.308594 1047.050781 L 1037.019531 1046.761719 L 1036.730469 1046.46875 L 1036.429688 1046.191406 L 1036.128906 1045.898438 L 1035.828125 1045.621094 L 1035.53125 1045.351562 L 1035.21875 1045.078125 L 1034.910156 1044.808594 L 1034.601562 1044.550781 L 1034.289062 1044.289062 L 1033.980469 1044.03125 L 1033.660156 1043.769531 L 1033.339844 1043.519531 L 1033.019531 1043.28125 L 1032.699219 1043.039062 L 1032.378906 1042.800781 L 1032.050781 1042.558594 L 1031.71875 1042.339844 L 1031.390625 1042.109375 L 1031.058594 1041.890625 L 1030.71875 1041.671875 L 1030.390625 1041.460938 L 1029.710938 1041.039062 L 1029.371094 1040.839844 L 1029.019531 1040.640625 L 1028.679688 1040.449219 L 1028.328125 1040.261719 L 1027.980469 1040.078125 L 1027.628906 1039.898438 L 1027.28125 1039.730469 L 1026.929688 1039.558594 L 1026.570312 1039.390625 L 1026.21875 1039.230469 L 1025.859375 1039.070312 L 1025.5 1038.921875 L 1025.140625 1038.78125 L 1024.769531 1038.628906 L 1024.410156 1038.5 L 1024.039062 1038.371094 L 1023.679688 1038.238281 L 1023.308594 1038.121094 L 1022.941406 1038 L 1022.199219 1037.78125 L 1021.820312 1037.679688 L 1021.449219 1037.578125 L 1021.070312 1037.488281 L 1020.699219 1037.398438 L 1020.320312 1037.320312 L 1019.941406 1037.25 L 1019.558594 1037.179688 L 1019.179688 1037.109375 L 1018.800781 1037.050781 L 1018.410156 1037 L 1018.03125 1036.949219 L 1017.640625 1036.910156 L 1017.261719 1036.871094 L 1016.480469 1036.808594 L 1016.089844 1036.789062 L 1015.699219 1036.78125 L 1015.308594 1036.769531 L 1014.921875 1036.769531 C 1013.519531 1036.769531 1012.128906 1036.871094 1010.75 1037.078125 L 702.308594 1084.351562 C 686.800781 1086.71875 672.609375 1089.019531 664.148438 1093.648438 C 659.066406 1096.421875 655.878906 1101.171875 655.878906 1109.828125 C 655.878906 1124.261719 674.742188 1124.261719 697.976562 1124.25 L 697.976562 1124.171875 L 699.308594 1124.171875 "/>
<path fill-rule="evenodd" fill="rgb(138, 41, 0)" fill-opacity="1" d="M 1258.011719 1433.230469 C 1283.429688 1388.609375 1304.351562 1346.53125 1320.78125 1306.980469 C 1337.390625 1266.980469 1349.429688 1229.550781 1356.910156 1194.699219 C 1372.738281 1120.941406 1370.53125 1019.039062 1368.628906 931.839844 C 1368.011719 903.261719 1367.421875 876.140625 1367.421875 856.519531 C 1367.421875 830.289062 1356.671875 806.429688 1339.359375 789.121094 C 1322.050781 771.808594 1298.191406 761.058594 1271.960938 761.058594 L 1044.78125 761.058594 C 1018.550781 761.058594 994.6875 771.808594 977.378906 789.121094 C 960.066406 806.429688 949.320312 830.289062 949.320312 856.519531 L 949.320312 1005.648438 L 1004.75 997.148438 C 1008.210938 996.621094 1011.601562 996.371094 1014.921875 996.371094 L 1015.839844 996.371094 L 1016.769531 996.390625 L 1017.691406 996.421875 L 1018.609375 996.46875 L 1019.519531 996.53125 L 1020.429688 996.589844 L 1021.339844 996.679688 L 1022.238281 996.769531 L 1023.140625 996.871094 L 1024.039062 996.988281 L 1024.941406 997.121094 L 1025.828125 997.261719 L 1026.710938 997.421875 L 1027.601562 997.578125 L 1028.480469 997.761719 L 1029.351562 997.949219 L 1030.230469 998.148438 L 1031.101562 998.359375 L 1031.960938 998.578125 L 1032.820312 998.808594 L 1033.679688 999.058594 L 1034.53125 999.308594 L 1035.378906 999.578125 L 1036.230469 999.859375 L 1037.070312 1000.148438 L 1037.898438 1000.441406 L 1038.738281 1000.75 L 1039.558594 1001.070312 L 1040.390625 1001.398438 L 1041.210938 1001.738281 L 1042.019531 1002.089844 L 1042.828125 1002.449219 L 1043.640625 1002.820312 L 1044.441406 1003.210938 L 1045.230469 1003.601562 L 1046.019531 1004 L 1046.808594 1004.410156 L 1047.589844 1004.820312 L 1048.371094 1005.25 L 1049.140625 1005.691406 L 1049.910156 1006.140625 L 1050.671875 1006.601562 L 1051.429688 1007.058594 L 1052.179688 1007.539062 L 1052.921875 1008.019531 L 1053.660156 1008.511719 L 1054.398438 1009.019531 L 1055.128906 1009.53125 L 1055.851562 1010.039062 L 1056.570312 1010.570312 L 1057.289062 1011.109375 L 1058 1011.648438 L 1058.699219 1012.199219 L 1059.390625 1012.769531 L 1060.089844 1013.339844 L 1060.769531 1013.910156 L 1061.449219 1014.5 L 1062.121094 1015.089844 L 1062.789062 1015.691406 L 1064.109375 1016.910156 L 1064.75 1017.539062 L 1065.398438 1018.171875 L 1066.03125 1018.808594 L 1066.628906 1019.410156 L 1067.21875 1020.03125 L 1067.808594 1020.660156 L 1068.378906 1021.289062 L 1068.960938 1021.921875 L 1069.519531 1022.558594 L 1070.089844 1023.210938 L 1071.191406 1024.53125 L 1071.730469 1025.199219 L 1072.269531 1025.871094 L 1072.800781 1026.550781 L 1073.328125 1027.230469 L 1073.839844 1027.921875 L 1074.359375 1028.621094 L 1074.859375 1029.320312 L 1075.359375 1030.03125 L 1075.851562 1030.738281 L 1076.339844 1031.460938 L 1077.289062 1032.910156 L 1077.761719 1033.640625 L 1078.210938 1034.378906 L 1078.671875 1035.121094 L 1079.109375 1035.871094 L 1079.550781 1036.621094 L 1079.980469 1037.378906 L 1080.410156 1038.140625 L 1081.640625 1040.449219 L 1082.03125 1041.230469 L 1082.421875 1042.019531 L 1082.800781 1042.800781 L 1083.179688 1043.589844 L 1083.898438 1045.191406 L 1084.25 1045.988281 L 1084.601562 1046.800781 L 1084.929688 1047.609375 L 1085.261719 1048.421875 L 1085.578125 1049.238281 L 1085.898438 1050.050781 L 1086.199219 1050.878906 L 1086.5 1051.699219 L 1086.789062 1052.53125 L 1087.070312 1053.371094 L 1087.339844 1054.199219 L 1087.609375 1055.039062 L 1087.871094 1055.878906 L 1088.109375 1056.71875 L 1088.359375 1057.570312 L 1088.589844 1058.410156 L 1088.808594 1059.269531 L 1089.03125 1060.121094 L 1089.429688 1061.828125 L 1089.621094 1062.691406 L 1089.808594 1063.550781 L 1089.980469 1064.410156 L 1090.140625 1065.28125 L 1090.300781 1066.148438 L 1090.441406 1067.011719 L 1090.578125 1067.878906 C 1091.238281 1072.148438 1091.578125 1076.460938 1091.578125 1080.75 C 1091.578125 1103.820312 1082.148438 1124.78125 1066.96875 1139.960938 C 1051.789062 1155.148438 1030.820312 1164.570312 1007.75 1164.570312 L 977.589844 1164.570312 C 982.34375 1169.300781 987.589844 1173.53125 993.242188 1177.191406 C 1008.058594 1186.769531 1025.75 1192.339844 1044.78125 1192.339844 L 1271.960938 1192.339844 C 1276.460938 1192.339844 1280.488281 1192.109375 1284.058594 1191.648438 C 1287.730469 1191.179688 1291.410156 1190.480469 1295.070312 1189.558594 C 1298.519531 1188.511719 1302.308594 1188.371094 1306.058594 1189.359375 C 1316.820312 1192.191406 1323.25 1203.210938 1320.421875 1213.96875 C 1304.96875 1272.480469 1278.320312 1327.019531 1253.289062 1378.230469 C 1238 1409.519531 1223.371094 1439.460938 1212.828125 1467.78125 C 1224.53125 1452.839844 1240.058594 1440.871094 1258.011719 1433.230469 "/>
<path fill-rule="evenodd" fill="rgb(0%, 0%, 0%)" fill-opacity="1" d="M 1225.601562 582.621094 C 1325.070312 597.25 1390.941406 709.488281 1372.730469 833.308594 C 1354.511719 957.128906 1259.109375 1045.640625 1159.648438 1031.011719 C 1060.179688 1016.378906 994.308594 904.148438 1012.519531 780.328125 C 1030.730469 656.511719 1126.128906 567.988281 1225.601562 582.621094 "/>
<path fill-rule="evenodd" fill="rgb(59.959412%, 59.959412%, 19.993591%)" fill-opacity="1" d="M 1226.929688 621.480469 C 1309.148438 633.578125 1363.609375 726.359375 1348.550781 828.71875 C 1333.5 931.078125 1254.628906 1004.25 1172.410156 992.148438 C 1090.179688 980.058594 1035.730469 887.28125 1050.78125 784.921875 C 1055.570312 752.390625 1066.800781 722.820312 1082.53125 697.988281 C 1072.371094 717.011719 1065.089844 738.671875 1061.648438 762.089844 C 1048.53125 851.238281 1095.960938 932.050781 1167.578125 942.578125 C 1239.199219 953.109375 1307.878906 889.378906 1321 800.230469 C 1333.761719 713.488281 1289.199219 634.660156 1220.820312 620.75 C 1222.851562 620.949219 1224.890625 621.179688 1226.929688 621.480469 "/>
<path fill-rule="evenodd" fill="rgb(100%, 100%, 100%)" fill-opacity="1" d="M 1169.800781 635.980469 C 1193.621094 639.488281 1209.390625 666.359375 1205.03125 696.019531 C 1200.671875 725.671875 1177.828125 746.859375 1154.011719 743.359375 C 1130.191406 739.859375 1114.410156 712.980469 1118.78125 683.328125 C 1123.140625 653.679688 1145.980469 632.480469 1169.800781 635.980469 "/>
</svg>
