<?xml version="1.0" encoding="UTF-8"?>
<svg xmlns="http://www.w3.org/2000/svg" xmlns:xlink="http://www.w3.org/1999/xlink" width="2640" height="2640" viewBox="0 0 2640 2640">
<path fill-rule="evenodd" fill="rgb(0%, 0%, 0%)" fill-opacity="1" d="M 1110.421875 779.949219 C 1178.46875 789.960938 1223.539062 866.761719 1211.078125 951.46875 C 1198.621094 1036.191406 1133.351562 1096.75 1065.289062 1086.738281 C 997.238281 1076.730469 952.167969 999.941406 964.628906 915.21875 C 977.089844 830.5 1042.359375 769.941406 1110.421875 779.949219 "/>
<path fill-rule="evenodd" fill="rgb(68.554688%, 81.25%, 74.804688%)" fill-opacity="1" d="M 1111.328125 806.539062 C 1167.578125 814.820312 1204.839844 878.300781 1194.539062 948.328125 C 1184.238281 1018.359375 1130.28125 1068.429688 1074.019531 1060.148438 C 1017.761719 1051.878906 980.507812 988.398438 990.808594 918.359375 C 994.082031 896.109375 1001.769531 875.871094 1012.53125 858.890625 C 1005.578125 871.898438 1000.601562 886.71875 998.242188 902.738281 C 989.269531 963.738281 1021.71875 1019.03125 1070.71875 1026.230469 C 1119.71875 1033.441406 1166.710938 989.839844 1175.691406 928.839844 C 1184.421875 869.488281 1153.929688 815.558594 1107.140625 806.039062 C 1108.539062 806.179688 1109.929688 806.339844 1111.328125 806.539062 "/>
<path fill-rule="evenodd" fill="rgb(100%, 100%, 100%)" fill-opacity="1" d="M 1072.238281 816.460938 C 1088.539062 818.859375 1099.328125 837.25 1096.351562 857.539062 C 1093.359375 877.820312 1077.730469 892.328125 1061.429688 889.929688 C 1045.140625 887.53125 1034.339844 869.140625 1037.328125 848.859375 C 1040.308594 828.570312 1055.941406 814.070312 1072.238281 816.460938 "/>
<path fill-rule="evenodd" fill="rgb(0%, 0%, 0%)" fill-opacity="1" d="M 743.21875 1017.039062 C 740.386719 1021.121094 735.453125 1023.488281 730.269531 1022.871094 C 727.316406 1024.769531 724.578125 1026.980469 722.105469 1029.449219 C 713.335938 1038.230469 707.886719 1050.320312 707.886719 1063.609375 L 707.886719 1309.878906 C 707.886719 1322.171875 712.773438 1332.460938 720.652344 1340.328125 C 730.046875 1349.730469 743.609375 1355.960938 758.523438 1358.46875 L 1144.109375 1423.140625 C 1151.621094 1424.390625 1156.699219 1431.5 1155.441406 1439.019531 C 1154.191406 1446.53125 1147.089844 1451.601562 1139.570312 1450.351562 L 1120.921875 1447.21875 C 1137.441406 1469.570312 1158.539062 1490.25 1183.410156 1508.710938 C 1211.898438 1529.859375 1245.320312 1548.089844 1282.519531 1562.621094 C 1276.339844 1526.710938 1269.578125 1489.570312 1262.21875 1451.191406 C 1260.789062 1443.699219 1265.699219 1436.480469 1273.179688 1435.050781 C 1280.660156 1433.609375 1287.890625 1438.519531 1289.320312 1446 C 1301.109375 1507.53125 1311.5 1566.660156 1320.5 1623.378906 C 1328.789062 1675.675781 1335.78125 1725.121094 1341.46875 1771.714844 L 1388.140625 1771.714844 C 1400.441406 1721.886719 1412.421875 1668.417969 1421.050781 1614.96875 C 1430.28125 1557.789062 1435.789062 1500.289062 1433.960938 1446.699219 C 1433.71875 1439.101562 1439.691406 1432.738281 1447.300781 1432.511719 C 1454.898438 1432.269531 1461.261719 1438.238281 1461.488281 1445.839844 C 1463.171875 1495.070312 1458.921875 1547.199219 1451.320312 1599.320312 C 1455.960938 1599.621094 1460.660156 1599.890625 1465.429688 1600.101562 C 1474.269531 1600.488281 1483.78125 1600.699219 1493.988281 1600.699219 C 1522.851562 1600.699219 1550.988281 1598.761719 1578.128906 1595.089844 C 1578.511719 1594.980469 1578.898438 1594.890625 1579.289062 1594.820312 C 1580.128906 1594.660156 1580.960938 1594.589844 1581.789062 1594.578125 C 1588.070312 1593.691406 1594.300781 1592.710938 1600.480469 1591.628906 C 1627.519531 1586.921875 1653.449219 1580.460938 1677.988281 1572.449219 C 1660.28125 1555.019531 1646.980469 1536.609375 1638.070312 1517.210938 C 1621.441406 1480.960938 1620.25 1441.898438 1634.5 1400.019531 C 1636.949219 1392.800781 1644.78125 1388.941406 1651.988281 1391.378906 C 1659.210938 1393.828125 1663.070312 1401.660156 1660.628906 1408.871094 C 1648.71875 1443.878906 1649.550781 1476.179688 1663.121094 1505.769531 C 1677.078125 1536.191406 1704.550781 1564.371094 1745.53125 1590.300781 C 1748.910156 1592.429688 1751.050781 1595.789062 1751.730469 1599.421875 L 1751.738281 1599.421875 L 1784.449219 1771.714844 L 1828.921875 1771.714844 C 1844.949219 1681.28125 1855.179688 1602.039062 1859.621094 1534.011719 C 1864.199219 1463.839844 1862.558594 1405.929688 1854.710938 1360.289062 C 1853.429688 1352.78125 1858.480469 1345.648438 1866 1344.371094 C 1873.511719 1343.089844 1880.640625 1348.140625 1881.921875 1355.648438 C 1884.898438 1372.980469 1887.03125 1391.941406 1888.308594 1412.519531 C 1891.890625 1405.25 1895 1397.851562 1897.640625 1390.328125 C 1904.390625 1371.050781 1907.960938 1350.890625 1907.960938 1330.121094 C 1907.960938 1318.398438 1906.800781 1306.851562 1904.558594 1295.511719 C 1902.46875 1287.390625 1900.25 1279.179688 1897.910156 1270.878906 C 1881.640625 1223.621094 1846.339844 1180.921875 1797.589844 1146.5 C 1729.53125 1098.441406 1635.648438 1066.570312 1530.460938 1060.539062 L 1530.460938 1080.191406 C 1530.460938 1087.820312 1524.269531 1094.011719 1516.640625 1094.011719 C 1509.011719 1094.011719 1502.820312 1087.820312 1502.820312 1080.191406 L 1502.820312 1008.878906 C 1502.820312 991.679688 1495.910156 976.78125 1484.761719 965.621094 C 1472.589844 953.460938 1455.449219 945.601562 1436.570312 943.808594 L 1094.941406 911.46875 C 1093.640625 911.351562 1092.019531 911.289062 1090.101562 911.289062 C 1075.058594 911.289062 1061.320312 918.011719 1050.941406 928.578125 C 1040.199219 939.511719 1033.03125 954.410156 1031.53125 970.328125 C 1031.359375 972.058594 1031.28125 974.128906 1031.28125 976.539062 L 1031.28125 1001.410156 C 1031.28125 1009.050781 1025.089844 1015.230469 1017.460938 1015.230469 L 756.257812 1015.230469 C 751.746094 1015.230469 747.371094 1015.859375 743.21875 1017.039062 Z M 1083.761719 1440.988281 L 753.988281 1385.671875 C 733.527344 1382.238281 714.609375 1373.371094 701.109375 1359.878906 C 688.234375 1347 680.246094 1330.121094 680.246094 1309.878906 L 680.246094 1063.601562 C 680.246094 1042.691406 688.792969 1023.679688 702.5625 1009.910156 C 707.796875 1004.679688 713.785156 1000.199219 720.351562 996.660156 C 729.722656 952.800781 746.394531 911.210938 769.390625 873.511719 C 794.132812 832.929688 826.226562 796.808594 864.433594 767.148438 C 870.453125 762.5 879.105469 763.609375 883.757812 769.628906 C 886.925781 773.730469 887.417969 779.050781 885.511719 783.488281 L 885.539062 783.511719 C 867.921875 824.328125 857.457031 862.199219 854.148438 897.140625 C 851.226562 927.941406 853.851562 956.558594 862.019531 982.96875 C 863.761719 961.660156 867.746094 942.171875 873.980469 924.5 C 881.832031 902.261719 893.257812 882.851562 908.257812 866.25 C 913.355469 860.621094 922.058594 860.179688 927.691406 865.28125 C 930.863281 868.148438 932.386719 872.171875 932.203125 876.128906 L 932.226562 876.128906 C 930.800781 905.621094 934.234375 929.761719 942.527344 948.539062 C 950.332031 966.210938 962.65625 979.199219 979.496094 987.5 L 979.671875 987.589844 L 1003.640625 987.589844 L 1003.640625 976.539062 C 1003.640625 973.910156 1003.800781 970.96875 1004.101562 967.738281 C 1006.210938 945.429688 1016.25 924.550781 1031.289062 909.261719 C 1046.671875 893.601562 1067.269531 883.648438 1090.101562 883.648438 C 1092.21875 883.648438 1094.699219 883.78125 1097.53125 884.050781 L 1337.730469 906.789062 C 1340.289062 899.089844 1344.109375 891.078125 1349.089844 883.128906 C 1354.308594 874.800781 1360.761719 866.539062 1368.289062 858.808594 C 1368.53125 858.511719 1368.789062 858.230469 1369.070312 857.949219 L 1369.101562 857.980469 C 1384.941406 841.949219 1402.910156 830.691406 1419.171875 825.449219 C 1438.371094 819.261719 1456 821.101562 1467.488281 832.441406 C 1479.039062 843.839844 1480.050781 863.03125 1473.199219 883.691406 C 1469.398438 895.179688 1463.109375 907.449219 1454.949219 919.011719 C 1456.070312 919.28125 1457.179688 919.558594 1458.289062 919.859375 C 1462.230469 913.898438 1467.070312 907.941406 1472.699219 902.21875 C 1479.128906 895.671875 1486.589844 889.398438 1494.921875 883.71875 C 1513.578125 870.980469 1533.421875 863.359375 1550.390625 861.351562 C 1570.421875 858.96875 1587.371094 864.179688 1596.488281 877.539062 C 1605.589844 890.878906 1604.25 908.550781 1594.71875 926.339844 C 1586.628906 941.460938 1572.308594 957.160156 1553.691406 969.859375 C 1547.691406 973.949219 1541.558594 977.53125 1535.429688 980.558594 C 1532.628906 981.941406 1529.839844 983.210938 1527.070312 984.359375 C 1529.28125 992.078125 1530.460938 1000.28125 1530.460938 1008.878906 L 1530.460938 1032.941406 C 1641.570312 1039.050781 1741.089844 1072.828125 1813.460938 1123.929688 C 1866.160156 1161.148438 1904.660156 1207.589844 1923.199219 1259.421875 C 1923.449219 1260 1923.671875 1260.601562 1923.851562 1261.230469 L 1923.859375 1261.261719 C 1927.191406 1270.828125 1929.828125 1280.601562 1931.761719 1290.511719 C 1940.589844 1324.851562 1947.320312 1357.621094 1951.96875 1388.800781 C 1957.941406 1428.828125 1960.480469 1466.429688 1959.578125 1501.601562 C 1959.398438 1509.210938 1953.089844 1515.21875 1945.488281 1515.050781 C 1937.890625 1514.871094 1931.871094 1508.558594 1932.039062 1500.960938 C 1932.878906 1468.328125 1930.539062 1433.128906 1925.03125 1395.339844 C 1924.589844 1396.699219 1924.128906 1398.050781 1923.660156 1399.398438 C 1915.859375 1421.660156 1904.398438 1442.929688 1889.738281 1462.890625 C 1889.699219 1485.601562 1888.839844 1509.878906 1887.148438 1535.738281 C 1882.5 1607.078125 1871.511719 1690.765625 1854.199219 1786.769531 C 1853.570312 1793.824219 1847.648438 1799.351562 1840.429688 1799.351562 L 1773.050781 1799.351562 L 1773.050781 1799.320312 C 1766.539062 1799.324219 1760.738281 1794.699219 1759.5 1788.070312 L 1725.75 1610.339844 C 1718.601562 1605.660156 1711.839844 1600.898438 1705.449219 1596.058594 C 1702.898438 1616.609375 1699.941406 1637.878906 1696.578125 1659.875 C 1692.941406 1683.691406 1688.601562 1709.59375 1683.550781 1737.570312 C 1682.929688 1744.621094 1677 1750.152344 1669.789062 1750.152344 L 1606.128906 1750.152344 L 1606.128906 1750.117188 C 1599.621094 1750.125 1593.820312 1745.5 1592.578125 1738.871094 L 1570.738281 1623.859375 C 1545.789062 1626.800781 1520.140625 1628.339844 1493.988281 1628.339844 C 1484.601562 1628.339844 1474.679688 1628.101562 1464.25 1627.628906 C 1458.550781 1627.378906 1452.820312 1627.039062 1447.050781 1626.628906 C 1437.730469 1682.507812 1425.160156 1737.480469 1412.511719 1788.128906 C 1411.289062 1794.519531 1405.671875 1799.351562 1398.929688 1799.351562 L 1329.21875 1799.351562 L 1329.21875 1799.339844 C 1322.308594 1799.347656 1316.339844 1794.179688 1315.511719 1787.152344 C 1309.488281 1736.28125 1302.078125 1683.132812 1293.289062 1627.699219 L 1292.289062 1621.449219 C 1290.101562 1633.03125 1287.738281 1644.84375 1285.210938 1656.878906 C 1279.648438 1683.289062 1273.339844 1710.640625 1266.269531 1738.929688 C 1265.058594 1745.320312 1259.441406 1750.152344 1252.699219 1750.152344 L 1186.839844 1750.152344 L 1186.839844 1750.140625 C 1179.929688 1750.148438 1173.960938 1744.980469 1173.128906 1737.953125 C 1168.949219 1702.636719 1164.019531 1665.925781 1158.351562 1627.820312 C 1152.691406 1589.839844 1146.230469 1550.191406 1139 1508.898438 C 1138.929688 1508.5 1138.878906 1508.101562 1138.839844 1507.699219 C 1116.488281 1487.328125 1097.898438 1464.941406 1083.761719 1440.988281 Z M 1270.398438 1587.488281 C 1233.648438 1572.941406 1200.289062 1554.890625 1171.351562 1534.03125 C 1176.539062 1564.691406 1181.308594 1594.628906 1185.660156 1623.828125 C 1190.738281 1657.933594 1195.21875 1690.828125 1199.089844 1722.511719 L 1241.910156 1722.511719 C 1248.03125 1697.59375 1253.460938 1673.847656 1258.210938 1651.265625 C 1262.898438 1628.988281 1266.960938 1607.730469 1270.398438 1587.488281 Z M 1676.898438 1601.71875 C 1653.941406 1608.761719 1629.949219 1614.511719 1605.121094 1618.839844 C 1602.78125 1619.25 1600.429688 1619.640625 1598.070312 1620.03125 L 1617.53125 1722.511719 L 1658.269531 1722.511719 C 1662.199219 1700.296875 1665.859375 1678.050781 1669.261719 1655.773438 C 1672.109375 1637.121094 1674.660156 1619.101562 1676.898438 1601.71875 Z M 934.871094 987.589844 C 927.789062 979.511719 921.917969 970.199219 917.261719 959.660156 C 911.917969 947.558594 908.234375 933.859375 906.207031 918.578125 C 903.914062 923.421875 901.847656 928.449219 900.003906 933.679688 C 894.300781 949.828125 890.730469 967.808594 889.289062 987.589844 Z M 834.628906 987.589844 C 826.214844 958.71875 823.582031 927.699219 826.722656 894.539062 C 828.8125 872.488281 833.449219 849.539062 840.632812 825.679688 C 822.515625 844.699219 806.53125 865.550781 792.925781 887.871094 C 774.085938 918.761719 759.8125 952.410156 750.726562 987.789062 C 752.554688 987.660156 754.398438 987.589844 756.257812 987.589844 Z M 1366.140625 909.480469 L 1423.058594 914.859375 C 1434.289062 902.460938 1442.769531 888.03125 1447.070312 875.058594 C 1450.679688 864.171875 1451.480469 855.371094 1448.160156 852.089844 C 1444.578125 848.558594 1436.980469 848.660156 1427.601562 851.679688 C 1415.300781 855.648438 1401.351562 864.53125 1388.671875 877.390625 L 1388.589844 877.46875 L 1388.621094 877.488281 L 1388.609375 877.5 C 1388.410156 877.699219 1388.191406 877.898438 1387.980469 878.089844 C 1381.738281 884.511719 1376.511719 891.160156 1372.410156 897.710938 C 1369.910156 901.699219 1367.808594 905.648438 1366.140625 909.480469 Z M 1484.339844 930.75 C 1491.691406 935.039062 1498.410156 940.191406 1504.300781 946.078125 C 1508.390625 950.171875 1512.078125 954.609375 1515.320312 959.371094 C 1517.941406 958.320312 1520.578125 957.140625 1523.230469 955.828125 C 1528.171875 953.390625 1533.179688 950.460938 1538.148438 947.078125 C 1553.101562 936.871094 1564.339844 924.738281 1570.429688 913.378906 C 1575.078125 904.691406 1576.539062 897.238281 1573.699219 893.089844 C 1570.890625 888.949219 1563.421875 887.609375 1553.628906 888.769531 C 1540.769531 890.300781 1525.371094 896.328125 1510.460938 906.5 C 1503.601562 911.191406 1497.511719 916.289062 1492.351562 921.539062 C 1489.359375 924.578125 1486.679688 927.671875 1484.339844 930.75 "/>
<path fill-rule="evenodd" fill="rgb(0, 124, 191)" fill-opacity="1" d="M 1751.730469 1599.421875 Z M 1258.21875 1651.265625 C 1262.898438 1628.988281 1266.960938 1607.730469 1270.398438 1587.488281 C 1233.648438 1572.941406 1200.289062 1554.890625 1171.351562 1534.03125 C 1176.539062 1564.691406 1181.308594 1594.628906 1185.660156 1623.828125 C 1190.738281 1657.933594 1195.21875 1690.828125 1199.089844 1722.511719 L 1241.910156 1722.511719 C 1248.03125 1697.59375 1253.460938 1673.847656 1258.21875 1651.265625 Z M 1598.078125 1620.03125 L 1617.53125 1722.511719 L 1658.269531 1722.511719 C 1662.199219 1700.296875 1665.859375 1678.050781 1669.261719 1655.773438 C 1672.109375 1637.121094 1674.660156 1619.101562 1676.898438 1601.71875 C 1653.941406 1608.761719 1629.949219 1614.511719 1605.121094 1618.839844 Z M 1510.460938 906.5 C 1503.601562 911.191406 1497.511719 916.289062 1492.351562 921.539062 C 1489.359375 924.578125 1486.679688 927.671875 1484.339844 930.75 C 1491.691406 935.039062 1498.410156 940.191406 1504.300781 946.078125 C 1508.390625 950.171875 1512.078125 954.609375 1515.320312 959.371094 C 1517.941406 958.320312 1520.578125 957.140625 1523.230469 955.828125 C 1528.171875 953.390625 1533.179688 950.460938 1538.148438 947.078125 C 1553.101562 936.871094 1564.339844 924.738281 1570.429688 913.378906 C 1575.078125 904.691406 1576.539062 897.238281 1573.699219 893.089844 C 1570.890625 888.949219 1563.421875 887.609375 1553.628906 888.769531 C 1540.769531 890.300781 1525.371094 896.328125 1510.460938 906.5 Z M 1388.671875 877.390625 Z M 1388.609375 877.5 Z M 1387.980469 878.089844 C 1381.738281 884.511719 1376.511719 891.160156 1372.410156 897.710938 C 1369.910156 901.699219 1367.808594 905.648438 1366.140625 909.480469 L 1423.058594 914.859375 C 1434.289062 902.460938 1442.769531 888.03125 1447.070312 875.058594 C 1450.679688 864.171875 1451.480469 855.371094 1448.160156 852.089844 C 1444.578125 848.558594 1436.980469 848.660156 1427.601562 851.679688 C 1415.300781 855.648438 1401.351562 864.53125 1388.671875 877.390625 L 1388.589844 877.46875 L 1388.609375 877.5 Z M 900.003906 933.679688 C 894.300781 949.828125 890.730469 967.808594 889.289062 987.589844 L 934.871094 987.589844 C 927.789062 979.511719 921.917969 970.199219 917.261719 959.660156 C 911.917969 947.558594 908.234375 933.859375 906.207031 918.578125 C 903.914062 923.421875 901.847656 928.449219 900.003906 933.679688 Z M 834.628906 987.589844 C 826.214844 958.71875 823.582031 927.699219 826.722656 894.539062 C 828.8125 872.488281 833.449219 849.539062 840.632812 825.679688 C 822.515625 844.699219 806.53125 865.550781 792.925781 887.871094 C 774.085938 918.761719 759.8125 952.410156 750.726562 987.789062 C 752.554688 987.660156 754.398438 987.589844 756.257812 987.589844 Z M 1600.480469 1591.628906 C 1627.519531 1586.921875 1653.449219 1580.460938 1677.988281 1572.449219 C 1660.28125 1555.019531 1646.980469 1536.609375 1638.070312 1517.210938 C 1621.441406 1480.960938 1620.25 1441.898438 1634.5 1400.019531 C 1636.949219 1392.800781 1644.78125 1388.941406 1651.988281 1391.378906 C 1659.210938 1393.828125 1663.070312 1401.660156 1660.628906 1408.871094 C 1648.71875 1443.878906 1649.550781 1476.179688 1663.121094 1505.769531 C 1677.078125 1536.191406 1704.550781 1564.371094 1745.53125 1590.300781 C 1748.910156 1592.429688 1751.050781 1595.789062 1751.738281 1599.421875 L 1784.449219 1771.714844 L 1828.921875 1771.714844 C 1844.949219 1681.28125 1855.179688 1602.039062 1859.621094 1534.011719 C 1864.199219 1463.839844 1862.558594 1405.929688 1854.710938 1360.289062 C 1853.429688 1352.78125 1858.480469 1345.648438 1866 1344.371094 C 1873.511719 1343.089844 1880.640625 1348.140625 1881.921875 1355.648438 C 1884.898438 1372.980469 1887.03125 1391.941406 1888.308594 1412.519531 C 1891.890625 1405.25 1895 1397.851562 1897.640625 1390.328125 C 1904.390625 1371.050781 1907.960938 1350.890625 1907.960938 1330.121094 C 1907.960938 1318.398438 1906.800781 1306.851562 1904.558594 1295.511719 C 1902.46875 1287.390625 1900.25 1279.179688 1897.910156 1270.878906 C 1881.640625 1223.621094 1846.339844 1180.921875 1797.589844 1146.5 C 1729.53125 1098.441406 1635.648438 1066.570312 1530.460938 1060.539062 L 1530.460938 1080.191406 C 1530.460938 1087.820312 1524.269531 1094.011719 1516.640625 1094.011719 C 1509.011719 1094.011719 1502.820312 1087.820312 1502.820312 1080.191406 L 1502.820312 1008.878906 C 1502.820312 991.679688 1495.910156 976.78125 1484.761719 965.621094 C 1472.589844 953.460938 1455.449219 945.601562 1436.570312 943.808594 L 1094.941406 911.46875 C 1093.640625 911.351562 1092.019531 911.289062 1090.101562 911.289062 C 1075.058594 911.289062 1061.320312 918.011719 1050.941406 928.578125 C 1040.199219 939.511719 1033.03125 954.410156 1031.53125 970.328125 C 1031.359375 972.058594 1031.28125 974.128906 1031.28125 976.539062 L 1031.28125 1001.410156 C 1031.28125 1009.050781 1025.089844 1015.230469 1017.460938 1015.230469 L 756.257812 1015.230469 C 751.746094 1015.230469 747.371094 1015.859375 743.21875 1017.039062 C 740.386719 1021.121094 735.453125 1023.488281 730.269531 1022.871094 C 727.316406 1024.769531 724.578125 1026.980469 722.105469 1029.449219 C 713.335938 1038.230469 707.886719 1050.320312 707.886719 1063.609375 L 707.886719 1309.878906 C 707.886719 1322.171875 712.773438 1332.460938 720.652344 1340.328125 C 730.046875 1349.730469 743.609375 1355.960938 758.523438 1358.46875 L 1144.109375 1423.140625 C 1151.621094 1424.390625 1156.699219 1431.5 1155.441406 1439.019531 C 1154.191406 1446.53125 1147.089844 1451.601562 1139.570312 1450.351562 L 1120.921875 1447.21875 C 1137.441406 1469.570312 1158.539062 1490.25 1183.410156 1508.710938 C 1211.898438 1529.859375 1245.320312 1548.089844 1282.519531 1562.621094 C 1276.339844 1526.710938 1269.578125 1489.570312 1262.21875 1451.191406 C 1260.789062 1443.699219 1265.699219 1436.480469 1273.179688 1435.050781 C 1280.660156 1433.609375 1287.890625 1438.519531 1289.320312 1446 C 1301.109375 1507.53125 1311.5 1566.660156 1320.5 1623.378906 C 1328.789062 1675.675781 1335.78125 1725.121094 1341.46875 1771.714844 L 1388.140625 1771.714844 C 1400.441406 1721.886719 1412.421875 1668.417969 1421.050781 1614.96875 C 1430.28125 1557.789062 1435.789062 1500.289062 1433.960938 1446.699219 C 1433.71875 1439.101562 1439.691406 1432.738281 1447.300781 1432.511719 C 1454.898438 1432.269531 1461.261719 1438.238281 1461.488281 1445.839844 C 1463.171875 1495.070312 1458.921875 1547.199219 1451.320312 1599.320312 C 1455.960938 1599.621094 1460.660156 1599.890625 1465.429688 1600.101562 C 1474.269531 1600.488281 1483.78125 1600.699219 1493.988281 1600.699219 C 1522.851562 1600.699219 1550.988281 1598.761719 1578.128906 1595.089844 L 1579.289062 1594.820312 C 1580.128906 1594.660156 1580.960938 1594.589844 1581.789062 1594.578125 C 1588.070312 1593.691406 1594.300781 1592.710938 1600.480469 1591.628906 "/>
<path fill-rule="evenodd" fill="rgb(100%, 100%, 100%)" fill-opacity="1" d="M 1282.519531 1562.621094 C 1280.140625 1548.78125 1277.671875 1534.761719 1275.121094 1520.558594 C 1230.210938 1503.039062 1187.410156 1479.121094 1148.160156 1449.011719 C 1145.609375 1450.328125 1142.621094 1450.859375 1139.570312 1450.351562 L 1120.921875 1447.21875 C 1137.441406 1469.570312 1158.539062 1490.25 1183.410156 1508.710938 C 1211.898438 1529.859375 1245.320312 1548.089844 1282.519531 1562.621094 Z M 1456.820312 1555.960938 C 1455.28125 1570.371094 1453.429688 1584.839844 1451.320312 1599.320312 C 1455.960938 1599.621094 1460.660156 1599.890625 1465.429688 1600.101562 C 1474.269531 1600.488281 1483.78125 1600.699219 1493.988281 1600.699219 C 1522.851562 1600.699219 1550.988281 1598.761719 1578.128906 1595.089844 L 1579.289062 1594.820312 C 1580.128906 1594.660156 1580.960938 1594.589844 1581.789062 1594.578125 C 1588.070312 1593.691406 1594.300781 1592.710938 1600.480469 1591.628906 C 1627.519531 1586.921875 1653.449219 1580.460938 1677.988281 1572.449219 C 1662.488281 1557.191406 1650.359375 1541.179688 1641.601562 1524.410156 C 1581.589844 1546.398438 1518.96875 1556.761719 1456.820312 1555.960938 "/>
<path fill-rule="evenodd" fill="rgb(0%, 0%, 0%)" fill-opacity="1" d="M 1286.621094 815.191406 C 1354.679688 825.199219 1399.75 901.988281 1387.289062 986.710938 C 1374.820312 1071.429688 1309.550781 1131.988281 1241.5 1121.980469 C 1173.441406 1111.96875 1128.378906 1035.179688 1140.839844 950.460938 C 1153.300781 865.738281 1218.570312 805.179688 1286.621094 815.191406 "/>
<path fill-rule="evenodd" fill="rgb(68.554688%, 81.25%, 74.804688%)" fill-opacity="1" d="M 1287.53125 841.78125 C 1343.789062 850.058594 1381.050781 913.539062 1370.75 983.570312 C 1360.449219 1053.601562 1306.488281 1103.671875 1250.230469 1095.390625 C 1193.96875 1087.121094 1156.710938 1023.640625 1167.019531 953.601562 C 1170.289062 931.351562 1177.96875 911.109375 1188.738281 894.121094 C 1181.789062 907.140625 1176.808594 921.960938 1174.449219 937.980469 C 1165.480469 998.980469 1197.929688 1054.269531 1246.929688 1061.46875 C 1295.929688 1068.679688 1342.921875 1025.078125 1351.890625 964.078125 C 1360.621094 904.730469 1330.140625 850.789062 1283.351562 841.28125 C 1284.738281 841.421875 1286.140625 841.578125 1287.53125 841.78125 "/>
<path fill-rule="evenodd" fill="rgb(100%, 100%, 100%)" fill-opacity="1" d="M 1248.449219 851.699219 C 1264.738281 854.101562 1275.539062 872.488281 1272.550781 892.78125 C 1269.570312 913.058594 1253.941406 927.570312 1237.640625 925.171875 C 1221.339844 922.769531 1210.550781 904.378906 1213.539062 884.101562 C 1216.519531 863.808594 1232.148438 849.308594 1248.449219 851.699219 "/>
<path fill-rule="evenodd" fill="rgb(0%, 0%, 0%)" fill-opacity="1" d="M 705.265625 1237.730469 C 699.839844 1243.070312 691.113281 1242.988281 685.777344 1237.570312 C 680.441406 1232.140625 680.511719 1223.410156 685.9375 1218.078125 C 712.800781 1191.78125 739.101562 1177.441406 764.835938 1175.058594 C 791.507812 1172.601562 816.546875 1182.769531 839.957031 1205.589844 L 840.976562 1206.578125 L 841.792969 1207.800781 C 851.714844 1222.628906 865.253906 1234.171875 880.734375 1241.609375 C 896.203125 1249.039062 913.695312 1252.398438 931.539062 1250.878906 C 949.304688 1249.371094 965.941406 1243.109375 979.929688 1233.171875 C 993.964844 1223.191406 1005.371094 1209.53125 1012.628906 1193.269531 C 1015.730469 1186.320312 1023.878906 1183.199219 1030.828125 1186.300781 C 1037.769531 1189.398438 1040.890625 1197.550781 1037.789062 1204.5 C 1028.46875 1225.359375 1013.871094 1242.859375 995.90625 1255.621094 C 977.902344 1268.421875 956.550781 1276.480469 933.804688 1278.410156 C 911.132812 1280.339844 888.765625 1276.011719 868.859375 1266.441406 C 849.414062 1257.089844 832.386719 1242.769531 819.777344 1224.421875 C 802.71875 1208.148438 785.226562 1200.828125 767.320312 1202.488281 C 748.140625 1204.261719 727.453125 1216 705.265625 1237.730469 "/>
</svg>
