<?xml version="1.0" encoding="UTF-8"?>
<svg xmlns="http://www.w3.org/2000/svg" xmlns:xlink="http://www.w3.org/1999/xlink" width="2113" height="2113" viewBox="0 0 2113 2113">

<path fill-rule="nonzero" fill="rgb(60%, 70%, 90%)" fill-opacity="1" d="M 283.011719 904.25 C 282.441406 859.378906 300.640625 813.96875 335.855469 785.890625 C 327.96875 767.210938 322.035156 747.25 319.714844 727.171875 C 316.808594 705.710938 317.910156 684.058594 325.144531 663.699219 C 339.09375 624.398438 381.09375 593.359375 421.769531 602.519531 C 413.203125 558.828125 432.269531 510.941406 468.523438 485.089844 C 498.304688 463.851562 538.355469 458.460938 573.0625 469.578125 C 580.671875 471.75 588.035156 474.699219 595.039062 478.410156 C 609.449219 432.109375 650.277344 395.03125 697.777344 385.21875 C 707.757812 383.160156 718.96875 382.648438 730.609375 383.351562 C 763.394531 384.21875 800.703125 395.398438 825.160156 411.238281 C 827.875 413 830.6875 414.921875 833.695312 415.980469 C 839.867188 414.71875 844.261719 408.539062 848.007812 403.140625 C 857.429688 389.539062 869.367188 377.300781 884.1875 369.949219 C 901.84375 361.179688 922.546875 357.308594 943.292969 357.921875 C 976.257812 357.078125 1010.300781 367.550781 1033.589844 387.761719 C 1041.828125 394.898438 1049.519531 403.269531 1059.769531 407 C 1062.011719 407.820312 1064.28125 408.371094 1066.570312 408.730469 C 1077.601562 408.21875 1088.960938 404.539062 1100.019531 402.53125 C 1108.820312 400.941406 1117.738281 400.621094 1126.578125 401.410156 C 1172.179688 400.96875 1217.460938 431.050781 1233.011719 474.058594 C 1251.628906 470.589844 1270.921875 469.589844 1289.589844 471.851562 C 1313.941406 473.019531 1337.71875 479.261719 1358.179688 492.320312 C 1394.21875 515.328125 1416.03125 562.769531 1400.949219 602.710938 C 1435.019531 615.980469 1465.988281 640.710938 1479.648438 674.539062 C 1493.308594 708.371094 1486.179688 751.449219 1457.621094 774.238281 C 1496.378906 788.519531 1525.109375 826.679688 1528.050781 867.789062 C 1530.980469 908.898438 1507.960938 950.730469 1471.621094 970.339844 C 1499.261719 1005.070312 1504.441406 1056.078125 1484.339844 1095.628906 C 1472.109375 1119.679688 1450.921875 1138.664062 1426.210938 1149.507812 C 1435.011719 1155.882812 1443.441406 1162.789062 1451.441406 1170.226562 C 1458.339844 1176.648438 1464.941406 1183.441406 1471.21875 1190.550781 C 1486.488281 1175.050781 1506.800781 1164.433594 1527.910156 1158.515625 C 1555.191406 1150.867188 1583.921875 1150.300781 1612.238281 1151.042969 C 1633.269531 1151.597656 1655.359375 1152.628906 1674.179688 1143.226562 C 1692.140625 1134.25 1704.648438 1116.648438 1711.371094 1097.730469 C 1713.460938 1091.851562 1715.011719 1085.820312 1716.230469 1079.71875 C 1713.640625 1077.921875 1711.238281 1075.878906 1709.089844 1073.578125 C 1706.949219 1071.289062 1705.058594 1068.75 1703.5 1065.96875 C 1703.488281 1065.949219 1703.488281 1065.941406 1703.480469 1065.921875 C 1702.660156 1064.460938 1701.941406 1062.960938 1701.300781 1061.421875 C 1701.199219 1061.179688 1701.128906 1060.929688 1701.039062 1060.691406 C 1700.5 1059.351562 1700.011719 1057.988281 1699.609375 1056.609375 C 1699.570312 1056.488281 1699.550781 1056.359375 1699.511719 1056.230469 C 1699.078125 1054.710938 1698.710938 1053.171875 1698.421875 1051.609375 C 1698.421875 1051.609375 1698.421875 1051.609375 1698.421875 1051.601562 C 1696.941406 1043.71875 1697.191406 1035.421875 1698.648438 1027.5 C 1701.710938 1010.851562 1708.230469 992.449219 1719.570312 979.628906 C 1725.441406 972.988281 1732.890625 967.519531 1740.75 963.480469 C 1743.421875 962.109375 1761.289062 957.511719 1761.789062 956.328125 C 1759.378906 962.011719 1757.648438 967.980469 1756.648438 974.058594 C 1768.519531 968.269531 1780.601562 962.421875 1793.628906 960.269531 C 1806.289062 958.191406 1820.160156 960.121094 1830.140625 968.109375 C 1830.320312 968.25 1830.5 968.378906 1830.679688 968.511719 C 1830.800781 968.601562 1830.929688 968.679688 1831.039062 968.78125 C 1830.03125 969.5 1829.011719 970.238281 1827.988281 970.988281 C 1819.828125 976.96875 1811.570312 983.558594 1805.28125 991.230469 C 1803.710938 993.148438 1802.261719 995.140625 1800.960938 997.199219 C 1797.71875 1002.339844 1795.449219 1007.960938 1794.648438 1014.148438 C 1793.761719 1021 1794.828125 1027.949219 1794.699219 1034.859375 C 1794.289062 1056.589844 1780.488281 1078.011719 1760.109375 1085.578125 C 1754.089844 1087.808594 1747.621094 1088.628906 1741.210938 1088.238281 C 1740.699219 1096.648438 1739.941406 1105.039062 1738.71875 1113.328125 C 1736.691406 1127.140625 1733.429688 1140.679688 1728.089844 1153.589844 C 1725.890625 1158.898438 1723.28125 1164.097656 1720.289062 1169.082031 C 1711.320312 1184.023438 1698.921875 1197.011719 1684.039062 1205.183594 C 1680.730469 1206.996094 1677.300781 1208.574219 1673.75 1209.882812 C 1670.210938 1211.191406 1666.550781 1212.230469 1662.789062 1212.96875 C 1648.960938 1215.683594 1635.011719 1214.238281 1620.980469 1212.132812 C 1613.96875 1211.078125 1606.949219 1209.855469 1599.910156 1208.910156 C 1592.871094 1207.960938 1585.828125 1207.28125 1578.78125 1207.3125 C 1577.089844 1207.320312 1575.398438 1207.371094 1573.710938 1207.46875 C 1568.648438 1207.753906 1563.621094 1208.4375 1558.679688 1209.484375 C 1557.03125 1209.832031 1555.378906 1210.222656 1553.75 1210.652344 C 1542.339844 1213.660156 1531.410156 1218.609375 1521.539062 1225.140625 C 1518.730469 1227.011719 1515.988281 1229.007812 1513.359375 1231.121094 C 1510.71875 1233.242188 1508.191406 1235.480469 1505.761719 1237.828125 C 1514.851562 1252.90625 1522.808594 1268.710938 1529.570312 1284.9375 C 1533.628906 1294.671875 1537.261719 1304.558594 1540.449219 1314.53125 C 1549.050781 1341.417969 1554.859375 1368.921875 1558.621094 1396.785156 C 1561.628906 1419.074219 1563.308594 1441.59375 1564.039062 1464.203125 C 1565.320312 1503.777344 1563.691406 1543.640625 1561.101562 1583.074219 C 1560.191406 1596.894531 1558.679688 1611.871094 1556.03125 1626.746094 C 1555.648438 1628.871094 1555.25 1630.996094 1554.820312 1633.113281 C 1551.828125 1647.933594 1547.628906 1662.472656 1541.671875 1675.472656 C 1539.96875 1679.1875 1538.121094 1682.773438 1536.121094 1686.210938 C 1534.121094 1689.640625 1531.96875 1692.921875 1529.640625 1696.019531 C 1528.480469 1697.566406 1527.269531 1699.066406 1526.03125 1700.519531 C 1521.039062 1706.328125 1515.351562 1711.339844 1508.859375 1715.324219 C 1495.890625 1723.289062 1479.730469 1727.140625 1459.578125 1724.996094 C 1438.050781 1722.707031 1415.511719 1718.546875 1398.941406 1704.609375 C 1398.128906 1703.933594 1397.359375 1703.207031 1396.601562 1702.460938 C 1381.679688 1688.074219 1375.320312 1663.195312 1387.859375 1646.851562 C 1397.011719 1634.941406 1414.25 1629.277344 1418.871094 1614.992188 C 1420.78125 1609.109375 1420.101562 1602.746094 1419.410156 1596.605469 C 1416.089844 1567.15625 1411.800781 1535.625 1393.609375 1512.765625 C 1395.339844 1527.917969 1396.480469 1543.203125 1393.898438 1558.183594 C 1390.828125 1576.078125 1381.628906 1593.796875 1365.898438 1602.847656 C 1353.71875 1609.855469 1339.121094 1610.992188 1325.078125 1611.378906 C 1310.679688 1611.769531 1295.980469 1611.5 1282.320312 1606.917969 C 1268.660156 1602.335938 1256.011719 1592.804688 1250.859375 1579.347656 C 1245.699219 1565.894531 1249.898438 1548.5625 1262.371094 1541.339844 C 1267.539062 1538.339844 1274.128906 1536.804688 1277.121094 1531.628906 C 1278.609375 1529.035156 1278.910156 1525.9375 1279.121094 1522.953125 C 1280.300781 1506.679688 1279.988281 1490.304688 1278.289062 1474.078125 C 1221.25 1471.671875 1160.359375 1480.9375 1130.898438 1533.910156 C 1129.640625 1536.1875 1128.460938 1538.511719 1127.328125 1540.855469 C 1121.890625 1552.121094 1118.011719 1564.070312 1115.410156 1576.347656 C 1115.371094 1576.515625 1115.328125 1576.683594 1115.289062 1576.851562 C 1114.988281 1578.324219 1114.710938 1579.804688 1114.441406 1581.285156 C 1114.359375 1581.683594 1114.289062 1582.078125 1114.21875 1582.476562 C 1113.980469 1583.8125 1113.761719 1585.15625 1113.550781 1586.503906 C 1113.46875 1587.054688 1113.390625 1587.609375 1113.308594 1588.160156 C 1113.128906 1589.402344 1112.960938 1590.644531 1112.800781 1591.890625 C 1112.71875 1592.554688 1112.640625 1593.222656 1112.558594 1593.886719 C 1112.421875 1595.050781 1112.300781 1596.210938 1112.179688 1597.371094 C 1112.109375 1598.140625 1112.039062 1598.914062 1111.96875 1599.683594 C 1111.878906 1600.761719 1111.78125 1601.839844 1111.710938 1602.921875 C 1111.640625 1603.796875 1111.589844 1604.671875 1111.539062 1605.550781 C 1111.480469 1606.539062 1111.421875 1607.527344 1111.371094 1608.519531 C 1111.320312 1609.515625 1111.289062 1610.511719 1111.261719 1611.507812 C 1111.230469 1612.390625 1111.191406 1613.273438 1111.171875 1614.15625 C 1111.140625 1615.347656 1111.140625 1616.535156 1111.128906 1617.722656 C 1111.121094 1618.421875 1111.101562 1619.121094 1111.109375 1619.816406 C 1111.109375 1621.710938 1111.128906 1623.605469 1111.171875 1625.5 C 1112.011719 1660.90625 1118.269531 1701.355469 1094.238281 1727.375 C 1092.378906 1729.382812 1090.410156 1731.226562 1088.320312 1732.925781 C 1086.238281 1734.625 1084.050781 1736.175781 1081.769531 1737.59375 C 1079.488281 1739.015625 1077.121094 1740.304688 1074.679688 1741.476562 C 1067.359375 1744.984375 1059.398438 1747.441406 1051.28125 1749.230469 C 1045.871094 1750.425781 1040.378906 1751.320312 1034.96875 1752.039062 C 1026.351562 1753.183594 1017.589844 1753.980469 1008.859375 1754.121094 C 994.304688 1754.355469 979.824219 1752.765625 966.167969 1747.902344 C 964.867188 1747.4375 963.578125 1746.9375 962.300781 1746.40625 C 961.746094 1746.175781 961.207031 1745.925781 960.664062 1745.683594 C 959.953125 1745.367188 959.238281 1745.0625 958.535156 1744.730469 C 957.832031 1744.394531 957.140625 1744.03125 956.441406 1743.679688 C 955.929688 1743.414062 955.410156 1743.15625 954.898438 1742.882812 C 954.101562 1742.453125 953.3125 1742.003906 952.523438 1741.546875 C 952.148438 1741.324219 951.773438 1741.109375 951.398438 1740.886719 C 950.53125 1740.363281 949.675781 1739.820312 948.824219 1739.261719 C 948.5625 1739.089844 948.300781 1738.921875 948.039062 1738.746094 C 947.121094 1738.132812 946.21875 1737.496094 945.328125 1736.84375 C 945.160156 1736.722656 944.996094 1736.597656 944.828125 1736.472656 C 943.878906 1735.761719 942.941406 1735.035156 942.023438 1734.28125 C 941.945312 1734.21875 941.867188 1734.148438 941.785156 1734.085938 C 931.03125 1725.199219 922.851562 1713.511719 919.878906 1699.960938 C 914.910156 1677.300781 928.15625 1650.648438 950.714844 1645.25 C 952.804688 1644.75 955.109375 1644.324219 956.492188 1642.683594 C 958.078125 1640.800781 957.855469 1638.039062 957.53125 1635.59375 C 952.164062 1594.796875 943.996094 1554.367188 933.105469 1514.6875 C 929.992188 1503.347656 924.238281 1489.9375 912.527344 1488.808594 C 903.941406 1487.980469 896.421875 1494.609375 891.558594 1501.734375 C 882.367188 1515.1875 878.695312 1531.046875 876.777344 1547.414062 C 876.480469 1549.949219 876.226562 1552.496094 876 1555.046875 C 875.992188 1555.144531 875.984375 1555.242188 875.976562 1555.335938 C 875.503906 1560.679688 875.152344 1566.039062 874.800781 1571.359375 C 874.644531 1573.695312 874.488281 1576.023438 874.320312 1578.335938 C 873.71875 1586.601562 872.769531 1595.117188 871.105469 1603.414062 C 870.441406 1606.738281 869.660156 1610.023438 868.742188 1613.242188 C 867.828125 1616.464844 866.773438 1619.617188 865.558594 1622.679688 C 861.308594 1633.390625 855.089844 1642.9375 845.914062 1650.03125 C 837.765625 1656.332031 828.277344 1659.914062 818.214844 1661.847656 C 815.339844 1662.398438 812.417969 1662.820312 809.464844 1663.128906 C 807.988281 1663.28125 806.507812 1663.410156 805.019531 1663.515625 C 802.039062 1663.71875 799.042969 1663.828125 796.042969 1663.863281 C 794.546875 1663.882812 793.046875 1663.882812 791.546875 1663.867188 C 788.546875 1663.835938 785.558594 1663.746094 782.589844 1663.625 C 781.105469 1663.5625 779.628906 1663.492188 778.160156 1663.414062 C 737.34375 1661.296875 706.449219 1656.203125 685.523438 1617.394531 C 684.808594 1616.066406 684.144531 1614.699219 683.511719 1613.320312 C 683.363281 1613 683.21875 1612.679688 683.074219 1612.355469 C 682.46875 1610.988281 681.894531 1609.609375 681.375 1608.203125 C 681.371094 1608.191406 681.363281 1608.179688 681.359375 1608.171875 C 680.796875 1606.636719 680.289062 1605.085938 679.832031 1603.523438 C 679.789062 1603.382812 679.753906 1603.242188 679.714844 1603.101562 C 675.984375 1590.101562 676.035156 1576.089844 681.773438 1563.976562 C 689.703125 1547.234375 710.0625 1536.140625 727.601562 1542.105469 C 747.363281 1490.277344 757.992188 1435.011719 759.140625 1379.558594 C 737.542969 1386.679688 714.40625 1389.167969 691.84375 1386.277344 C 649.53125 1380.859375 609.972656 1356.800781 585.765625 1321.773438 C 589.652344 1327.398438 534.914062 1341.222656 530.085938 1341.472656 C 508.742188 1342.578125 489.179688 1337.289062 471.453125 1325.925781 C 446.996094 1310.246094 425.351562 1283.703125 421.144531 1254.675781 C 418.328125 1243.835938 417.863281 1232.511719 420.550781 1221.175781 C 381.441406 1222.507812 342.164062 1202.027344 321.300781 1168.960938 C 310.207031 1151.382812 304.605469 1130.65625 304.476562 1109.910156 C 303.054688 1088.171875 307.679688 1066.019531 318.535156 1047.121094 C 323.105469 1039.160156 328.867188 1030.949219 329.40625 1022.050781 C 327.554688 1014.058594 321.371094 1007.589844 315.945312 1001.238281 C 293.042969 974.441406 282.363281 939.320312 283.011719 904.25 Z M 811.109375 1351.027344 C 811.003906 1350.886719 810.894531 1350.753906 810.792969 1350.613281 C 810.894531 1350.753906 811.003906 1350.886719 811.109375 1351.027344 "/>
<path fill-rule="nonzero" fill="rgb(60%, 70%, 90%)" fill-opacity="1" d="M 1389 1507.433594 C 1390.640625 1509.144531 1392.148438 1510.9375 1393.609375 1512.765625 C 1395.339844 1527.917969 1396.480469 1543.203125 1393.910156 1558.183594 C 1390.828125 1576.078125 1381.628906 1593.796875 1365.898438 1602.847656 C 1353.71875 1609.855469 1339.121094 1610.992188 1325.078125 1611.378906 C 1310.679688 1611.769531 1295.980469 1611.5 1282.320312 1606.917969 C 1268.660156 1602.335938 1256.011719 1592.804688 1250.859375 1579.347656 C 1245.699219 1565.894531 1249.898438 1548.5625 1262.371094 1541.339844 C 1267.539062 1538.339844 1274.128906 1536.804688 1277.121094 1531.628906 C 1278.609375 1529.035156 1278.910156 1525.9375 1279.121094 1522.953125 C 1280.300781 1506.679688 1279.988281 1490.304688 1278.289062 1474.078125 C 1290.691406 1474.597656 1302.910156 1475.664062 1314.570312 1476.960938 C 1341.78125 1479.988281 1370.070312 1487.664062 1389 1507.433594 "/>
<path fill-rule="nonzero" fill="rgb(60%, 70%, 90%)" fill-opacity="1" d="M 1527.910156 1158.515625 C 1555.191406 1150.867188 1583.921875 1150.300781 1612.238281 1151.042969 C 1633.269531 1151.597656 1655.359375 1152.628906 1674.179688 1143.226562 C 1692.140625 1134.25 1704.648438 1116.648438 1711.371094 1097.730469 C 1713.460938 1091.851562 1715.011719 1085.820312 1716.230469 1079.71875 C 1723.5 1084.738281 1732.28125 1087.699219 1741.210938 1088.238281 C 1739.871094 1110.671875 1736.628906 1132.933594 1728.089844 1153.589844 C 1716.378906 1181.914062 1692.871094 1207.0625 1662.789062 1212.96875 C 1635.128906 1218.398438 1606.96875 1207.195312 1578.78125 1207.3125 C 1551.699219 1207.429688 1525.160156 1219.019531 1505.761719 1237.828125 C 1495.628906 1221.015625 1484.078125 1205.117188 1471.21875 1190.550781 C 1486.488281 1175.050781 1506.800781 1164.433594 1527.910156 1158.515625 "/>
<path fill-rule="nonzero" fill="rgb(60%, 70%, 90%)" fill-opacity="1" d="M 681.773438 1563.976562 C 689.703125 1547.234375 710.0625 1536.140625 727.601562 1542.105469 C 748.714844 1486.730469 759.410156 1427.433594 759.242188 1368.175781 C 775.742188 1361.988281 791.1875 1353.019531 804.53125 1341.503906 C 826.78125 1378.238281 870.339844 1400.234375 913.0625 1395.851562 C 953.957031 1391.65625 990.714844 1367.515625 1018.351562 1337.078125 C 1042.441406 1366.617188 1082.519531 1382.226562 1120.238281 1376.753906 C 1157.960938 1371.277344 1191.960938 1344.914062 1206.640625 1309.746094 C 1249.960938 1322.179688 1299.609375 1309.199219 1331.289062 1277.148438 C 1362.980469 1245.097656 1375.390625 1195.308594 1362.460938 1152.136719 C 1380.339844 1152.824219 1398.179688 1148.894531 1414.410156 1141.421875 C 1435.46875 1154.902344 1454.46875 1171.589844 1471.21875 1190.550781 C 1484.078125 1205.117188 1495.628906 1221.015625 1505.761719 1237.828125 C 1520.300781 1261.953125 1531.949219 1287.9375 1540.449219 1314.53125 C 1567.960938 1400.566406 1567.011719 1492.941406 1561.101562 1583.074219 C 1556.960938 1646.269531 1540.171875 1733.5625 1459.578125 1724.996094 C 1438.050781 1722.707031 1415.511719 1718.546875 1398.941406 1704.609375 C 1382.359375 1690.675781 1374.679688 1664.03125 1387.859375 1646.851562 C 1397.011719 1634.941406 1414.25 1629.277344 1418.878906 1614.992188 C 1420.78125 1609.109375 1420.101562 1602.746094 1419.410156 1596.605469 C 1416.089844 1567.15625 1411.800781 1535.625 1393.609375 1512.765625 C 1392.148438 1510.9375 1390.640625 1509.144531 1389 1507.433594 C 1370.070312 1487.664062 1341.78125 1479.988281 1314.570312 1476.960938 C 1302.910156 1475.664062 1290.691406 1474.597656 1278.289062 1474.078125 C 1221.25 1471.671875 1160.359375 1480.9375 1130.898438 1533.910156 C 1115.550781 1561.527344 1110.429688 1593.90625 1111.171875 1625.5 C 1112.011719 1660.90625 1118.269531 1701.355469 1094.238281 1727.375 C 1079.410156 1743.425781 1056.628906 1749.167969 1034.96875 1752.039062 C 1011.96875 1755.089844 988.019531 1755.683594 966.167969 1747.902344 C 944.316406 1740.117188 924.84375 1722.621094 919.878906 1699.960938 C 914.914062 1677.300781 928.15625 1650.648438 950.71875 1645.25 C 952.804688 1644.75 955.109375 1644.324219 956.492188 1642.683594 C 958.078125 1640.800781 957.855469 1638.039062 957.53125 1635.59375 C 952.164062 1594.796875 943.996094 1554.367188 933.105469 1514.6875 C 929.992188 1503.347656 924.238281 1489.9375 912.527344 1488.808594 C 903.941406 1487.980469 896.421875 1494.609375 891.558594 1501.734375 C 876.605469 1523.628906 876.238281 1551.894531 874.320312 1578.335938 C 872.402344 1604.78125 866.890625 1633.820312 845.914062 1650.03125 C 827.289062 1664.429688 801.667969 1664.636719 778.160156 1663.414062 C 737.34375 1661.296875 706.449219 1656.203125 685.523438 1617.394531 C 676.730469 1601.089844 673.847656 1580.71875 681.773438 1563.976562 "/>
<path fill-rule="nonzero" fill="rgb(60%, 70%, 90%)" fill-opacity="1" d="M 1698.648438 1027.5 C 1701.710938 1010.851562 1708.230469 992.449219 1719.570312 979.628906 C 1725.441406 972.988281 1732.890625 967.519531 1740.75 963.480469 C 1743.421875 962.109375 1761.289062 957.511719 1761.789062 956.328125 C 1759.378906 962.011719 1757.648438 967.980469 1756.648438 974.058594 C 1768.519531 968.269531 1780.601562 962.421875 1793.628906 960.269531 C 1806.660156 958.128906 1821.011719 960.191406 1831.039062 968.78125 C 1814.828125 980.441406 1797.210938 994.339844 1794.648438 1014.148438 C 1793.761719 1021 1794.828125 1027.949219 1794.699219 1034.859375 C 1794.289062 1056.589844 1780.488281 1078.011719 1760.109375 1085.578125 C 1754.089844 1087.808594 1747.621094 1088.628906 1741.210938 1088.238281 C 1732.28125 1087.699219 1723.5 1084.738281 1716.230469 1079.71875 C 1711.050781 1076.128906 1706.621094 1071.53125 1703.5 1065.96875 C 1697.050781 1054.46875 1696.261719 1040.46875 1698.648438 1027.5 "/>
<path fill-rule="nonzero" fill="rgb(60%, 70%, 90%)" fill-opacity="1" d="M 1512.628906 1691.515625 C 1551.300781 1659.566406 1548.191406 1584.550781 1550.160156 1539.257812 C 1552.890625 1476.507812 1548.640625 1413.078125 1532.398438 1352.226562 C 1511.121094 1272.453125 1467.808594 1196.828125 1403.171875 1145.90625 C 1406.980469 1144.59375 1410.738281 1143.109375 1414.410156 1141.421875 C 1435.46875 1154.902344 1454.46875 1171.589844 1471.21875 1190.550781 C 1484.078125 1205.117188 1495.628906 1221.015625 1505.761719 1237.828125 C 1520.300781 1261.953125 1531.949219 1287.9375 1540.449219 1314.53125 C 1567.960938 1400.566406 1567.011719 1492.941406 1561.101562 1583.074219 C 1556.960938 1646.269531 1540.171875 1733.5625 1459.578125 1724.996094 C 1438.050781 1722.707031 1415.511719 1718.546875 1398.941406 1704.609375 C 1397.460938 1703.363281 1396.070312 1701.984375 1394.738281 1700.550781 C 1433.550781 1713.894531 1484.46875 1714.777344 1512.628906 1691.515625 "/>
<path fill-rule="nonzero" fill="rgb(60%, 70%, 90%)" fill-opacity="1" d="M 1083.910156 1693.238281 C 1097.839844 1670.929688 1100.511719 1643.667969 1103.789062 1617.574219 C 1106.820312 1593.503906 1110.871094 1568.929688 1122.871094 1547.847656 C 1124.230469 1545.453125 1125.730469 1543.121094 1127.339844 1540.847656 C 1114.769531 1566.871094 1110.488281 1596.507812 1111.171875 1625.5 C 1112.011719 1660.90625 1118.269531 1701.355469 1094.238281 1727.375 C 1079.410156 1743.425781 1056.628906 1749.167969 1034.96875 1752.039062 C 1011.96875 1755.089844 988.019531 1755.683594 966.167969 1747.902344 C 956.199219 1744.351562 946.746094 1738.757812 938.921875 1731.597656 C 950.992188 1735.085938 963.292969 1737.625 975.878906 1738.757812 C 1016.851562 1742.453125 1062.109375 1728.132812 1083.910156 1693.238281 "/>
<path fill-rule="nonzero" fill="rgb(60%, 70%, 90%)" fill-opacity="1" d="M 841.160156 1620.734375 C 861.503906 1602.511719 866.988281 1573.324219 876.777344 1547.414062 C 875.578125 1557.679688 875.058594 1568.144531 874.320312 1578.335938 C 872.402344 1604.78125 866.890625 1633.820312 845.914062 1650.03125 C 827.289062 1664.429688 801.667969 1664.636719 778.160156 1663.414062 C 737.34375 1661.296875 706.449219 1656.203125 685.523438 1617.394531 C 682.339844 1611.484375 679.941406 1605.042969 678.542969 1598.429688 C 726.15625 1638.597656 789.191406 1667.289062 841.160156 1620.734375 "/>
<path fill-rule="nonzero" fill="rgb(60%, 70%, 90%)" fill-opacity="1" d="M 1527.269531 1201.304688 C 1554.371094 1190.09375 1585.019531 1195.175781 1614.171875 1198.335938 C 1643.320312 1201.492188 1675.648438 1201.621094 1698.398438 1183.117188 C 1713.589844 1170.765625 1721.949219 1151.960938 1727.949219 1133.320312 C 1732.710938 1118.523438 1736.300781 1103.359375 1738.730469 1088.011719 C 1739.550781 1088.101562 1740.378906 1088.191406 1741.210938 1088.238281 C 1739.871094 1110.671875 1736.628906 1132.933594 1728.089844 1153.589844 C 1716.378906 1181.914062 1692.871094 1207.0625 1662.789062 1212.96875 C 1635.128906 1218.398438 1606.96875 1207.195312 1578.78125 1207.3125 C 1551.699219 1207.429688 1525.160156 1219.019531 1505.761719 1237.828125 C 1502.800781 1232.921875 1499.691406 1228.117188 1496.488281 1223.378906 C 1505.140625 1213.996094 1515.25 1206.28125 1527.269531 1201.304688 "/>
<path fill-rule="nonzero" fill="rgb(60%, 70%, 90%)" fill-opacity="1" d="M 1033.589844 387.761719 C 1041.828125 394.898438 1049.519531 403.269531 1059.769531 407 C 1075.738281 412.820312 1093.148438 405.96875 1109.871094 402.949219 C 1161.769531 393.558594 1218.019531 427.210938 1234.140625 477.289062 C 1275.78125 467.421875 1322.128906 469.308594 1358.179688 492.320312 C 1394.21875 515.328125 1416.03125 562.769531 1400.949219 602.710938 C 1435.019531 615.980469 1465.988281 640.710938 1479.648438 674.539062 C 1493.308594 708.371094 1486.179688 751.449219 1457.621094 774.238281 C 1496.378906 788.519531 1525.109375 826.679688 1528.050781 867.789062 C 1530.980469 908.898438 1507.960938 950.730469 1471.621094 970.339844 C 1499.261719 1005.070312 1504.441406 1056.078125 1484.339844 1095.628906 C 1464.230469 1135.183594 1419.910156 1161.175781 1375.480469 1159.472656 C 1388.570312 1203.046875 1376 1253.296875 1343.941406 1285.640625 C 1311.871094 1317.988281 1261.628906 1331.089844 1217.78125 1318.542969 C 1202.921875 1354.03125 1168.511719 1380.640625 1130.339844 1386.167969 C 1092.171875 1391.691406 1051.601562 1375.9375 1027.21875 1346.125 C 999.253906 1376.84375 962.050781 1401.207031 920.660156 1405.441406 C 877.425781 1409.867188 833.339844 1387.664062 810.824219 1350.589844 C 778.53125 1378.386719 734.152344 1391.695312 691.84375 1386.277344 C 649.535156 1380.859375 609.972656 1356.800781 585.765625 1321.773438 C 589.652344 1327.398438 534.914062 1341.222656 530.085938 1341.472656 C 508.742188 1342.578125 489.179688 1337.289062 471.453125 1325.925781 C 437.714844 1304.296875 409.308594 1262.019531 424.679688 1221.023438 C 384.234375 1224.007812 342.898438 1203.191406 321.300781 1168.960938 C 299.699219 1134.730469 298.765625 1088.570312 318.964844 1053.488281 C 324.269531 1044.28125 331.171875 1034.71875 329.84375 1024.171875 C 328.710938 1015.171875 321.847656 1008.148438 315.945312 1001.238281 C 264.339844 940.859375 274.65625 838.191406 337.25 789.21875 C 320.363281 750.648438 311.53125 706.179688 325.652344 666.519531 C 339.773438 626.871094 382.277344 595.539062 423.441406 604.78125 C 414.777344 560.691406 434.074219 512.351562 470.761719 486.261719 C 507.453125 460.171875 559.5625 457.71875 598.550781 480.269531 C 612.925781 433.191406 654.449219 395.421875 702.78125 385.480469 C 739.816406 377.851562 793.367188 390.648438 825.160156 411.238281 C 829.214844 413.871094 833.460938 416.898438 838.292969 416.800781 C 845.648438 416.648438 850.628906 409.589844 854.820312 403.558594 C 864.359375 389.839844 876.441406 377.480469 891.4375 370.058594 C 935.183594 348.410156 997.375 356.339844 1033.589844 387.761719 "/>
<path fill-rule="nonzero" fill="rgb(60%, 70%, 90%)" fill-opacity="1" d="M 1024.648438 387.480469 C 1032.78125 394.558594 1040.378906 402.859375 1050.511719 406.550781 C 1066.289062 412.320312 1083.488281 405.53125 1100.019531 402.53125 C 1151.300781 393.230469 1206.878906 426.578125 1222.808594 476.199219 C 1263.949219 466.410156 1309.75 468.289062 1345.359375 491.089844 C 1380.980469 513.890625 1402.53125 560.898438 1387.628906 600.46875 C 1421.289062 613.621094 1451.890625 638.121094 1465.390625 671.640625 C 1478.890625 705.160156 1471.839844 747.851562 1443.621094 770.429688 C 1481.921875 784.578125 1510.308594 822.390625 1513.210938 863.121094 C 1516.109375 903.851562 1493.359375 945.300781 1457.449219 964.730469 C 1484.769531 999.148438 1489.878906 1049.691406 1470.019531 1088.878906 C 1450.160156 1128.066406 1406.359375 1153.820312 1362.460938 1152.136719 C 1375.390625 1195.308594 1362.980469 1245.097656 1331.289062 1277.148438 C 1299.609375 1309.199219 1249.960938 1322.179688 1206.640625 1309.746094 C 1191.960938 1344.914062 1157.960938 1371.277344 1120.238281 1376.753906 C 1082.519531 1382.230469 1042.441406 1366.617188 1018.351562 1337.078125 C 990.714844 1367.515625 953.957031 1391.65625 913.0625 1395.851562 C 870.339844 1400.234375 826.78125 1378.238281 804.53125 1341.503906 C 772.621094 1369.042969 728.777344 1382.230469 686.972656 1376.863281 C 645.167969 1371.496094 606.074219 1347.65625 582.160156 1312.949219 C 585.996094 1318.519531 531.914062 1332.21875 527.144531 1332.46875 C 506.050781 1333.5625 486.722656 1328.324219 469.207031 1317.0625 C 435.871094 1295.632812 407.804688 1253.742188 422.992188 1213.121094 C 383.023438 1216.078125 342.1875 1195.453125 320.84375 1161.535156 C 299.5 1127.617188 298.574219 1081.871094 318.535156 1047.121094 C 323.78125 1037.988281 330.597656 1028.53125 329.285156 1018.078125 C 328.164062 1009.160156 321.386719 1002.199219 315.554688 995.351562 C 264.5625 935.519531 274.757812 833.789062 336.605469 785.269531 C 319.917969 747.058594 311.1875 702.988281 325.144531 663.699219 C 339.09375 624.398438 381.09375 593.359375 421.769531 602.519531 C 413.203125 558.828125 432.269531 510.941406 468.523438 485.089844 C 504.777344 459.230469 556.265625 456.808594 594.785156 479.140625 C 608.992188 432.5 650.023438 395.078125 697.777344 385.21875 C 734.371094 377.671875 787.285156 390.351562 818.695312 410.75 C 822.703125 413.351562 826.898438 416.359375 831.675781 416.261719 C 838.945312 416.109375 843.863281 409.121094 848.007812 403.140625 C 857.429688 389.539062 869.367188 377.300781 884.1875 369.941406 C 927.410156 348.488281 988.859375 356.351562 1024.648438 387.480469 "/>
<path fill-rule="nonzero" fill="rgb(99.21875%, 86.71875%, 66.601562%)" fill-opacity="1" d="M 1190.160156 673.890625 C 1204.78125 649.039062 1225.300781 627.648438 1249.761719 612.378906 C 1265.460938 602.578125 1284.050781 595.070312 1302.179688 598.761719 C 1320.609375 602.519531 1335.480469 617.929688 1341.109375 635.871094 C 1346.761719 653.808594 1343.949219 673.710938 1336.03125 690.769531 C 1331.808594 699.871094 1326.089844 708.398438 1318.460938 714.910156 C 1307.71875 724.070312 1293.910156 728.671875 1280.320312 732.5 C 1271.621094 734.949219 1262.839844 737.078125 1254.03125 739.058594 C 1234.941406 715.480469 1213.519531 693.628906 1190.160156 673.890625 "/>
<path fill-rule="nonzero" fill="rgb(99.21875%, 86.71875%, 66.601562%)" fill-opacity="1" d="M 452.710938 681.828125 C 444.355469 662.238281 444.441406 638.351562 456.292969 620.660156 C 468.914062 601.828125 493.257812 592.789062 515.789062 595.269531 C 538.328125 597.75 558.867188 610.441406 574.285156 627.058594 C 586.441406 640.171875 595.699219 655.609375 603.523438 671.738281 C 578.015625 694.410156 555.105469 720.441406 535.496094 749.628906 C 521.203125 744.011719 507.402344 737.371094 494.605469 728.851562 C 476.886719 717.039062 461.0625 701.410156 452.710938 681.828125 "/>
<path fill-rule="nonzero" fill="rgb(99.21875%, 86.71875%, 66.601562%)" fill-opacity="1" d="M 474.402344 891.378906 C 486.785156 838.191406 507.851562 790.78125 535.496094 749.628906 C 555.105469 720.441406 578.015625 694.410156 603.523438 671.738281 C 748.886719 542.570312 978.019531 522.359375 1154.300781 646.171875 C 1166.679688 654.871094 1178.628906 664.148438 1190.160156 673.890625 C 1213.519531 693.628906 1234.941406 715.480469 1254.03125 739.058594 C 1305.050781 802.101562 1339.058594 877.710938 1346.128906 960.269531 C 1353.269531 1043.558594 1320.5 1119.21875 1251.96875 1168.257812 C 1164.730469 1230.683594 1044.578125 1242.996094 940.359375 1246.878906 C 827.394531 1251.089844 712.484375 1238.191406 605.191406 1201.644531 C 532.785156 1176.984375 481.0625 1131.007812 468.203125 1053.789062 C 459.40625 1000.960938 462.265625 943.488281 474.402344 891.378906 "/>
<path fill-rule="nonzero" fill="rgb(94.921875%, 70.117188%, 68.554688%)" fill-opacity="1" d="M 533.25 638.761719 C 518.414062 632.980469 498.804688 637.25 491.578125 651.441406 C 488.789062 656.921875 488.0625 663.261719 488.378906 669.410156 C 489.222656 686.109375 497.757812 702.261719 511.078125 712.371094 C 514.601562 715.050781 518.492188 717.339844 522.769531 718.460938 C 533.367188 721.230469 544.8125 716.269531 552.496094 708.460938 C 577.382812 683.191406 565.355469 651.28125 533.25 638.761719 "/>
<path fill-rule="nonzero" fill="rgb(94.921875%, 70.117188%, 68.554688%)" fill-opacity="1" d="M 1283.148438 652.011719 C 1289.871094 653.800781 1296.269531 657.761719 1299.609375 663.851562 C 1302.96875 669.96875 1302.871094 677.390625 1301.910156 684.308594 C 1300.488281 694.558594 1296.890625 705.269531 1288.53125 711.378906 C 1281.488281 716.519531 1271.960938 717.511719 1263.519531 715.308594 C 1255.078125 713.109375 1247.628906 708.03125 1241.308594 702.019531 C 1206.421875 668.808594 1249.429688 643.039062 1283.148438 652.011719 "/>
<path fill-rule="nonzero" fill="rgb(90.234375%, 77.734375%, 60.351562%)" fill-opacity="1" d="M 953.902344 962.230469 C 950.496094 961.101562 946.855469 960.351562 943.109375 959.890625 C 932.972656 958.640625 922.210938 959.328125 914.121094 959.28125 C 894.636719 959.160156 838.019531 948.828125 815.746094 964.011719 C 798.507812 932.601562 786.398438 898.230469 776.191406 863.738281 C 750.277344 776.148438 734.914062 685.46875 730.300781 594.238281 C 835.589844 552.78125 957.5625 551.871094 1068.691406 598.710938 C 1063.960938 642.46875 1051.050781 685.601562 1038.210938 727.949219 C 1014.121094 807.449219 989.753906 887.441406 953.902344 962.230469 "/>
<path fill-rule="nonzero" fill="rgb(24.705505%, 12.939453%, 9.397888%)" fill-opacity="1" d="M 672.355469 942.53125 C 672.355469 963 688.941406 979.589844 709.40625 979.589844 C 729.871094 979.589844 746.460938 963 746.460938 942.53125 C 746.460938 922.070312 729.871094 905.480469 709.40625 905.480469 C 688.941406 905.480469 672.355469 922.070312 672.355469 942.53125 "/>
<path fill-rule="nonzero" fill="rgb(100%, 100%, 100%)" fill-opacity="1" d="M 706.660156 925.921875 C 706.660156 932.730469 712.183594 938.261719 719 938.261719 C 725.8125 938.261719 731.335938 932.730469 731.335938 925.921875 C 731.335938 919.109375 725.8125 913.578125 719 913.578125 C 712.183594 913.578125 706.660156 919.109375 706.660156 925.921875 "/>
<path fill-rule="nonzero" fill="rgb(24.705505%, 12.939453%, 9.397888%)" fill-opacity="1" d="M 1148.558594 942.53125 C 1148.558594 963 1131.96875 979.589844 1111.5 979.589844 C 1091.039062 979.589844 1074.449219 963 1074.449219 942.53125 C 1074.449219 922.070312 1091.039062 905.480469 1111.5 905.480469 C 1131.96875 905.480469 1148.558594 922.070312 1148.558594 942.53125 "/>
<path fill-rule="nonzero" fill="rgb(100%, 100%, 100%)" fill-opacity="1" d="M 1114.25 925.921875 C 1114.25 932.730469 1108.71875 938.261719 1101.910156 938.261719 C 1095.101562 938.261719 1089.570312 932.730469 1089.570312 925.921875 C 1089.570312 919.109375 1095.101562 913.578125 1101.910156 913.578125 C 1108.71875 913.578125 1114.25 919.109375 1114.25 925.921875 "/>
<path fill-rule="nonzero" fill="rgb(98.4375%, 93.75%, 83.984375%)" fill-opacity="1" d="M 759.175781 1029.941406 C 818.199219 1000.710938 886.574219 990.941406 951.472656 1001.980469 C 1014.640625 1012.730469 1081.351562 1036.96875 1133.449219 1074.648438 C 1172.640625 1102.988281 1205.238281 1142.277344 1220.570312 1187.8125 C 1137.238281 1233.332031 1032.589844 1243.441406 940.359375 1246.878906 C 827.394531 1251.089844 712.484375 1238.191406 605.191406 1201.644531 C 596.222656 1198.589844 587.578125 1195.207031 579.28125 1191.476562 C 617.03125 1115.828125 684.15625 1067.089844 759.175781 1029.941406 "/>
<path fill="none" stroke-width="9.6066" stroke-linecap="round" stroke-linejoin="round" stroke="rgb(24.705505%, 12.939453%, 9.397888%)" stroke-opacity="1" stroke-miterlimit="10" d="M 8953.398438 10653.203125 C 8950.507812 10524.296875 8949.84375 10395.390625 8951.328125 10266.40625 C 8952.96875 10124.609375 8962.382812 9969.414062 9058.085938 9864.726562 C 9140.78125 9774.21875 9282.148438 9743.125 9395.195312 9790.585938 C 9423.046875 9802.304688 9449.726562 9818.789062 9467.695312 9843.007812 C 9493.320312 9877.65625 9498.007812 9923.085938 9500.039062 9966.132812 " transform="matrix(0.1, 0, 0, -0.1, 0, 2113)"/>
<path fill="none" stroke-width="9.6066" stroke-linecap="round" stroke-linejoin="round" stroke="rgb(24.705505%, 12.939453%, 9.397888%)" stroke-opacity="1" stroke-miterlimit="10" d="M 8953.75 10092.8125 C 8976.40625 9968.125 8899.257812 9832.890625 8779.609375 9787.5 C 8726.640625 9767.421875 8668.90625 9763.789062 8612.1875 9762.851562 C 8570.859375 9762.1875 8528.125 9763.085938 8490.46875 9779.84375 C 8452.773438 9796.601562 8421.210938 9833.203125 8423.007812 9873.984375 " transform="matrix(0.1, 0, 0, -0.1, 0, 2113)"/>
<path fill-rule="nonzero" fill="rgb(94.921875%, 70.117188%, 68.554688%)" fill-opacity="1" d="M 1055.5 1019.621094 C 1055.5 1034.980469 1080.410156 1047.429688 1111.128906 1047.429688 C 1141.851562 1047.429688 1166.75 1034.980469 1166.75 1019.621094 C 1166.75 1004.261719 1141.851562 991.808594 1111.128906 991.808594 C 1080.410156 991.808594 1055.5 1004.261719 1055.5 1019.621094 "/>
<path fill-rule="nonzero" fill="rgb(94.921875%, 70.117188%, 68.554688%)" fill-opacity="1" d="M 635.898438 1019.621094 C 635.898438 1034.980469 660.804688 1047.429688 691.523438 1047.429688 C 722.246094 1047.429688 747.148438 1034.980469 747.148438 1019.621094 C 747.148438 1004.261719 722.246094 991.808594 691.523438 991.808594 C 660.804688 991.808594 635.898438 1004.261719 635.898438 1019.621094 "/>
<path fill-rule="nonzero" fill="rgb(24.705505%, 12.939453%, 9.397888%)" fill-opacity="1" d="M 943.109375 959.890625 C 953.828125 961.210938 963.84375 964.710938 969.253906 973.539062 C 979.664062 990.53125 963.734375 1016.988281 950.785156 1027.859375 C 908.996094 1062.921875 821.855469 1046.761719 807.667969 989.429688 C 795.609375 940.691406 888.066406 959.121094 914.121094 959.28125 C 922.210938 959.328125 932.972656 958.640625 943.109375 959.890625 "/>
<path fill-rule="nonzero" fill="rgb(94.139099%, 61.914062%, 12.156677%)" fill-opacity="1" d="M 1723.488281 1064.601562 C 1749.078125 1071.839844 1764.589844 1053.628906 1770.410156 1031.011719 C 1773.511719 1018.941406 1774.949219 1006.308594 1780.078125 994.949219 C 1788.929688 975.359375 1809.730469 966.859375 1830.140625 968.109375 C 1830.429688 968.339844 1830.761719 968.53125 1831.039062 968.78125 C 1814.828125 980.441406 1797.210938 994.339844 1794.648438 1014.148438 C 1793.761719 1021 1794.828125 1027.949219 1794.699219 1034.859375 C 1794.289062 1056.589844 1780.488281 1078.011719 1760.109375 1085.578125 C 1754.089844 1087.808594 1747.621094 1088.628906 1741.210938 1088.238281 C 1732.28125 1087.699219 1723.5 1084.738281 1716.230469 1079.71875 C 1711.050781 1076.128906 1706.621094 1071.53125 1703.5 1065.96875 C 1700.160156 1060 1698.359375 1053.359375 1697.710938 1046.539062 C 1704.449219 1054.960938 1713.191406 1061.679688 1723.488281 1064.601562 "/>
</svg>
