<?xml version="1.0" encoding="UTF-8"?>
<svg xmlns="http://www.w3.org/2000/svg" xmlns:xlink="http://www.w3.org/1999/xlink" width="3000" height="3000" viewBox="0 0 3000 3000">
<path fill-rule="nonzero" fill="rgb(160, 217, 255)" fill-opacity="1" d="M 2119.171875 1539.191406 C 2240.980469 1340.058594 2294.5 1139.019531 2279.75 936.050781 C 2272.378906 860.609375 2252.050781 798.660156 2218.738281 750.191406 C 2175.269531 688.761719 2118.671875 639.660156 2048.949219 602.898438 C 1943.699219 555.019531 1842.789062 558.921875 1746.21875 614.609375 C 1696.261719 646.941406 1661.609375 682.371094 1642.25 720.871094 C 1621.96875 764.191406 1613.710938 814.78125 1617.460938 872.640625 C 1620.140625 914.578125 1636.328125 969.910156 1666.050781 1038.640625 C 1697.679688 1115.351562 1727.308594 1170.148438 1754.929688 1203.058594 C 1765.53125 1217.578125 1780.25 1234.820312 1799.078125 1254.789062 C 1860.109375 1310.898438 1898.441406 1348.03125 1914.058594 1366.171875 C 1928.058594 1382.078125 1938.429688 1394.460938 1945.171875 1403.300781 C 1980.789062 1453.929688 2000.148438 1480.058594 2003.238281 1481.691406 L 2118.828125 1539.019531 "/>
<path fill-rule="nonzero" fill="rgb(160, 217, 255)" fill-opacity="1" d="M 2274.140625 1166.019531 C 2293.449219 1064.070312 2299.21875 991.550781 2291.449219 948.480469 C 2268.53125 815.890625 2243.269531 726.589844 2215.660156 680.578125 C 2149.570312 555.691406 2028.410156 455.601562 1852.160156 380.300781 C 1775.808594 350.570312 1696.601562 338.730469 1614.519531 344.78125 C 1499.230469 356.230469 1408.089844 379.808594 1341.128906 415.511719 C 1290.929688 439.53125 1256.808594 475.789062 1238.738281 524.308594 C 1221.910156 581.71875 1225.609375 632.371094 1249.839844 676.269531 C 1280.320312 736.820312 1361.980469 798.601562 1494.820312 861.621094 C 1516.300781 872.269531 1548.191406 885.859375 1590.511719 902.378906 C 1609.910156 910.761719 1662.039062 929.550781 1746.910156 958.761719 L 1803.558594 982.539062 L 2273.78125 1165.890625 "/>
<path fill-rule="nonzero" fill="rgb(160, 217, 255)" fill-opacity="1" d="M 1892.011719 400.980469 C 1794.191406 364.859375 1720.960938 345.710938 1672.320312 343.550781 C 1651.058594 339.550781 1590.808594 339.691406 1491.589844 343.988281 C 1438.480469 345.101562 1392 348.78125 1352.148438 355.039062 C 1302.210938 361.269531 1221.179688 386.601562 1109.039062 431.03125 C 1037.289062 468.171875 979.785156 508.140625 936.542969 550.929688 C 854.578125 639.761719 805.414062 700.640625 789.050781 733.550781 C 764.945312 777.800781 757.636719 825.691406 767.128906 877.21875 C 777.648438 931.230469 806.292969 971.28125 853.054688 997.359375 C 907.390625 1029.25 967.335938 1040.5 1032.878906 1031.101562 C 1069.671875 1026.308594 1127.160156 1002.179688 1205.339844 958.699219 C 1318.691406 893.53125 1415.210938 830.101562 1494.878906 768.390625 C 1499.429688 766.289062 1536.519531 736.488281 1606.128906 678.988281 L 1891.089844 401.871094 "/>
<path fill-rule="nonzero" fill="rgb(160, 217, 255)" fill-opacity="1" d="M 1088.78125 454.191406 C 981.179688 502.539062 899.21875 569.480469 842.898438 655 C 813.90625 691.828125 779.402344 756.769531 739.394531 849.820312 C 714.75 906.480469 700.144531 958 695.578125 1004.390625 C 688.398438 1105.660156 710.691406 1204.859375 762.453125 1301.980469 C 797.941406 1366.890625 838.207031 1428.441406 883.246094 1486.601562 C 908.332031 1518.148438 940.992188 1545.039062 981.21875 1567.269531 C 1029.070312 1594.339844 1077.789062 1592.988281 1127.359375 1563.210938 C 1171.941406 1538.449219 1213.230469 1481.191406 1251.25 1391.441406 C 1269.128906 1352.199219 1289.390625 1269.308594 1312.039062 1142.769531 C 1312.570312 1147.691406 1324.53125 1051.761719 1347.921875 854.949219 L 1373.050781 603.738281 L 1089.710938 454.679688 "/>
<path fill-rule="nonzero" fill="rgb(160, 217, 255)" fill-opacity="1" d="M 967.085938 1400.128906 L 910.179688 1517.410156 C 876.925781 1497.980469 839.277344 1490 797.238281 1493.441406 C 752.164062 1501.058594 718.132812 1517.609375 695.144531 1543.101562 C 678.109375 1562.601562 669.339844 1588.109375 668.835938 1619.609375 C 667.816406 1653.128906 675.070312 1685.160156 690.59375 1715.691406 C 709.214844 1748.539062 727.011719 1771.261719 743.976562 1783.828125 C 760.117188 1797.101562 782.167969 1805.359375 810.128906 1808.609375 C 838.019531 1811.398438 872.453125 1806.101562 913.441406 1792.710938 C 936.457031 1784.121094 957.816406 1769.011719 977.527344 1747.359375 C 1005.050781 1717.941406 1018.128906 1674.109375 1016.75 1615.859375 C 1014.460938 1561.910156 1010.378906 1522.261719 1004.519531 1496.921875 C 999.679688 1474.21875 987.246094 1442.039062 967.210938 1400.378906 "/>
<path fill-rule="nonzero" fill="rgb(160, 217, 255)" fill-opacity="1" d="M 1005.589844 1493.261719 L 966.066406 1622.558594 C 968.140625 1636.289062 971.8125 1650 977.078125 1663.691406 C 985.460938 1683.898438 994.929688 1698.628906 1005.488281 1707.878906 C 1016.019531 1718.160156 1041.441406 1734.640625 1081.75 1757.320312 C 1083.390625 1758.339844 1085.058594 1760.460938 1086.789062 1763.710938 C 1088.519531 1766.828125 1089.960938 1771.828125 1091.128906 1778.710938 L 1095.710938 1834 C 1097.21875 1847.199219 1101.050781 1870.148438 1107.191406 1902.859375 C 1111.871094 1923.699219 1119.96875 1942.648438 1131.480469 1959.71875 C 1152.550781 1991.109375 1180.519531 2009.207031 1215.421875 2014.007812 C 1267.289062 2015.179688 1308.359375 1995.648438 1338.640625 1955.421875 C 1352.578125 1934.109375 1359.878906 1912.328125 1360.53125 1890.078125 C 1360.078125 1867.539062 1354.679688 1843.898438 1344.328125 1819.148438 C 1329.558594 1782.171875 1308.71875 1744.71875 1281.820312 1706.800781 C 1231.269531 1635.960938 1194.570312 1590.558594 1171.730469 1570.570312 C 1123.609375 1523.238281 1068.289062 1497.46875 1005.730469 1493.269531 "/>
<path fill-rule="nonzero" fill="rgb(160, 217, 255)" fill-opacity="1" d="M 1083.46875 1789.699219 C 1080.160156 1824.128906 1080.410156 1863.898438 1084.21875 1909.011719 C 1085.160156 1924.578125 1090.589844 1965.511719 1100.5 2031.789062 C 1105.839844 2093.722656 1109.371094 2128.746094 1111.089844 2136.855469 C 1113.378906 2155.007812 1119.78125 2189.949219 1130.308594 2241.675781 C 1132.550781 2255.207031 1134.441406 2268.804688 1136 2282.464844 C 1140.640625 2321.527344 1140.871094 2351.734375 1136.691406 2373.09375 C 1125.789062 2422.859375 1108 2450.644531 1083.289062 2456.449219 C 1077.351562 2455.691406 1071.128906 2450.332031 1064.609375 2440.375 C 1061.851562 2435.816406 1059.859375 2432.078125 1058.640625 2429.152344 L 1044.730469 2395.617188 C 1041.851562 2389.828125 1038.988281 2385.144531 1036.160156 2381.5625 C 1029.679688 2372.824219 1020.808594 2365.449219 1009.519531 2359.433594 C 976.496094 2344.640625 945.027344 2347.972656 915.121094 2369.433594 C 894.394531 2390.289062 886.820312 2416.648438 892.394531 2448.503906 C 898.988281 2482.046875 917.425781 2511.855469 947.710938 2537.9375 C 969.132812 2555.09375 998.839844 2564.125 1036.828125 2565.035156 C 1075.410156 2566.066406 1109.519531 2559.496094 1139.128906 2545.324219 C 1164.511719 2533.867188 1191.101562 2509.144531 1218.890625 2471.148438 C 1239.179688 2442.914062 1251.761719 2414.132812 1256.640625 2384.800781 C 1259.808594 2367.957031 1261.710938 2347.730469 1262.339844 2324.128906 L 1261.539062 2244.039062 C 1264.21875 2194.605469 1265.378906 2165.851562 1265.03125 2157.78125 C 1261.941406 2097.375 1260.589844 2059.625 1260.960938 2044.53125 L 1266.070312 1928.378906 L 1083.960938 1790.070312 "/>
<path fill-rule="nonzero" fill="rgb(160, 217, 255)" fill-opacity="1" d="M 1221.28125 2338.757812 C 1216.191406 2376.0625 1215.5 2409.957031 1219.230469 2440.429688 C 1224.050781 2467.242188 1233.089844 2488.425781 1246.328125 2503.984375 C 1260.628906 2521.179688 1280.171875 2530.867188 1304.941406 2533.046875 C 1326.28125 2534.742188 1347.238281 2528.476562 1367.808594 2514.25 C 1385.359375 2501.535156 1399.488281 2483 1410.210938 2458.652344 C 1419.101562 2438.183594 1424.550781 2411.589844 1426.550781 2378.875 C 1428.441406 2351.78125 1425.839844 2321.78125 1418.75 2288.875 C 1414.21875 2269.234375 1402.960938 2247.441406 1384.96875 2223.496094 L 1221.539062 2338.570312 "/>
<path fill-rule="nonzero" fill="rgb(160, 217, 255)" fill-opacity="1" d="M 1360.910156 2329.941406 C 1354.921875 2358.941406 1354.101562 2385.953125 1358.441406 2410.976562 C 1362.328125 2432.765625 1371.578125 2454.394531 1386.191406 2475.863281 C 1401.691406 2498.128906 1421.191406 2515.582031 1444.699219 2528.230469 C 1462.769531 2537.402344 1481.210938 2538.71875 1500.019531 2532.175781 C 1518.019531 2525.363281 1533.96875 2511.691406 1547.890625 2491.152344 C 1562.75 2469.171875 1572.078125 2446.863281 1575.878906 2424.226562 C 1583.679688 2376.390625 1574.058594 2322.023438 1547.019531 2261.121094 L 1361.308594 2329.792969 "/>
<path fill-rule="nonzero" fill="rgb(160, 217, 255)" fill-opacity="1" d="M 1525.941406 2247.816406 L 1545.949219 2326.808594 C 1549.589844 2372.316406 1553.789062 2405.566406 1558.570312 2426.558594 C 1561.179688 2438.984375 1565.128906 2451.382812 1570.398438 2463.757812 C 1577.488281 2479.996094 1588.589844 2494.585938 1603.691406 2507.527344 C 1618.191406 2520.035156 1635.058594 2528.210938 1654.269531 2532.0625 C 1689.671875 2539.046875 1716.441406 2523.292969 1734.570312 2484.796875 C 1742.511719 2467.519531 1746.589844 2445.738281 1746.820312 2419.449219 C 1746.839844 2399.433594 1742.269531 2378.703125 1733.128906 2357.25 C 1725.980469 2342.054688 1716.730469 2328.890625 1705.359375 2317.765625 C 1690.121094 2303.601562 1672.890625 2291.480469 1653.679688 2281.410156 C 1636.441406 2272.070312 1617.050781 2264.496094 1595.519531 2258.679688 C 1589.53125 2257.078125 1581.601562 2255.492188 1571.738281 2253.925781 C 1548.570312 2251.316406 1533.410156 2249.300781 1526.261719 2247.871094 "/>
<path fill-rule="nonzero" fill="rgb(160, 217, 255)" fill-opacity="1" d="M 1656.96875 2122.902344 L 1732.199219 2307.324219 C 1735.640625 2361.6875 1745.230469 2408.625 1760.949219 2448.132812 C 1774.429688 2482.734375 1794.289062 2513.097656 1820.550781 2539.222656 C 1863.660156 2577.933594 1916.398438 2585.289062 1978.761719 2561.289062 C 2015.339844 2544.171875 2042.328125 2524.671875 2059.71875 2502.796875 C 2077.570312 2478.097656 2082.441406 2455.710938 2074.328125 2435.640625 C 2068.511719 2420.242188 2057.671875 2409.757812 2041.800781 2404.1875 C 2036.589844 2402.339844 2030.320312 2400.886719 2023 2399.832031 C 1995.261719 2397.128906 1973.378906 2394.199219 1957.359375 2391.039062 C 1954.941406 2391.1875 1924.859375 2384.402344 1867.128906 2370.675781 C 1841.691406 2364.5 1820.058594 2354.785156 1802.21875 2341.527344 C 1788.210938 2331.195312 1776.230469 2318.121094 1766.289062 2302.300781 C 1761.339844 2294.898438 1756.328125 2286.300781 1751.238281 2276.503906 C 1721.320312 2215.707031 1704.019531 2182.1875 1699.351562 2175.949219 C 1683.570312 2151.195312 1669.601562 2133.660156 1657.429688 2123.347656 "/>
<path fill-rule="nonzero" fill="rgb(160, 217, 255)" fill-opacity="1" d="M 1935.519531 2573.78125 C 1957.648438 2584.847656 1979.769531 2587.1875 2001.878906 2580.808594 C 2014.671875 2577.371094 2028.660156 2570.683594 2043.859375 2560.753906 C 2059.828125 2549.976562 2070.53125 2540.191406 2075.96875 2531.402344 C 2086.488281 2514.746094 2088.289062 2495.65625 2081.339844 2474.125 C 2073.46875 2451.96875 2059.210938 2432.828125 2038.558594 2416.703125 L 1887.878906 2537.621094 C 1904 2553.882812 1919.808594 2565.898438 1935.300781 2573.671875 "/>
<path fill-rule="nonzero" fill="rgb(160, 217, 255)" fill-opacity="1" d="M 1725.089844 2419.808594 L 1943.808594 2413.222656 C 1911.230469 2397.964844 1892.671875 2368.808594 1888.121094 2325.746094 C 1886.570312 2314.628906 1885.820312 2301.089844 1885.851562 2285.136719 C 1887.421875 2224.421875 1887.769531 2185.3125 1886.878906 2167.808594 C 1881.878906 2097.480469 1879.441406 2052.789062 1879.558594 2033.738281 C 1879.140625 2025.339844 1879.421875 1987.621094 1880.378906 1920.589844 C 1880.351562 1906.910156 1879.929688 1894.53125 1879.121094 1883.429688 C 1878.511719 1871.75 1875.011719 1847.691406 1868.609375 1811.238281 C 1866.03125 1774.101562 1864.140625 1755.371094 1862.949219 1755.058594 C 1859.488281 1740.351562 1852.390625 1729.558594 1841.671875 1722.691406 C 1804.199219 1700.390625 1764.421875 1720.519531 1722.308594 1783.058594 C 1686.601562 1837.921875 1658.230469 1927.738281 1637.191406 2052.515625 C 1624.191406 2132.78125 1625.089844 2211.875 1639.859375 2289.796875 C 1645.441406 2314.984375 1657.230469 2342.636719 1675.230469 2372.753906 C 1684.121094 2388.046875 1700.589844 2403.625 1724.621094 2419.492188 "/>
<path fill-rule="nonzero" fill="rgb(160, 217, 255)" fill-opacity="1" d="M 1991.890625 1831.199219 C 2069.699219 1860.28125 2139.691406 1876.988281 2201.859375 1881.308594 C 2259.589844 1881.601562 2304.609375 1867.941406 2336.910156 1840.328125 C 2376.550781 1806.5 2392.179688 1756.648438 2383.808594 1690.78125 C 2371.019531 1636.230469 2338.160156 1597.359375 2285.21875 1574.148438 C 2256.949219 1562.988281 2217.109375 1557.789062 2165.679688 1558.570312 C 2110.71875 1559.988281 2059.769531 1566.558594 2012.839844 1578.28125 C 1936.128906 1598.320312 1863.011719 1639.96875 1793.488281 1703.238281 L 1767.871094 1726.621094 L 1854.308594 1740.429688 C 1912.660156 1790.460938 1958.351562 1820.648438 1991.390625 1831 "/>
<path fill-rule="nonzero" fill="rgb(160, 217, 255)" fill-opacity="1" d="M 2351.328125 1797.320312 C 2373.148438 1770.378906 2386.699219 1746.519531 2391.96875 1725.75 C 2398.128906 1703.320312 2398.148438 1677.480469 2392.011719 1648.21875 C 2373.820312 1582.808594 2338.859375 1539.761719 2287.109375 1519.101562 C 2266.421875 1510.511719 2227.859375 1509.46875 2171.449219 1515.988281 C 2148.320312 1518.371094 2128.351562 1527.140625 2111.558594 1542.269531 C 2092.378906 1559.328125 2079.921875 1580.839844 2074.191406 1606.769531 C 2067.46875 1635.851562 2068.679688 1668.769531 2077.789062 1705.539062 L 2351.21875 1797.28125 "/>
<path fill-rule="nonzero" fill="rgb(160, 217, 255)" fill-opacity="1" d="M 1201.558594 2333.136719 C 1242.28125 2409.964844 1311.019531 2445.429688 1407.769531 2439.527344 C 1497.511719 2436.914062 1578.289062 2391.007812 1650.121094 2301.804688 C 1714.03125 2214.152344 1762.070312 2087.164062 1794.25 1920.839844 C 1813.300781 1779.269531 1801.230469 1671.339844 1758.039062 1597.039062 C 1700.308594 1488.558594 1611.460938 1417.121094 1491.5 1382.730469 C 1389.929688 1362.679688 1284.449219 1393.320312 1175.058594 1474.648438 L 1153.480469 1777.71875 L 1151.691406 1815.441406 C 1149.5 1924.089844 1149.289062 2003.5 1151.070312 2053.671875 C 1152.589844 2181.367188 1169.28125 2274.222656 1201.121094 2332.246094 "/>
<path fill-rule="nonzero" fill="rgb(160, 217, 255)" fill-opacity="1" d="M 1043.140625 1390.761719 C 1061.929688 1445.5 1094.710938 1505.898438 1141.488281 1571.980469 C 1187.921875 1636.628906 1243.53125 1691.960938 1308.308594 1737.960938 C 1413.660156 1813.460938 1541.859375 1849.699219 1692.910156 1846.679688 C 1833.429688 1844.488281 1947.5 1794.738281 2035.140625 1697.421875 C 2109.269531 1602.480469 2122.019531 1492.789062 2073.378906 1368.339844 C 2035.570312 1244.378906 1954.5 1140.691406 1830.191406 1057.269531 C 1742.320312 991.128906 1642.199219 929.910156 1529.828125 873.621094 C 1464.058594 841.230469 1402.679688 825.691406 1345.691406 827.019531 C 1208.429688 832.601562 1082.679688 895.871094 968.414062 1016.828125 L 1124.53125 894.289062 C 1016 1080.578125 988.871094 1246.058594 1043.128906 1390.738281 "/>
<path fill-rule="nonzero" fill="rgb(42, 165, 247)" fill-opacity="1" d="M 2037.148438 1293.238281 C 2012.699219 1285.339844 1988.96875 1288.351562 1965.949219 1302.261719 C 1945.261719 1315.109375 1931.699219 1333.46875 1925.289062 1357.328125 C 1920.089844 1379.449219 1924.859375 1405.230469 1939.609375 1434.660156 C 1949.628906 1452.148438 1967.339844 1465.121094 1992.738281 1473.589844 C 2004.878906 1477.449219 2016.511719 1478.648438 2027.660156 1477.210938 C 2043.109375 1475.011719 2056.898438 1470.5 2069.03125 1463.660156 C 2093.859375 1449.730469 2109.109375 1430.199219 2114.789062 1405.078125 C 2118.519531 1389.089844 2119.179688 1373.460938 2116.78125 1358.199219 L 2109.71875 1354.539062 C 2099.46875 1336.640625 2088.050781 1322.949219 2075.46875 1313.480469 C 2063.699219 1304.058594 2050.949219 1297.308594 2037.21875 1293.261719 "/>
<path fill-rule="nonzero" fill="rgb(42, 165, 247)" fill-opacity="1" d="M 1452.140625 770.410156 C 1435.910156 769.78125 1417.089844 774.121094 1395.679688 783.410156 C 1379.660156 791.320312 1366.109375 801.519531 1355.03125 813.980469 C 1341.308594 828.949219 1331.480469 845.339844 1325.539062 863.140625 C 1321.128906 879.328125 1320.53125 895.179688 1323.761719 910.671875 C 1327.371094 926.058594 1334.859375 941.710938 1346.238281 957.621094 C 1355.820312 969.300781 1370.078125 982.179688 1389.019531 996.28125 C 1401.699219 1005.671875 1420.191406 1015.71875 1444.519531 1026.441406 C 1469.550781 1036.050781 1490.648438 1041.269531 1507.820312 1042.121094 C 1528.679688 1043.789062 1549 1041.28125 1568.78125 1034.589844 C 1579.691406 1032.808594 1594.179688 1024.890625 1612.25 1010.851562 C 1617.308594 1008.589844 1631.050781 991.820312 1653.480469 960.539062 C 1657.5 951.859375 1659.269531 946.410156 1658.769531 944.21875 C 1659.878906 928.359375 1659.800781 917.179688 1658.539062 910.691406 L 1663.480469 915.921875 L 1658.300781 895.058594 C 1657.929688 901.910156 1658 907.03125 1658.511719 910.410156 L 1658.191406 910.148438 C 1622.808594 865.320312 1585.921875 829.25 1547.539062 801.960938 C 1528.800781 790 1512.300781 781.738281 1498.058594 777.199219 C 1485.140625 773.171875 1469.910156 770.910156 1452.371094 770.421875 "/>
<path fill-rule="nonzero" fill="rgb(42, 165, 247)" fill-opacity="1" d="M 1414.53125 1677.039062 C 1385.121094 1682.96875 1353.71875 1694.648438 1320.339844 1712.070312 C 1309.378906 1715.839844 1295.121094 1727.53125 1277.558594 1747.140625 C 1261.058594 1769.070312 1251.890625 1790.929688 1250.03125 1812.730469 C 1247.308594 1833.238281 1252.21875 1852.128906 1264.78125 1869.398438 C 1273.191406 1883.660156 1286.339844 1893.890625 1304.230469 1900.089844 C 1320.800781 1906.308594 1336.5 1905.808594 1351.339844 1898.601562 C 1366.140625 1892.449219 1379.539062 1884.210938 1391.539062 1873.890625 C 1420.378906 1847.28125 1452.578125 1816.320312 1488.128906 1781.03125 L 1414.679688 1677.25 "/>
<path fill-rule="nonzero" fill="rgb(42, 165, 247)" fill-opacity="1" d="M 2183.988281 609.089844 C 2174.019531 597.828125 2162.660156 586.449219 2149.929688 574.960938 L 2068.640625 503.710938 C 2049.609375 504.210938 2032.21875 506.519531 2016.46875 510.660156 C 1968.308594 523.898438 1931.378906 546.039062 1905.679688 577.089844 C 1887.941406 598.390625 1873.089844 623.320312 1861.128906 651.890625 C 1854.128906 671.898438 1854.980469 685.671875 1863.671875 693.199219 C 1867.929688 697.980469 1874.011719 702.140625 1881.910156 705.671875 C 1885.328125 707.230469 1889.308594 708.820312 1893.851562 710.441406 C 1919.609375 718.339844 1938.710938 724.898438 1951.140625 730.109375 C 1966.738281 736.660156 1982.050781 744.648438 1997.070312 754.089844 C 2006.691406 760.289062 2016.5 767.671875 2026.5 776.21875 L 2086.011719 832.03125 C 2097.160156 841.890625 2106.371094 848.828125 2113.640625 852.859375 C 2129.441406 861.890625 2145.828125 864.28125 2162.789062 860.050781 C 2182.558594 854.660156 2202.589844 839.308594 2222.878906 814 C 2237.21875 797.351562 2245.628906 776.609375 2248.109375 751.769531 C 2251.558594 709.140625 2230.269531 661.679688 2184.25 609.378906 "/>
<path fill-rule="nonzero" fill="rgb(42, 165, 247)" fill-opacity="1" d="M 2237.21875 694.648438 L 2241.488281 781.328125 C 2242.21875 775.941406 2242.660156 772.148438 2242.808594 769.960938 C 2243.28125 763.710938 2243.628906 757.75 2243.839844 752.078125 C 2244.199219 741.609375 2244.128906 731.648438 2243.648438 722.210938 C 2243.539062 719.621094 2243.308594 716.761719 2242.960938 713.601562 C 2242.78125 711.691406 2242.511719 709.96875 2242.140625 708.441406 C 2241.058594 704.140625 2239.421875 699.550781 2237.21875 694.648438 "/>
<path fill-rule="nonzero" fill="rgb(42, 165, 247)" fill-opacity="1" d="M 1778.308594 347.359375 C 1748.878906 338.050781 1719.578125 332.941406 1690.421875 332.019531 C 1680.128906 331.308594 1660.839844 330.988281 1632.550781 331.070312 C 1556.691406 332.238281 1502.71875 332.71875 1470.648438 332.511719 C 1432.578125 333.148438 1402.648438 342.03125 1380.859375 359.140625 C 1368.648438 369.570312 1363 380.078125 1363.890625 390.648438 C 1367.769531 404.578125 1378.710938 426.199219 1396.691406 455.488281 C 1429.738281 517.660156 1466.109375 555.191406 1505.820312 568.109375 C 1553.820312 579.640625 1594.5 571.03125 1627.839844 542.28125 C 1634.570312 537.488281 1653.191406 519.410156 1683.691406 488.03125 C 1691.878906 479.800781 1699.660156 470.96875 1707.03125 461.558594 L 1717.421875 447.511719 C 1739.910156 412.320312 1760.378906 382.109375 1778.820312 356.878906 C 1779.808594 354.179688 1782.449219 351.929688 1786.769531 350.128906 L 1779.050781 347.589844 "/>
<path fill-rule="nonzero" fill="rgb(42, 165, 247)" fill-opacity="1" d="M 1416.519531 334.28125 C 1404.558594 330.238281 1392.191406 329.828125 1379.410156 333.050781 C 1369.679688 335.730469 1363.351562 341.390625 1360.421875 350.039062 C 1358.539062 355.859375 1357.960938 363 1358.691406 371.429688 C 1359.96875 383.230469 1361.910156 392.371094 1364.519531 398.871094 C 1368.429688 408.710938 1376.640625 415.691406 1389.171875 419.78125 C 1393.339844 421.441406 1401.191406 422.449219 1412.710938 422.820312 L 1457.839844 355.191406 C 1450.710938 350.199219 1442.769531 345.511719 1434 341.121094 C 1429.589844 338.898438 1423.820312 336.640625 1416.679688 334.339844 "/>
<path fill-rule="nonzero" fill="rgb(42, 165, 247)" fill-opacity="1" d="M 1037.449219 645.320312 C 1002.96875 656.328125 974.742188 674.25 952.789062 699.089844 C 929.28125 724.179688 915.027344 752.921875 910.027344 785.289062 C 903.921875 818.089844 910.101562 848.558594 928.554688 876.699219 C 947.855469 903.738281 969.414062 913.789062 993.234375 906.859375 C 1003.070312 903.410156 1011.179688 897.628906 1017.570312 889.519531 C 1021.160156 885.070312 1024.289062 880.371094 1026.96875 875.398438 C 1037.628906 853.019531 1044.511719 839.441406 1047.589844 834.660156 C 1053.609375 824.609375 1059.070312 816.429688 1063.980469 810.109375 C 1071.429688 800.109375 1080.261719 790.179688 1090.460938 780.308594 C 1093.101562 777.230469 1104.019531 768.460938 1123.230469 754.019531 C 1126.898438 750.941406 1130.101562 747.910156 1132.820312 744.929688 C 1139.011719 738.128906 1142.941406 730.210938 1144.601562 721.160156 C 1147.398438 700.769531 1136.320312 680.871094 1111.339844 661.441406 C 1101.351562 654.320312 1089.851562 649.410156 1076.839844 646.710938 C 1073.941406 645.660156 1063.53125 644.378906 1045.609375 642.878906 L 1037.558594 645.28125 "/>
<path fill-rule="nonzero" fill="rgb(42, 165, 247)" fill-opacity="1" d="M 754.199219 1272.828125 C 756.835938 1287.789062 765.296875 1309.78125 779.585938 1338.800781 C 794.238281 1366.460938 811.5625 1393.089844 831.546875 1418.679688 C 835.707031 1402.828125 839.140625 1392.519531 841.847656 1387.738281 C 846.894531 1378.070312 852.144531 1371.078125 857.601562 1366.75 C 861.984375 1362.941406 867.46875 1360 874.050781 1357.898438 C 876.941406 1356.988281 879.757812 1356.28125 882.507812 1355.75 C 896.957031 1353.519531 904.78125 1352.171875 905.980469 1351.710938 C 909.308594 1351.011719 913.371094 1349.621094 918.167969 1347.539062 C 926.878906 1343.5 935.023438 1336.441406 942.597656 1326.351562 C 960.492188 1299.570312 964.144531 1275.410156 953.550781 1253.871094 C 945.730469 1238.300781 931.757812 1231.109375 911.636719 1232.28125 C 902.171875 1233.359375 892.429688 1236.441406 882.410156 1241.519531 C 874.183594 1245.480469 860.75 1254.320312 842.117188 1268.050781 L 754.472656 1272.820312 "/>
<path fill-rule="nonzero" fill="rgb(42, 165, 247)" fill-opacity="1" d="M 2370.390625 1751.140625 C 2370.410156 1746.800781 2369.769531 1745.078125 2368.46875 1745.980469 C 2354.011719 1754.828125 2338.511719 1762.269531 2321.949219 1768.308594 C 2297.359375 1776.070312 2275.441406 1781.179688 2256.199219 1783.640625 C 2212.410156 1790.128906 2174.398438 1790.238281 2142.171875 1783.980469 C 2119.53125 1780.089844 2100.179688 1773.878906 2084.109375 1765.339844 C 2119.941406 1771.179688 2155.980469 1768.578125 2192.238281 1757.558594 C 2163.171875 1755.011719 2139.738281 1750.628906 2121.941406 1744.421875 C 2108.78125 1740.050781 2094.46875 1734.160156 2079 1726.78125 C 2070.410156 1722.949219 2051.269531 1712.558594 2021.589844 1695.589844 C 2014.539062 1691.898438 2008.300781 1688.960938 2002.859375 1686.78125 C 1988.03125 1680.78125 1973.628906 1678.210938 1959.660156 1679.058594 C 1942.910156 1679.96875 1927.160156 1688.640625 1912.390625 1705.050781 C 1906.351562 1708.640625 1889.308594 1736.269531 1861.269531 1787.941406 L 1940.949219 1809.039062 C 1964.710938 1824.179688 1991.53125 1835.238281 2021.398438 1842.238281 L 2045.941406 1847.351562 L 2095.070312 1855.390625 C 2136.71875 1863.761719 2160.070312 1868.121094 2165.140625 1868.480469 C 2184.859375 1871.148438 2204.46875 1871.75 2223.980469 1870.269531 C 2263.761719 1867.71875 2294.859375 1857.179688 2317.300781 1838.648438 C 2351.21875 1809.738281 2368.910156 1780.570312 2370.390625 1751.160156 "/>
<path fill-rule="nonzero" fill="rgb(42, 165, 247)" fill-opacity="1" d="M 1091.121094 1761.308594 L 1080.980469 1769.710938 C 1088.328125 1774.640625 1092.261719 1777.109375 1092.789062 1777.128906 L 1091.140625 1761.53125 M 1092.808594 1777.351562 C 1098.128906 1832.621094 1119.058594 1873.320312 1155.609375 1899.429688 C 1164.960938 1904.558594 1179.730469 1907.339844 1199.898438 1907.769531 C 1209.101562 1908.46875 1239.519531 1906.570312 1291.191406 1902.070312 L 1340.25 1900.269531 C 1382.96875 1899.390625 1415.28125 1899.890625 1437.171875 1901.761719 C 1478.5 1903.78125 1525.921875 1913.210938 1579.429688 1930.03125 C 1629.109375 1946.820312 1679 1972.230469 1729.089844 2006.261719 C 1745.820312 2018.285156 1765 2034.621094 1786.609375 2055.277344 C 1798.578125 2066.753906 1811.910156 2080.238281 1826.609375 2095.730469 L 1860.609375 2133.332031 C 1862 2134.589844 1863 2135.03125 1863.621094 2134.65625 C 1872.929688 2128.578125 1879.320312 2087.65625 1882.78125 2011.886719 C 1885.878906 1894.628906 1884.910156 1826.871094 1879.859375 1808.628906 C 1874.449219 1807.5 1865.269531 1808.609375 1852.308594 1811.941406 C 1794.460938 1831.5 1760.128906 1841.769531 1749.308594 1842.730469 C 1731.75 1846.328125 1709.820312 1847.699219 1683.519531 1846.839844 C 1640.019531 1845.011719 1604.171875 1838.28125 1575.960938 1826.640625 C 1551.261719 1817.980469 1514.328125 1795.511719 1465.160156 1759.25 C 1461.839844 1757.339844 1457.558594 1756.03125 1452.339844 1755.320312 C 1441.691406 1753.738281 1427.378906 1755.480469 1409.398438 1760.53125 C 1400.179688 1763.121094 1389.96875 1766.601562 1378.769531 1770.949219 C 1332.511719 1791.28125 1305.878906 1802.140625 1298.890625 1803.519531 C 1275.851562 1810.570312 1256.148438 1814.300781 1239.789062 1814.71875 C 1189.820312 1817.78125 1140.859375 1805.339844 1092.921875 1777.410156 "/>
<path fill-rule="nonzero" fill="rgb(42, 165, 247)" fill-opacity="1" d="M 2211.640625 1418.300781 C 2237.050781 1368.640625 2256.199219 1280.390625 2269.078125 1153.511719 C 2271.550781 1125.261719 2270.140625 1081.679688 2264.859375 1022.769531 C 2260.859375 976.621094 2254.171875 935.371094 2244.789062 899.019531 C 2220.738281 809.75 2185.710938 732.210938 2139.699219 666.410156 C 2109.039062 618.820312 2058.601562 572.941406 1988.378906 528.78125 L 2006.519531 577.539062 C 2025.058594 600.890625 2039.460938 623.640625 2049.710938 645.78125 C 2056.191406 659.570312 2064.671875 682 2075.160156 713.050781 C 2096 776.019531 2107.488281 838.550781 2109.640625 900.628906 C 2112.539062 960.410156 2107.480469 1022.539062 2094.5 1087 C 2089.269531 1113.660156 2082.390625 1141.921875 2073.859375 1171.78125 C 2071.078125 1182.859375 2058.230469 1220.449219 2035.289062 1284.578125 C 2029.789062 1301.71875 2025.558594 1319.441406 2022.578125 1337.75 C 2017.191406 1372.078125 2018.101562 1404.199219 2025.289062 1434.089844 C 2041.929688 1491.390625 2068.578125 1519.121094 2105.25 1517.308594 C 2143.988281 1510.398438 2179.460938 1477.398438 2211.640625 1418.300781 "/>
<path fill-rule="nonzero" fill="rgb(42, 165, 247)" fill-opacity="1" d="M 1885.058594 1664.609375 C 1872.648438 1644.800781 1855.148438 1638 1832.570312 1644.21875 C 1825.308594 1646.410156 1817.359375 1650.269531 1808.710938 1655.800781 L 1740.660156 1702.960938 C 1730.449219 1709.839844 1720.660156 1715.519531 1711.289062 1719.96875 C 1679.171875 1734.960938 1645.808594 1744.828125 1611.210938 1749.589844 C 1552.828125 1758.621094 1495.109375 1751.28125 1438.039062 1727.558594 C 1477.128906 1759.359375 1524.949219 1784.789062 1581.519531 1803.859375 C 1602.359375 1811.300781 1624.671875 1816.441406 1648.441406 1819.300781 C 1664.121094 1821.46875 1682.339844 1821.140625 1703.101562 1818.320312 C 1726.460938 1815.308594 1748.140625 1809.089844 1768.148438 1799.640625 C 1787.898438 1790.230469 1814.429688 1773.210938 1847.761719 1748.589844 C 1865.351562 1733.769531 1878.429688 1717.691406 1887.019531 1700.359375 C 1892.679688 1688.558594 1892.101562 1676.761719 1885.28125 1664.960938 "/>
<path fill-rule="nonzero" fill="rgb(100%, 100%, 100%)" fill-opacity="1" d="M 1765.019531 911.148438 C 1744.808594 905.378906 1725.039062 909.890625 1705.691406 924.679688 C 1681.710938 943.78125 1666.789062 965.371094 1660.929688 989.460938 C 1657.390625 1008.691406 1662.550781 1030.328125 1676.421875 1054.371094 C 1690.929688 1077.71875 1708.539062 1093.070312 1729.25 1100.410156 C 1740.789062 1104.679688 1754.839844 1105.210938 1771.390625 1102.019531 C 1786.660156 1098.230469 1799.820312 1092.039062 1810.890625 1083.460938 C 1814.578125 1080.441406 1820.960938 1074.121094 1830.03125 1064.5 L 1842.640625 1005.25 C 1830.148438 958.191406 1804.390625 926.871094 1765.339844 911.269531 "/>
<path fill-rule="nonzero" fill="rgb(100%, 100%, 100%)" fill-opacity="1" d="M 1133.890625 926.691406 C 1124.558594 926.460938 1115.691406 928.140625 1107.289062 931.71875 C 1096.429688 936.070312 1086.328125 942.839844 1076.988281 952.019531 C 1063.730469 965.171875 1056.828125 983.171875 1056.289062 1006.019531 C 1056.609375 1035.660156 1063.5 1059.398438 1076.960938 1077.230469 C 1088.53125 1093.269531 1106.480469 1102.21875 1130.808594 1104.058594 C 1152.300781 1104.660156 1168.941406 1096.089844 1180.75 1078.339844 C 1184.199219 1073.550781 1188.109375 1066.789062 1192.480469 1058.070312 C 1195.398438 1051.820312 1201.191406 1037.039062 1209.839844 1013.710938 L 1212.5 989.648438 C 1195.910156 964.46875 1182 947.871094 1170.800781 939.851562 C 1160.460938 931.769531 1148.230469 927.378906 1134.109375 926.699219 "/>
<path fill-rule="nonzero" fill="rgb(100%, 100%, 100%)" fill-opacity="1" d="M 1500.570312 382.910156 C 1432.558594 375.769531 1362.570312 383.328125 1290.609375 405.578125 C 1198.03125 433.480469 1116.878906 470.53125 1047.160156 516.71875 C 950.375 579.320312 878.890625 640.390625 832.714844 699.941406 C 806.390625 733.441406 788.472656 765.289062 778.960938 795.46875 C 773.34375 813.46875 771.324219 829.269531 772.898438 842.839844 C 773.316406 850.300781 777.738281 851.859375 786.164062 847.53125 C 796.507812 842.910156 807.09375 834.101562 817.921875 821.101562 L 885.03125 728.03125 C 911.578125 694.601562 934.300781 668.390625 953.203125 649.421875 C 981.660156 619.859375 1023.53125 587.179688 1078.800781 551.378906 C 1141.789062 510.269531 1208.878906 474.890625 1280.050781 445.21875 C 1299.761719 437.289062 1323 429.679688 1349.769531 422.410156 C 1402.960938 408.390625 1445.289062 398.429688 1476.75 392.511719 L 1499.589844 383.308594 "/>
<path fill-rule="nonzero" fill="rgb(100%, 100%, 100%)" fill-opacity="1" d="M 794.152344 1516.351562 C 740.253906 1518.460938 702.09375 1540.5 679.675781 1582.460938 C 666.453125 1607.828125 660.816406 1632.609375 662.765625 1656.78125 C 664.300781 1668.371094 667.9375 1677.78125 673.675781 1685.011719 C 680.671875 1694.339844 687.492188 1699.019531 694.136719 1699.03125 C 701.410156 1698.859375 708.742188 1694.019531 716.136719 1684.511719 C 719.121094 1680.191406 722.109375 1674.710938 725.101562 1668.058594 C 734.917969 1643.910156 740.828125 1630 742.839844 1626.328125 C 746.371094 1618.980469 750 1612.359375 753.730469 1606.46875 C 763.617188 1590.441406 774.980469 1578 787.824219 1569.128906 C 827.761719 1542.039062 866.625 1535.75 904.410156 1550.269531 C 863.519531 1528.308594 826.902344 1517 794.558594 1516.351562 "/>
<path fill-rule="nonzero" fill="rgb(100%, 100%, 100%)" fill-opacity="1" d="M 1030.078125 2357.207031 C 1024.179688 2353.296875 1016.738281 2350.453125 1007.75 2348.6875 C 996.015625 2346.441406 985.417969 2345.863281 975.960938 2346.953125 C 963.34375 2347.816406 950.375 2354.902344 937.050781 2368.21875 C 917.824219 2388.195312 905.539062 2407.492188 900.191406 2426.109375 C 894.402344 2443.878906 894.886719 2464.640625 901.644531 2488.386719 L 901.460938 2483.519531 L 907.0625 2454.257812 C 909.121094 2445.527344 911.476562 2438.570312 914.125 2433.394531 C 920.839844 2420.824219 930.082031 2411.980469 941.847656 2406.859375 C 951.804688 2402.78125 959.863281 2403.015625 966.03125 2407.566406 C 968.402344 2409.101562 970.902344 2411.703125 973.527344 2415.375 C 974.109375 2415.746094 977.640625 2421.863281 984.113281 2433.722656 C 985.425781 2435.898438 986.804688 2437.859375 988.242188 2439.601562 C 991.28125 2443.148438 994.839844 2445.433594 998.917969 2446.457031 C 1012.308594 2448.996094 1025.25 2444.359375 1037.761719 2432.542969 C 1047.148438 2423.894531 1051.21875 2411 1049.980469 2393.871094 C 1048.570312 2377.136719 1041.988281 2364.949219 1030.25 2357.316406 "/>
<path fill-rule="nonzero" fill="rgb(100%, 100%, 100%)" fill-opacity="1" d="M 1016.710938 1647.078125 C 1012.039062 1652.390625 1011.171875 1662.660156 1014.109375 1677.898438 C 1017.421875 1693.429688 1022.75 1705.558594 1030.089844 1714.28125 C 1059.199219 1747.210938 1089.699219 1769.210938 1121.601562 1780.308594 C 1136.410156 1785.179688 1155.871094 1788.910156 1179.988281 1791.480469 C 1203.03125 1793.628906 1223.449219 1793.5 1241.28125 1791.089844 C 1274.019531 1787.269531 1304.898438 1774.390625 1333.929688 1752.480469 C 1299.890625 1757.851562 1269.960938 1756.160156 1244.128906 1747.410156 C 1227.691406 1741.871094 1210.019531 1733.851562 1191.101562 1723.339844 C 1164 1708.660156 1129.5 1687.609375 1087.621094 1660.179688 C 1080.121094 1655.640625 1072.640625 1651.730469 1065.191406 1648.460938 C 1042.570312 1639.230469 1026.441406 1638.738281 1016.800781 1646.988281 M 1334.121094 1752.339844 C 1338.191406 1751.589844 1342.039062 1750.691406 1345.671875 1749.621094 L 1345.898438 1743.089844 L 1334.128906 1752.328125 "/>
<path fill-rule="nonzero" fill="rgb(100%, 58.789062%, 63.476562%)" fill-opacity="1" d="M 1496.488281 1389.171875 C 1476.878906 1388.640625 1460.210938 1392.410156 1446.5 1400.480469 C 1431.910156 1408.960938 1422.480469 1420.199219 1418.230469 1434.210938 C 1412.058594 1451.390625 1413.148438 1472.871094 1421.5 1498.671875 C 1427.78125 1516.101562 1437.628906 1524.898438 1451.039062 1525.101562 C 1464.109375 1525.558594 1480.410156 1519.28125 1499.929688 1506.25 C 1512.28125 1496.621094 1520.488281 1484.898438 1524.558594 1471.101562 C 1526.25 1465.851562 1527.410156 1461.019531 1528.019531 1456.578125 C 1528.980469 1450.390625 1529.429688 1442.410156 1529.359375 1432.671875 L 1536.039062 1395.128906 C 1517.21875 1391.238281 1504.121094 1389.25 1496.730469 1389.179688 "/>
<path fill-rule="nonzero" fill="rgb(100%, 58.789062%, 63.476562%)" fill-opacity="1" d="M 1822.789062 1326.558594 C 1818.121094 1322.589844 1812.808594 1319.730469 1806.878906 1317.988281 L 1776.738281 1318.289062 C 1771.339844 1318.109375 1764 1318.089844 1754.710938 1318.230469 C 1750.828125 1318.238281 1744.421875 1318.480469 1735.480469 1318.960938 C 1719.949219 1320.011719 1708.78125 1321.710938 1701.960938 1324.070312 C 1688.371094 1328.289062 1679.261719 1335.25 1674.640625 1344.941406 C 1671.109375 1352.800781 1673.839844 1361.351562 1682.820312 1370.621094 C 1694.011719 1380.441406 1710.339844 1386.539062 1731.78125 1388.910156 C 1750.480469 1390.371094 1770.28125 1387.851562 1791.160156 1381.339844 C 1801.410156 1378.019531 1809.980469 1374.359375 1816.839844 1370.359375 C 1821.570312 1367.679688 1825.53125 1363.75 1828.71875 1358.601562 C 1835 1347.699219 1833.019531 1337.019531 1822.800781 1326.570312 "/>
<path fill-rule="nonzero" fill="rgb(100%, 58.789062%, 63.476562%)" fill-opacity="1" d="M 1265.308594 1352.011719 C 1262.160156 1344.761719 1258.609375 1339.589844 1254.648438 1336.5 C 1224.5 1328.859375 1197.640625 1325.921875 1174.101562 1327.679688 C 1164.660156 1328.21875 1155.941406 1329.488281 1147.921875 1331.488281 C 1139 1333.710938 1132.078125 1336.410156 1127.179688 1339.601562 C 1121.761719 1344.121094 1121.078125 1351.628906 1125.140625 1362.121094 C 1130.75 1374.199219 1141.21875 1383.058594 1156.558594 1388.710938 C 1170.25 1393.730469 1189.960938 1395.550781 1215.679688 1394.160156 C 1233.890625 1392.710938 1249.980469 1387.351562 1263.960938 1378.070312 C 1269.308594 1372.289062 1269.761719 1363.609375 1265.320312 1352.039062 "/>
<path fill-rule="nonzero" fill="rgb(29.80957%, 26.268005%, 26.268005%)" fill-opacity="1" d="M 1564.148438 314.960938 C 1402.25 314 1270.300781 336.019531 1168.300781 381.039062 C 1026.5 440.769531 915.296875 518.5 834.667969 614.21875 C 750.664062 713.179688 699.664062 818.359375 681.664062 929.738281 C 671.105469 1061.511719 690.109375 1184.710938 738.675781 1299.320312 C 771.589844 1367.75 821.105469 1445.488281 887.222656 1532.539062 C 901.34375 1543.828125 911.664062 1541.800781 918.183594 1526.460938 C 918.773438 1520.808594 918.207031 1516.859375 916.480469 1514.621094 C 872.691406 1456.589844 836.792969 1404.089844 808.78125 1357.089844 C 782.097656 1311.730469 764.332031 1276.320312 755.484375 1250.871094 C 729.722656 1183.058594 715.152344 1097.871094 711.773438 995.308594 C 714.113281 851.421875 780.496094 714.011719 910.925781 583.070312 C 1127.039062 385.929688 1400.480469 312.78125 1731.269531 363.621094 C 1848.648438 385.191406 1951.898438 429.851562 2041.03125 497.570312 C 2163.46875 590.171875 2233.859375 675.199219 2252.199219 752.648438 C 2288.550781 867.121094 2295.800781 987.03125 2273.949219 1112.371094 C 2251.929688 1265.300781 2198.898438 1400.988281 2114.859375 1519.449219 C 2113.71875 1533.960938 2119.210938 1541.46875 2131.320312 1541.980469 C 2157.148438 1523.78125 2194.941406 1460.929688 2244.699219 1353.429688 C 2270.480469 1291.660156 2291.308594 1214.558594 2307.160156 1122.140625 C 2333.96875 967.398438 2320.359375 824.96875 2266.339844 694.859375 C 2226.960938 603.980469 2127.769531 509.109375 1968.789062 410.230469 C 1841.71875 344.660156 1707.011719 312.910156 1564.660156 314.960938 "/>
<path fill-rule="nonzero" fill="rgb(29.80957%, 26.268005%, 26.268005%)" fill-opacity="1" d="M 851.570312 1477.5 C 831.339844 1470.960938 809.136719 1469.691406 784.960938 1473.671875 C 760.257812 1477.589844 739.074219 1484.808594 721.40625 1495.320312 C 686.433594 1517.570312 661.578125 1552.640625 646.84375 1600.519531 C 623.378906 1692.070312 659.804688 1758.25 756.117188 1799.070312 C 813.667969 1812.921875 862.21875 1812.878906 901.777344 1798.960938 C 957.695312 1775.929688 998.632812 1744.488281 1024.589844 1704.660156 C 1026.320312 1698.191406 1024.738281 1692.429688 1019.878906 1687.371094 C 1014.699219 1682.761719 1008.699219 1681.589844 1001.871094 1683.871094 C 999.496094 1684.828125 997.5 1686.140625 995.882812 1687.820312 C 981.792969 1704.828125 969.921875 1717.371094 960.265625 1725.429688 C 948.328125 1735.351562 935.800781 1744.050781 922.679688 1751.53125 C 895.429688 1767.210938 869.179688 1775.03125 843.929688 1774.980469 C 806.445312 1775.070312 778.417969 1771.390625 759.851562 1763.949219 C 734.664062 1752.890625 713.136719 1736.679688 695.269531 1715.308594 C 680.105469 1697.21875 673.148438 1673.058594 674.394531 1642.820312 C 675.175781 1617.75 684.21875 1591 701.523438 1562.578125 C 721.992188 1530.851562 750.78125 1512.628906 787.886719 1507.929688 C 804.964844 1504.929688 820.273438 1504.980469 833.808594 1508.089844 C 847.695312 1510.890625 864.933594 1519.320312 885.519531 1533.371094 C 890.554688 1535.140625 895.382812 1534.769531 900.003906 1532.269531 C 909.894531 1524.980469 911.347656 1516.171875 904.367188 1505.839844 C 888.503906 1493.25 871.027344 1483.839844 851.9375 1477.609375 "/>
<path fill-rule="nonzero" fill="rgb(29.80957%, 26.268005%, 26.268005%)" fill-opacity="1" d="M 2409.980469 1660.75 C 2401.800781 1600.761719 2367.628906 1555.210938 2307.460938 1524.121094 C 2284.25 1511.558594 2258.660156 1504.148438 2230.660156 1501.890625 C 2210.660156 1499.929688 2176.761719 1503.460938 2128.96875 1512.480469 C 2121.179688 1513.941406 2116.390625 1518.871094 2114.621094 1527.28125 C 2114.308594 1536.21875 2117.910156 1542.269531 2125.410156 1545.429688 C 2128.058594 1546.46875 2130.878906 1546.820312 2133.878906 1546.449219 C 2166.371094 1540.28125 2192.121094 1536.75 2211.128906 1535.871094 C 2228.191406 1535.371094 2243.359375 1537.019531 2256.648438 1540.820312 C 2297.359375 1552.640625 2329.769531 1574.621094 2353.890625 1606.75 C 2374.210938 1638.359375 2381.570312 1673.960938 2376 1713.570312 C 2368.910156 1759.570312 2352.390625 1794.789062 2326.46875 1819.21875 C 2289.660156 1850.628906 2232.75 1861.449219 2155.75 1851.660156 C 2104.769531 1845.210938 2049.039062 1831.078125 1988.550781 1809.269531 C 1970.648438 1802.441406 1953.550781 1794.171875 1937.25 1784.460938 C 1923.871094 1776.878906 1903.628906 1762.929688 1876.53125 1742.601562 L 1872 1740.46875 C 1857.441406 1739.070312 1850.121094 1745.339844 1850.050781 1759.28125 C 1850.53125 1763.460938 1852.679688 1767.179688 1856.5 1770.441406 C 1884.269531 1791.460938 1906.96875 1806.921875 1924.609375 1816.820312 C 1948.308594 1830.800781 1979.160156 1843.679688 2017.160156 1855.46875 C 2117.460938 1886.050781 2197.898438 1896.011719 2258.5 1885.359375 C 2311.179688 1876.140625 2349.320312 1853.710938 2372.910156 1818.070312 C 2403.570312 1771.859375 2415.949219 1719.570312 2410.039062 1661.199219 "/>
<path fill-rule="nonzero" fill="rgb(29.80957%, 26.268005%, 26.268005%)" fill-opacity="1" d="M 1947.609375 1678.441406 C 1947.339844 1671.5 1943.960938 1666.359375 1937.441406 1663.019531 C 1930.949219 1660.371094 1924.878906 1661.261719 1919.230469 1665.691406 C 1880.730469 1731.160156 1841.238281 1776.179688 1800.761719 1800.738281 C 1764.339844 1821.378906 1726.128906 1832.78125 1686.128906 1834.929688 C 1647.410156 1835.621094 1605.621094 1826.480469 1560.738281 1807.511719 C 1541.839844 1799.25 1520.878906 1787.550781 1497.839844 1772.398438 C 1481.511719 1761.839844 1462.011719 1746.378906 1439.320312 1726.03125 C 1436.089844 1723.820312 1433.078125 1722.488281 1430.320312 1722.050781 C 1421.628906 1720.660156 1411.140625 1723 1398.839844 1729.070312 L 1338.238281 1766.238281 C 1325.308594 1773.300781 1311.890625 1779.328125 1297.980469 1784.339844 C 1273.011719 1793 1248.898438 1796.628906 1225.628906 1795.230469 C 1152.28125 1792.199219 1080.449219 1756.089844 1010.148438 1686.878906 C 1003.640625 1685.160156 998.40625 1685.839844 994.457031 1688.929688 C 989.746094 1692.261719 987.296875 1697.03125 987.113281 1703.238281 C 984.96875 1707.578125 991.535156 1716.460938 1006.808594 1729.878906 C 1024.660156 1746.980469 1044.261719 1762.410156 1065.609375 1776.191406 C 1101.261719 1798.839844 1136.289062 1814.21875 1170.691406 1822.328125 C 1216.898438 1832.121094 1256.511719 1832.25 1289.53125 1822.710938 C 1308.328125 1817.730469 1326.441406 1810.839844 1343.859375 1802.039062 C 1352.578125 1798.449219 1373.210938 1785.839844 1405.75 1764.21875 C 1413.058594 1760.058594 1418.601562 1757.570312 1422.378906 1756.75 C 1455.46875 1788.058594 1497.699219 1815.761719 1549.070312 1839.859375 C 1596.628906 1859.890625 1642.230469 1869.691406 1685.878906 1869.269531 C 1744.300781 1865.261719 1794.25 1848.460938 1835.730469 1818.890625 C 1884.289062 1780.449219 1921.578125 1733.691406 1947.609375 1678.609375 "/>
<path fill-rule="nonzero" fill="rgb(29.80957%, 26.268005%, 26.268005%)" fill-opacity="1" d="M 1080.71875 1785.890625 C 1072.25 1787.03125 1067.070312 1791.960938 1065.179688 1800.671875 C 1065.019531 1822.148438 1065.808594 1857.269531 1067.53125 1906.019531 C 1067.890625 1924.679688 1070.929688 1964.648438 1076.628906 2025.925781 L 1089.671875 2124.507812 L 1098.761719 2241.015625 L 1111.378906 2338.515625 C 1113.390625 2357.617188 1111.761719 2375.609375 1106.480469 2392.496094 C 1095.890625 2420.347656 1083.269531 2435.074219 1068.648438 2436.671875 C 1080.171875 2403.472656 1073.75 2373.464844 1049.390625 2346.65625 C 1025.039062 2324.773438 993.742188 2318.589844 955.503906 2328.105469 C 900.5625 2343.300781 870.277344 2384.527344 864.652344 2451.78125 C 867.46875 2494.984375 887.6875 2528.949219 925.3125 2553.671875 C 971.234375 2581.359375 1023.230469 2594.234375 1081.300781 2592.292969 C 1167.640625 2584.464844 1220.019531 2534.121094 1238.449219 2441.265625 C 1242.871094 2419.484375 1245.019531 2386.414062 1244.878906 2342.054688 L 1243.71875 2229.585938 L 1237.640625 2042.972656 C 1234.25 1952.640625 1231.53125 1900.730469 1229.5 1887.261719 L 1222.78125 1818.199219 C 1222.199219 1813.601562 1219.980469 1809.75 1216.121094 1806.660156 C 1201.628906 1799.980469 1192.449219 1804.230469 1188.609375 1819.398438 C 1196.191406 1885.941406 1200.949219 1957.101562 1202.890625 2032.871094 L 1209.378906 2229.46875 L 1210.550781 2347.90625 C 1210.898438 2416.257812 1202.808594 2463.695312 1186.269531 2490.222656 C 1157.210938 2543.523438 1107.070312 2565.566406 1035.878906 2556.359375 C 948.132812 2541.644531 902.5 2506.785156 898.972656 2451.792969 C 903.722656 2400.347656 926.296875 2369.996094 966.699219 2360.734375 C 995.523438 2354.664062 1016.441406 2359.660156 1029.460938 2375.722656 C 1036.269531 2384.480469 1039.808594 2395.183594 1040.070312 2407.824219 C 1040.601562 2414.621094 1036.339844 2426.542969 1027.308594 2443.585938 C 1026.390625 2446.414062 1026.269531 2449.367188 1026.941406 2452.441406 C 1029.128906 2460.445312 1037.671875 2466.304688 1052.578125 2470.023438 C 1093.71875 2475.785156 1123.140625 2451.589844 1140.820312 2397.4375 C 1145.871094 2379 1147.558594 2359.746094 1145.878906 2339.675781 L 1132.910156 2237.585938 L 1124.160156 2124.15625 C 1114.109375 2053.296875 1108.878906 2011.171875 1108.460938 1997.789062 C 1103.019531 1946.710938 1099.960938 1881.429688 1099.320312 1801.929688 C 1097.878906 1791.769531 1091.859375 1786.410156 1081.28125 1785.859375 "/>
<path fill-rule="nonzero" fill="rgb(29.80957%, 26.268005%, 26.268005%)" fill-opacity="1" d="M 1364.070312 1762.609375 C 1356.320312 1763 1350.941406 1766.808594 1347.960938 1774.019531 C 1343 1785.71875 1340.179688 1804.550781 1339.53125 1830.511719 C 1339.558594 1851.039062 1340.339844 1871.25 1341.890625 1891.148438 C 1342.578125 1902.441406 1346.339844 1932.390625 1353.160156 1981 C 1354.480469 1992.25 1355.679688 2003.578125 1356.738281 2014.996094 C 1362.78125 2090.878906 1365.679688 2134.902344 1365.429688 2147.070312 C 1365.738281 2153.847656 1365.71875 2171.941406 1365.359375 2201.347656 L 1363.441406 2268.785156 C 1363.300781 2326.148438 1362.859375 2361.632812 1362.121094 2375.226562 C 1360.46875 2413.75 1357.46875 2442.566406 1353.121094 2461.675781 C 1343.691406 2501.179688 1324.628906 2520.316406 1295.921875 2519.082031 C 1284.609375 2515.796875 1274.671875 2506.597656 1266.121094 2491.480469 C 1260.039062 2480.667969 1256.308594 2473.058594 1254.910156 2468.644531 C 1251.421875 2459.890625 1248.789062 2448.03125 1247.039062 2433.066406 C 1246.398438 2430.613281 1244.949219 2428.175781 1242.671875 2425.753906 C 1228.511719 2416.964844 1218.789062 2420.453125 1213.488281 2436.226562 C 1215.640625 2467.597656 1226.019531 2495.972656 1244.640625 2521.351562 C 1261.828125 2543.441406 1280.378906 2554.253906 1300.269531 2553.78125 C 1328.121094 2553.226562 1350.761719 2540.25 1368.191406 2514.855469 C 1381.601562 2498.050781 1390.289062 2464.289062 1394.25 2413.582031 C 1395.941406 2391.367188 1396.921875 2369.621094 1397.191406 2348.34375 C 1397.460938 2333.136719 1397.621094 2308.984375 1397.648438 2275.890625 C 1399.191406 2229.605469 1399.921875 2199.882812 1399.851562 2186.726562 C 1400.210938 2167.234375 1399.960938 2147.671875 1399.128906 2128.039062 C 1394.441406 2054.769531 1391.648438 2015.40625 1390.75 2009.953125 C 1389.269531 1994.679688 1387.851562 1981.589844 1386.480469 1970.679688 L 1378.019531 1907.359375 C 1376.558594 1895.328125 1375.519531 1882.738281 1374.878906 1869.578125 C 1373.640625 1846.140625 1373.480469 1828.820312 1374.410156 1817.628906 C 1375.058594 1809.820312 1375.679688 1804.230469 1376.261719 1800.839844 C 1376.628906 1797.5 1378.179688 1791.660156 1380.929688 1783.308594 C 1381.300781 1781.761719 1381.390625 1779.941406 1381.191406 1777.851562 C 1379.410156 1768.519531 1373.800781 1763.429688 1364.359375 1762.609375 "/>
<path fill-rule="nonzero" fill="rgb(29.80957%, 26.268005%, 26.268005%)" fill-opacity="1" d="M 1539.28125 1816.460938 C 1532.011719 1816.691406 1526.738281 1820.191406 1523.460938 1826.929688 C 1522.640625 1829.039062 1522.199219 1830.878906 1522.140625 1832.480469 L 1522.511719 1855.359375 C 1524.25 1916.511719 1526.199219 1958 1528.351562 1979.820312 C 1530.308594 2008.394531 1534.789062 2053.476562 1541.769531 2115.074219 C 1543.21875 2131.21875 1544.089844 2142.21875 1544.390625 2148.078125 C 1546.460938 2186.042969 1548.398438 2227.128906 1550.191406 2271.335938 C 1550.75 2288.476562 1550.949219 2301.835938 1550.808594 2311.410156 C 1550.429688 2363.242188 1544.160156 2410.085938 1532.011719 2451.9375 C 1514.570312 2507.457031 1484.679688 2526.914062 1442.339844 2510.308594 C 1425.191406 2501.910156 1414.460938 2490.179688 1410.148438 2475.113281 C 1408.210938 2469.28125 1406.300781 2458.617188 1404.421875 2443.117188 C 1403.269531 2433.4375 1401.96875 2411.511719 1400.519531 2377.339844 C 1400.480469 2375 1399.691406 2372.425781 1398.171875 2369.609375 C 1393.910156 2362.953125 1387.671875 2360.289062 1379.460938 2361.625 C 1371.640625 2363.964844 1367.25 2369.09375 1366.269531 2377.011719 C 1367.820312 2447.363281 1374.308594 2489.84375 1385.71875 2504.453125 C 1404.179688 2533.023438 1431.738281 2548.605469 1468.410156 2551.203125 C 1501.089844 2550.019531 1526.941406 2534.621094 1545.960938 2505.003906 C 1562.988281 2478.054688 1574.828125 2434.925781 1581.480469 2375.625 C 1583.921875 2349.9375 1585.140625 2327.46875 1585.160156 2308.210938 C 1585.609375 2296.117188 1584.46875 2262.382812 1581.738281 2207.007812 C 1580.160156 2170.371094 1578.738281 2144.488281 1577.460938 2129.359375 L 1566.019531 2018.230469 C 1564.378906 2000.859375 1562.820312 1981.449219 1561.339844 1960.019531 C 1559 1927.328125 1557.339844 1884.710938 1556.371094 1832.148438 C 1554.890625 1822.71875 1549.300781 1817.488281 1539.609375 1816.460938 "/>
<path fill-rule="nonzero" fill="rgb(29.80957%, 26.268005%, 26.268005%)" fill-opacity="1" d="M 1718.75 1875.730469 C 1708.519531 1876.699219 1702.808594 1882.21875 1701.628906 1892.28125 C 1701.859375 1905.800781 1703.191406 1926.808594 1705.640625 1955.320312 C 1708.101562 1980.03125 1712.070312 2013.238281 1717.558594 2054.949219 C 1719.820312 2075.679688 1721.339844 2091.621094 1722.109375 2102.773438 C 1723.050781 2116.039062 1723.820312 2130.28125 1724.441406 2145.503906 L 1730.398438 2292.898438 C 1731.890625 2375.34375 1727.558594 2430.605469 1717.410156 2458.683594 C 1702.789062 2506.046875 1676.910156 2523.167969 1639.808594 2510.039062 C 1622.308594 2503.835938 1608.859375 2491.046875 1599.460938 2471.679688 C 1596.148438 2464.65625 1593.550781 2456.492188 1591.671875 2447.191406 C 1589.660156 2436.59375 1588.089844 2419.371094 1586.960938 2395.527344 C 1586.660156 2392.820312 1585.589844 2390.15625 1583.730469 2387.53125 C 1578.679688 2381.496094 1572.480469 2379.40625 1565.140625 2381.265625 C 1558 2383.730469 1553.898438 2388.664062 1552.859375 2396.066406 C 1553.851562 2424.699219 1555.949219 2445.75 1559.140625 2459.21875 C 1563.460938 2476.90625 1569.878906 2491.765625 1578.410156 2503.796875 C 1596.921875 2530.890625 1624.609375 2545.976562 1661.480469 2549.046875 C 1665.390625 2549.019531 1668.660156 2548.8125 1671.289062 2548.425781 L 1683.390625 2545.984375 C 1689.039062 2544.503906 1694.949219 2542.050781 1701.128906 2538.625 C 1711.25 2533.296875 1720.910156 2524.058594 1730.121094 2510.914062 C 1747.628906 2486.273438 1758.320312 2450.203125 1762.179688 2402.703125 C 1764.910156 2364.195312 1765.820312 2329.871094 1764.898438 2299.726562 L 1758.289062 2133.992188 C 1757.558594 2118.332031 1756.71875 2104.550781 1755.761719 2092.65625 C 1755.019531 2083.292969 1753.621094 2069.078125 1751.550781 2050.015625 C 1746.160156 2009.109375 1742.269531 1976.730469 1739.890625 1952.878906 C 1737.710938 1927.78125 1736.308594 1906.808594 1735.691406 1889.988281 C 1733.730469 1881.320312 1728.128906 1876.558594 1718.871094 1875.730469 "/>
<path fill-rule="nonzero" fill="rgb(29.80957%, 26.268005%, 26.268005%)" fill-opacity="1" d="M 1713.25 1832.011719 C 1705.539062 1834.078125 1701.050781 1839.078125 1699.789062 1847.011719 C 1699.671875 1848 1699.660156 1849.109375 1699.769531 1850.351562 L 1702.738281 1876.03125 C 1702.800781 1876 1703.660156 1885.980469 1705.328125 1905.988281 C 1706.121094 1910.820312 1708.5 1914.679688 1712.488281 1917.550781 C 1716.550781 1920.308594 1721.019531 1921.199219 1725.890625 1920.25 C 1733.601562 1918.191406 1738.089844 1913.199219 1739.378906 1905.28125 C 1739.480469 1904.410156 1739.488281 1903.410156 1739.429688 1902.289062 C 1737.96875 1884.429688 1737.21875 1875.53125 1737.179688 1875.621094 C 1737.210938 1874.828125 1736.101562 1865.058594 1733.839844 1846.308594 C 1733.058594 1841.460938 1730.679688 1837.601562 1726.691406 1834.71875 C 1722.621094 1831.960938 1718.148438 1831.050781 1713.28125 1832 "/>
<path fill-rule="nonzero" fill="rgb(29.80957%, 26.268005%, 26.268005%)" fill-opacity="1" d="M 1857.46875 1761.789062 C 1854.320312 1764.640625 1852.628906 1768.808594 1852.378906 1774.308594 L 1853.128906 2022.714844 L 1858.988281 2155.359375 L 1860.609375 2277.0625 C 1861.929688 2298.597656 1864.648438 2315.886719 1868.78125 2328.929688 C 1880.050781 2365.546875 1900.519531 2391.160156 1930.171875 2405.777344 C 1939.289062 2410.308594 1948.960938 2413.117188 1959.191406 2414.203125 L 2021.320312 2409.140625 C 2031.351562 2409.367188 2040.300781 2412.027344 2048.160156 2417.125 C 2064.199219 2428.574219 2070.328125 2445.398438 2066.558594 2467.597656 C 2052.648438 2538.382812 2005.21875 2570.25 1924.269531 2563.199219 C 1884.589844 2557.644531 1845.730469 2526.050781 1807.691406 2468.421875 C 1795.660156 2449.375 1787.179688 2429.464844 1782.25 2408.695312 C 1774.929688 2379.828125 1771.039062 2349.222656 1770.589844 2316.886719 C 1769.769531 2312.179688 1767.789062 2308.558594 1764.640625 2306.019531 C 1751.210938 2298.613281 1741.871094 2302.066406 1736.628906 2316.382812 C 1736.671875 2350.960938 1740.621094 2383.878906 1748.46875 2415.140625 C 1756.148438 2449.042969 1772.691406 2482.117188 1798.101562 2514.359375 C 1826.429688 2549.949219 1854 2573.742188 1880.820312 2585.730469 C 1946.898438 2609.597656 2005.75 2600.589844 2057.359375 2558.699219 C 2078.898438 2537.054688 2092.851562 2510.644531 2099.210938 2479.476562 C 2105.230469 2454.226562 2101.949219 2431.582031 2089.378906 2411.539062 C 2077.570312 2393.644531 2061.828125 2382.304688 2042.140625 2377.527344 C 2029.859375 2373.085938 2004.160156 2373.96875 1965.039062 2380.179688 C 1957.621094 2379.757812 1950.808594 2377.902344 1944.589844 2374.605469 C 1923.609375 2364.710938 1908.839844 2344.539062 1900.289062 2314.089844 C 1897.25 2301.886719 1895.390625 2287.851562 1894.730469 2271.992188 C 1894.390625 2201.625 1893.910156 2162.152344 1893.28125 2153.570312 L 1887.519531 2025.625 L 1886.648438 1772.628906 C 1881.300781 1756.628906 1871.660156 1752.929688 1857.730469 1761.53125 "/>
<path fill-rule="nonzero" fill="rgb(29.80957%, 26.268005%, 26.268005%)" fill-opacity="1" d="M 1349.140625 328.371094 C 1336.210938 329.929688 1330.578125 337.199219 1332.238281 350.191406 C 1368.949219 453.140625 1393.261719 510.460938 1405.148438 522.121094 C 1432.890625 560.96875 1471.269531 581.378906 1520.289062 583.339844 C 1569.808594 584.320312 1617.589844 565.109375 1663.648438 525.691406 C 1674.988281 516.019531 1687.339844 502.25 1700.710938 484.371094 L 1770.851562 380.28125 C 1774.628906 373.558594 1774.539062 367.191406 1770.589844 361.179688 C 1762.019531 352.03125 1753.160156 351.328125 1744.03125 359.089844 C 1725.550781 384.859375 1704.890625 415.570312 1682.039062 451.210938 C 1676.929688 458.769531 1672.878906 464.429688 1669.898438 468.191406 C 1657.480469 485.089844 1642.589844 499.890625 1625.230469 512.570312 C 1589.488281 538.78125 1553.03125 550.828125 1515.859375 548.738281 C 1483.550781 546.089844 1457.730469 533.058594 1438.398438 509.679688 C 1428.238281 495.53125 1419.539062 480.070312 1412.289062 463.269531 C 1399.878906 434.800781 1383.828125 393.019531 1364.148438 337.941406 C 1361.359375 332.328125 1356.488281 329.140625 1349.539062 328.390625 "/>
<path fill-rule="nonzero" fill="rgb(29.80957%, 26.268005%, 26.268005%)" fill-opacity="1" d="M 2066.109375 480.769531 C 2043.128906 482.871094 2016.089844 490.199219 1984.988281 502.761719 C 1963.859375 511.851562 1943.578125 524.539062 1924.160156 540.851562 C 1903.589844 558.53125 1884.070312 581.039062 1865.621094 608.371094 C 1854.089844 625.488281 1843.320312 644.28125 1833.320312 664.75 C 1830.828125 669.660156 1829.988281 674.78125 1830.789062 680.078125 C 1832.300781 688.449219 1837.140625 694.601562 1845.308594 698.53125 L 1966.058594 744.640625 C 1991.128906 755.671875 2007.890625 764.390625 2016.328125 770.789062 C 2028.589844 779 2041.339844 790.191406 2054.578125 804.328125 L 2066.320312 817.820312 C 2093.101562 853.011719 2106.21875 869.539062 2105.660156 867.421875 C 2111.851562 873.488281 2118.78125 877.589844 2126.449219 879.738281 C 2155.289062 886.300781 2185.101562 875.558594 2215.878906 847.519531 C 2235.519531 829.179688 2251.929688 805.410156 2265.128906 776.191406 C 2268.351562 767.730469 2266.75 760.75 2260.320312 755.25 C 2252.988281 749.941406 2245.449219 750.328125 2237.710938 756.421875 C 2221.160156 791.121094 2202.339844 816.230469 2181.25 831.738281 C 2165.960938 843.308594 2151.429688 848.460938 2137.679688 847.179688 C 2134.640625 847.070312 2131.238281 844.851562 2127.46875 840.511719 C 2098.160156 801.851562 2080.179688 779.839844 2073.539062 774.46875 C 2059.230469 760.078125 2045.75 748.828125 2033.089844 740.71875 C 2023.339844 733.730469 2005.800781 724.640625 1980.46875 713.460938 L 1868.660156 670.871094 C 1892.390625 624.28125 1920.738281 587.679688 1953.691406 561.070312 C 1968.460938 549.769531 1982.960938 541.039062 1997.199219 534.871094 C 2014.289062 527.28125 2037.648438 520.179688 2067.28125 513.53125 C 2069.25 512.949219 2071.359375 511.640625 2073.628906 509.589844 C 2082.261719 497.601562 2079.878906 488.03125 2066.480469 480.871094 "/>
<path fill-rule="nonzero" fill="rgb(29.80957%, 26.268005%, 26.268005%)" fill-opacity="1" d="M 1017.058594 626.75 C 1004.050781 630.140625 991.605469 637.949219 979.722656 650.160156 C 974.304688 657.621094 974.621094 665.191406 980.671875 672.859375 C 985.613281 677.570312 991.257812 679.121094 997.605469 677.53125 C 999.722656 676.890625 1001.429688 676.101562 1002.699219 675.171875 C 1008.808594 669.25 1014.339844 665.011719 1019.300781 662.460938 C 1022.558594 660.558594 1028.101562 659.058594 1035.921875 657.960938 C 1049.558594 656.808594 1061.21875 658.558594 1070.910156 663.210938 C 1082.660156 668.570312 1094.101562 678.96875 1105.230469 694.421875 C 1114.75 709.179688 1118.921875 721.910156 1117.730469 732.628906 C 1117.269531 737.570312 1116.171875 741.46875 1114.421875 744.328125 C 1096.140625 751.820312 1080.25 763.371094 1066.738281 778.949219 C 1061.640625 784.78125 1056.421875 791.398438 1051.070312 798.800781 L 1021.988281 841.871094 C 1017 848.679688 1011.789062 854.789062 1006.351562 860.210938 C 994.902344 871.359375 984.128906 876.761719 974.03125 876.441406 C 962.609375 873.019531 951.285156 861.730469 940.054688 842.589844 C 931.621094 828.019531 928.074219 811.75 929.414062 793.808594 C 931.0625 776.738281 935.671875 761.609375 943.25 748.429688 C 947.863281 740.691406 952.75 734.578125 957.90625 730.070312 L 966.785156 722.441406 C 969.757812 720.179688 975.046875 716.601562 982.65625 711.710938 C 984.171875 710.550781 985.3125 709.449219 986.070312 708.410156 C 989.78125 703.179688 990.667969 697.738281 988.738281 692.121094 C 984.175781 682.210938 976.527344 678.859375 965.796875 682.050781 C 946.984375 692.691406 931.765625 705.71875 920.140625 721.140625 C 907.824219 737.96875 899.867188 758.089844 896.265625 781.5 C 892.96875 802.160156 894.921875 822.378906 902.125 842.148438 C 912.238281 866.878906 925.894531 885.761719 943.09375 898.78125 C 957.695312 910.351562 973.675781 913.648438 991.027344 908.679688 C 1004.460938 904.898438 1016.839844 897.640625 1028.160156 886.871094 C 1035.28125 880.03125 1041.828125 872.609375 1047.828125 864.621094 C 1051.429688 860.339844 1061.878906 844.960938 1079.179688 818.5 C 1084.75 810.820312 1090.03125 804.269531 1095.039062 798.820312 C 1100.050781 793.460938 1105.179688 788.949219 1110.460938 785.320312 C 1115.789062 781.738281 1122.910156 777.949219 1131.839844 773.96875 C 1134.921875 772.089844 1137.480469 770.019531 1139.539062 767.75 C 1146.25 760.460938 1150.378906 749.820312 1151.910156 735.839844 C 1153.199219 702.53125 1137.691406 672.078125 1105.390625 644.46875 C 1079.730469 624.660156 1050.28125 618.75 1017.058594 626.75 "/>
<path fill-rule="nonzero" fill="rgb(29.80957%, 26.268005%, 26.268005%)" fill-opacity="1" d="M 889.929688 1216.640625 C 881.964844 1219.210938 875.292969 1222.121094 869.90625 1225.371094 C 867.011719 1226.53125 853.078125 1235.621094 828.101562 1252.640625 C 822 1256.5 815.816406 1259.621094 809.542969 1262.03125 C 801.789062 1265.101562 793.144531 1266.570312 783.609375 1266.449219 C 776.460938 1266.5 767.710938 1264.660156 757.367188 1260.910156 C 755.722656 1260.558594 753.773438 1260.539062 751.511719 1260.859375 C 744.457031 1262.25 739.835938 1266.480469 737.648438 1273.539062 C 736.144531 1282.609375 739.15625 1289.171875 746.6875 1293.210938 C 762.074219 1299.449219 777.867188 1301.859375 794.070312 1300.441406 C 806.089844 1299.648438 818.871094 1296 832.40625 1289.488281 L 848.933594 1280.109375 L 883.082031 1257.410156 C 889.203125 1253.648438 894.464844 1251.121094 898.875 1249.808594 C 912.035156 1246.28125 921.179688 1248.75 926.304688 1257.210938 C 930.757812 1264.851562 932.671875 1273.628906 932.042969 1283.558594 C 930.210938 1300.941406 927.054688 1312.378906 922.570312 1317.890625 C 919.335938 1321.28125 914.417969 1324.019531 907.824219 1326.121094 C 904.976562 1327.019531 901.957031 1327.839844 898.757812 1328.558594 C 878.273438 1332.699219 867.363281 1335.058594 866.03125 1335.621094 C 857.253906 1338.03125 850.460938 1340.441406 845.660156 1342.871094 C 833.078125 1348.878906 823.8125 1357.558594 817.859375 1368.929688 C 810.632812 1383.488281 809.347656 1400.039062 814.003906 1418.578125 C 817.851562 1428.441406 824.964844 1432.371094 835.34375 1430.371094 C 840.773438 1428.710938 844.566406 1425.101562 846.726562 1419.550781 C 847.394531 1417.628906 847.710938 1415.660156 847.683594 1413.648438 C 845.648438 1404.519531 845.097656 1397.28125 846.027344 1391.910156 C 846.601562 1387.210938 848.792969 1382.929688 852.59375 1379.078125 C 856.65625 1375.578125 861.429688 1372.960938 866.914062 1371.210938 C 871.273438 1369.769531 875.03125 1368.679688 878.183594 1367.941406 C 901.308594 1363.25 913.640625 1360.53125 915.183594 1359.761719 C 923.195312 1357.429688 929.886719 1354.589844 935.257812 1351.238281 C 949.039062 1343.550781 958.023438 1330.199219 962.214844 1311.199219 C 970.355469 1280.679688 967.082031 1255.160156 952.402344 1234.640625 C 937.511719 1216.058594 916.757812 1210.039062 890.136719 1216.578125 "/>
<path fill-rule="nonzero" fill="rgb(29.80957%, 26.268005%, 26.268005%)" fill-opacity="1" d="M 2089.941406 1335.140625 C 2101.699219 1354.539062 2105.148438 1375.511719 2100.308594 1398.039062 C 2094.628906 1420.519531 2082.230469 1437.820312 2063.109375 1449.941406 C 2043.578125 1461.769531 2022.53125 1465.21875 1999.980469 1460.300781 C 1977.589844 1454.640625 1960.308594 1442.191406 1948.128906 1422.941406 C 1936.421875 1403.511719 1933.011719 1382.539062 1937.898438 1360.019531 C 1943.628906 1337.550781 1956.058594 1320.28125 1975.199219 1308.210938 C 1994.921875 1296.460938 2015.808594 1293.011719 2037.878906 1297.871094 C 2060.289062 1303.441406 2077.609375 1315.820312 2089.859375 1335.019531 M 2119.109375 1317.039062 C 2101.609375 1289.761719 2077.238281 1272.25 2045.988281 1264.5 C 2014.699219 1257.519531 1985.070312 1262.359375 1957.109375 1279.03125 C 1929.988281 1296.25 1912.449219 1320.609375 1904.5 1352.101562 C 1897.460938 1383.230469 1902.269531 1412.859375 1918.929688 1440.980469 C 1936.371094 1468.308594 1960.710938 1485.871094 1991.941406 1493.679688 C 2023.21875 1500.730469 2052.851562 1495.941406 2080.851562 1479.339844 C 2108 1462.179688 2125.589844 1437.859375 2133.609375 1406.390625 C 2140.71875 1375.28125 2135.96875 1345.640625 2119.378906 1317.480469 "/>
<path fill-rule="nonzero" fill="rgb(29.80957%, 26.268005%, 26.268005%)" fill-opacity="1" d="M 1494.699219 1398.589844 L 1494.78125 1398.589844 C 1503.699219 1398.859375 1510.378906 1405.320312 1514.800781 1417.949219 C 1516.71875 1424.121094 1517.851562 1432.550781 1518.179688 1443.230469 C 1518.710938 1450.5 1516.980469 1458.96875 1512.980469 1468.628906 L 1515.46875 1464.890625 L 1509.828125 1475.328125 C 1510.5 1474.078125 1511.539062 1471.859375 1512.949219 1468.679688 C 1505.320312 1480.738281 1497.871094 1489.789062 1490.609375 1495.820312 C 1480.78125 1503.019531 1471.71875 1506.820312 1463.441406 1507.230469 C 1463.070312 1507.25 1462.699219 1507.261719 1462.328125 1507.261719 C 1457.039062 1507.261719 1451.101562 1505.71875 1444.488281 1502.648438 C 1438.019531 1499.570312 1432.941406 1495.640625 1429.289062 1490.859375 C 1425.519531 1486.28125 1422.839844 1480.351562 1421.238281 1473.058594 C 1419.878906 1465.980469 1419.980469 1459.800781 1421.550781 1454.519531 C 1423.539062 1447.308594 1428.058594 1441.898438 1435.101562 1438.289062 C 1437.160156 1437.359375 1439.320312 1436.890625 1441.589844 1436.890625 C 1442.058594 1436.890625 1442.539062 1436.910156 1443.019531 1436.949219 C 1445.441406 1437.011719 1449.011719 1438.070312 1453.71875 1440.121094 C 1453.878906 1440.171875 1454.03125 1440.191406 1454.191406 1440.191406 C 1454.621094 1440.191406 1455.039062 1440.019531 1455.449219 1439.679688 C 1456.710938 1438.660156 1458.210938 1436.671875 1459.96875 1433.699219 C 1460.421875 1433.070312 1463.03125 1428.011719 1467.78125 1418.539062 C 1468.710938 1416.800781 1469.660156 1415.128906 1470.621094 1413.539062 C 1471.929688 1411.328125 1473.539062 1409.210938 1475.441406 1407.160156 C 1480.320312 1402.050781 1486.738281 1399.191406 1494.699219 1398.589844 Z M 1392.609375 1262.898438 C 1386.519531 1284.101562 1383.519531 1304.441406 1383.570312 1323.929688 C 1384.03125 1351 1387.578125 1388.320312 1394.230469 1435.898438 C 1400.890625 1482.960938 1415.691406 1512.121094 1438.609375 1523.371094 C 1445.589844 1526.960938 1452.851562 1528.761719 1460.390625 1528.761719 C 1466.339844 1528.761719 1472.460938 1527.640625 1478.769531 1525.410156 C 1492.621094 1520.351562 1504.351562 1510.640625 1513.960938 1496.28125 C 1519.921875 1487.761719 1524.570312 1475.371094 1527.910156 1459.109375 C 1531.179688 1441.390625 1533.179688 1419.199219 1533.898438 1392.539062 C 1534.769531 1359.179688 1534.410156 1331.308594 1532.820312 1308.941406 C 1532.480469 1302.519531 1530.570312 1288.730469 1527.078125 1267.589844 L 1527.070312 1267.589844 C 1514.128906 1280.53125 1499.050781 1289.078125 1481.820312 1293.230469 C 1474.789062 1294.851562 1467.949219 1295.660156 1461.320312 1295.660156 C 1456.941406 1295.660156 1452.640625 1295.308594 1448.441406 1294.601562 C 1434.980469 1292.449219 1423.480469 1288.511719 1413.941406 1282.769531 C 1406.140625 1277.898438 1399.03125 1271.269531 1392.609375 1262.898438 Z M 1392.609375 1262.898438 "/>
<path fill-rule="nonzero" fill="rgb(100%, 100%, 100%)" fill-opacity="1" d="M 1500.570312 1403.328125 C 1500.429688 1402.980469 1499.410156 1402.558594 1497.5 1402.058594 C 1496.410156 1401.820312 1495.21875 1401.769531 1493.929688 1401.898438 C 1491.351562 1402.179688 1488.539062 1403.199219 1485.5 1404.960938 C 1483.398438 1406.140625 1481.269531 1407.980469 1479.109375 1410.460938 C 1476.808594 1413.199219 1474.75 1416.441406 1472.929688 1420.191406 L 1479.929688 1414.808594 C 1480.910156 1414.28125 1481.621094 1413.910156 1482.070312 1413.710938 C 1483.03125 1413.269531 1484.101562 1412.890625 1485.28125 1412.578125 C 1485.21875 1412.550781 1487.550781 1412 1492.269531 1410.929688 C 1493.011719 1410.75 1493.691406 1410.558594 1494.320312 1410.359375 C 1495.859375 1409.890625 1497.171875 1409.339844 1498.238281 1408.679688 C 1500.878906 1406.898438 1501.671875 1405.121094 1500.589844 1403.351562 "/>
<path fill-rule="nonzero" fill="rgb(29.80957%, 26.268005%, 26.268005%)" fill-opacity="1" d="M 1155.488281 932.960938 C 1156.558594 932.960938 1157.628906 932.980469 1158.699219 933.019531 L 1158.980469 933.03125 C 1182.070312 934.460938 1201.460938 943.589844 1217.160156 960.429688 C 1232.558594 977.929688 1239.828125 998.101562 1238.96875 1020.949219 C 1237.601562 1043.949219 1228.519531 1063.328125 1211.738281 1079.089844 C 1195.410156 1093.769531 1176.171875 1101.109375 1154.019531 1101.109375 C 1153.128906 1101.109375 1152.230469 1101.089844 1151.328125 1101.070312 C 1136.480469 1100.21875 1123.140625 1096.179688 1111.320312 1088.941406 C 1110.441406 1089.191406 1109.570312 1089.320312 1108.710938 1089.320312 C 1108.539062 1089.320312 1108.359375 1089.308594 1108.191406 1089.300781 C 1103.519531 1089.121094 1100.050781 1087.359375 1097.761719 1084 C 1096.429688 1081.890625 1095.660156 1079.371094 1095.46875 1076.449219 C 1094.640625 1075.628906 1093.820312 1074.789062 1093.011719 1073.929688 C 1077.53125 1056.488281 1070.160156 1036.351562 1070.929688 1013.488281 C 1070.960938 1012.769531 1071.019531 1012.039062 1071.070312 1011.320312 C 1070.441406 1010.148438 1069.820312 1008.910156 1069.230469 1007.621094 C 1064.71875 996.871094 1064.578125 985.488281 1068.800781 973.46875 C 1073.53125 961.460938 1081.421875 951.378906 1092.480469 943.210938 C 1100.769531 936.871094 1112.039062 933.621094 1126.300781 933.460938 L 1126.421875 933.460938 C 1129.761719 933.460938 1133 933.699219 1136.140625 934.179688 L 1136.941406 934.890625 C 1142.898438 933.609375 1149.078125 932.960938 1155.488281 932.960938 Z M 1155.929688 898.671875 C 1125.230469 898.671875 1098.339844 908.921875 1075.269531 929.429688 C 1051.761719 951.179688 1038.898438 978.378906 1036.679688 1011.050781 C 1035.398438 1043.441406 1045.550781 1071.910156 1067.109375 1096.480469 C 1089.179688 1120.261719 1116.429688 1133.210938 1148.859375 1135.320312 C 1150.609375 1135.378906 1152.339844 1135.410156 1154.070312 1135.410156 C 1184.558594 1135.410156 1211.308594 1125.25 1234.339844 1104.929688 C 1258.191406 1082.839844 1271.160156 1055.519531 1273.238281 1022.960938 C 1274.5 990.570312 1264.328125 962.101562 1242.75 937.550781 C 1220.660156 913.769531 1193.410156 900.851562 1160.980469 898.761719 L 1160.628906 898.75 C 1159.050781 898.691406 1157.480469 898.671875 1155.929688 898.671875 Z M 1155.929688 898.671875 "/>
<path fill-rule="nonzero" fill="rgb(29.80957%, 26.268005%, 26.268005%)" fill-opacity="1" d="M 1155.488281 932.960938 C 1149.078125 932.960938 1142.898438 933.609375 1136.941406 934.890625 L 1138.328125 936.121094 C 1141.789062 937.160156 1146.289062 939.5 1151.820312 943.140625 C 1157.511719 948.019531 1159.390625 953.761719 1157.441406 960.371094 C 1156.390625 963.179688 1154.429688 965.429688 1151.539062 967.109375 C 1150.21875 967.820312 1148.820312 968.429688 1147.351562 968.921875 C 1138.800781 971.328125 1133.46875 973.058594 1131.378906 974.089844 C 1127.21875 975.988281 1124.078125 978.070312 1121.980469 980.328125 C 1119.230469 983.140625 1117.179688 986.148438 1115.828125 989.351562 C 1114.839844 991.550781 1114 993.679688 1113.308594 995.738281 C 1110.351562 1005.421875 1108.699219 1010.570312 1108.359375 1011.171875 C 1107.160156 1014.320312 1105.941406 1016.859375 1104.691406 1018.808594 C 1100.660156 1025.011719 1096.148438 1028.128906 1091.179688 1028.179688 C 1083.070312 1026.769531 1076.371094 1021.148438 1071.070312 1011.320312 C 1071.019531 1012.039062 1070.960938 1012.769531 1070.929688 1013.488281 C 1070.160156 1036.351562 1077.53125 1056.488281 1093.011719 1073.929688 C 1093.820312 1074.789062 1094.640625 1075.628906 1095.46875 1076.449219 C 1095.351562 1074.578125 1095.460938 1072.539062 1095.808594 1070.328125 C 1096.828125 1065.390625 1099.179688 1061.398438 1102.828125 1058.371094 C 1104 1057.359375 1105.53125 1056.628906 1107.429688 1056.191406 C 1108.589844 1055.859375 1110.890625 1055.699219 1114.339844 1055.699219 C 1114.378906 1055.699219 1114.421875 1055.699219 1114.460938 1055.699219 L 1114.578125 1055.699219 L 1116.5 1055.769531 L 1120.070312 1061.128906 C 1120.800781 1062.050781 1121.351562 1062.78125 1121.710938 1063.320312 C 1122.058594 1063.839844 1122.390625 1064.378906 1122.679688 1064.941406 C 1124.378906 1068.351562 1124.910156 1071.339844 1124.261719 1073.898438 C 1123.519531 1077.488281 1121.230469 1081.269531 1117.390625 1085.25 C 1115.339844 1087.140625 1113.320312 1088.371094 1111.320312 1088.941406 C 1123.140625 1096.179688 1136.480469 1100.21875 1151.328125 1101.070312 C 1152.230469 1101.089844 1153.128906 1101.109375 1154.019531 1101.109375 C 1176.171875 1101.109375 1195.410156 1093.769531 1211.738281 1079.089844 C 1228.519531 1063.328125 1237.601562 1043.949219 1238.96875 1020.949219 C 1239.828125 998.101562 1232.558594 977.929688 1217.160156 960.429688 C 1201.460938 943.589844 1182.070312 934.460938 1158.980469 933.03125 L 1158.699219 933.019531 C 1157.628906 932.980469 1156.558594 932.960938 1155.488281 932.960938 Z M 1155.488281 932.960938 "/>
<path fill-rule="nonzero" fill="rgb(29.80957%, 26.268005%, 26.268005%)" fill-opacity="1" d="M 1155.488281 932.960938 C 1156.558594 932.960938 1157.628906 932.980469 1158.699219 933.019531 L 1158.980469 933.03125 C 1182.070312 934.460938 1201.460938 943.589844 1217.160156 960.429688 C 1232.558594 977.929688 1239.828125 998.101562 1238.96875 1020.949219 C 1237.601562 1043.949219 1228.519531 1063.328125 1211.738281 1079.089844 C 1195.410156 1093.769531 1176.171875 1101.109375 1154.019531 1101.109375 C 1153.128906 1101.109375 1152.230469 1101.089844 1151.328125 1101.070312 C 1136.480469 1100.21875 1123.140625 1096.179688 1111.320312 1088.941406 C 1110.441406 1089.191406 1109.570312 1089.320312 1108.710938 1089.320312 C 1108.539062 1089.320312 1108.359375 1089.308594 1108.191406 1089.300781 C 1103.519531 1089.121094 1100.050781 1087.359375 1097.761719 1084 C 1096.429688 1081.890625 1095.660156 1079.371094 1095.46875 1076.449219 C 1094.640625 1075.628906 1093.820312 1074.789062 1093.011719 1073.929688 C 1077.53125 1056.488281 1070.160156 1036.351562 1070.929688 1013.488281 C 1070.960938 1012.769531 1071.019531 1012.039062 1071.070312 1011.320312 C 1070.441406 1010.148438 1069.820312 1008.910156 1069.230469 1007.621094 C 1064.71875 996.871094 1064.578125 985.488281 1068.800781 973.46875 C 1073.53125 961.460938 1081.421875 951.378906 1092.480469 943.210938 C 1100.769531 936.871094 1112.039062 933.621094 1126.300781 933.460938 L 1126.421875 933.460938 C 1129.761719 933.460938 1133 933.699219 1136.140625 934.179688 L 1136.941406 934.890625 C 1142.898438 933.609375 1149.078125 932.960938 1155.488281 932.960938 Z M 1155.929688 898.671875 C 1125.230469 898.671875 1098.339844 908.921875 1075.269531 929.429688 C 1051.761719 951.179688 1038.898438 978.378906 1036.679688 1011.050781 C 1035.398438 1043.441406 1045.550781 1071.910156 1067.109375 1096.480469 C 1089.179688 1120.261719 1116.429688 1133.210938 1148.859375 1135.320312 C 1150.609375 1135.378906 1152.339844 1135.410156 1154.070312 1135.410156 C 1184.558594 1135.410156 1211.308594 1125.25 1234.339844 1104.929688 C 1258.191406 1082.839844 1271.160156 1055.519531 1273.238281 1022.960938 C 1274.5 990.570312 1264.328125 962.101562 1242.75 937.550781 C 1220.660156 913.769531 1193.410156 900.851562 1160.980469 898.761719 L 1160.628906 898.75 C 1159.050781 898.691406 1157.480469 898.671875 1155.929688 898.671875 Z M 1155.929688 898.671875 "/>
<path fill-rule="nonzero" fill="rgb(29.80957%, 26.268005%, 26.268005%)" fill-opacity="1" d="M 1155.488281 932.960938 C 1149.078125 932.960938 1142.898438 933.609375 1136.941406 934.890625 L 1138.328125 936.121094 C 1141.789062 937.160156 1146.289062 939.5 1151.820312 943.140625 C 1157.511719 948.019531 1159.390625 953.761719 1157.441406 960.371094 C 1156.390625 963.179688 1154.429688 965.429688 1151.539062 967.109375 C 1150.21875 967.820312 1148.820312 968.429688 1147.351562 968.921875 C 1138.800781 971.328125 1133.46875 973.058594 1131.378906 974.089844 C 1127.21875 975.988281 1124.078125 978.070312 1121.980469 980.328125 C 1119.230469 983.140625 1117.179688 986.148438 1115.828125 989.351562 C 1114.839844 991.550781 1114 993.679688 1113.308594 995.738281 C 1110.351562 1005.421875 1108.699219 1010.570312 1108.359375 1011.171875 C 1107.160156 1014.320312 1105.941406 1016.859375 1104.691406 1018.808594 C 1100.660156 1025.011719 1096.148438 1028.128906 1091.179688 1028.179688 C 1083.070312 1026.769531 1076.371094 1021.148438 1071.070312 1011.320312 C 1071.019531 1012.039062 1070.960938 1012.769531 1070.929688 1013.488281 C 1070.160156 1036.351562 1077.53125 1056.488281 1093.011719 1073.929688 C 1093.820312 1074.789062 1094.640625 1075.628906 1095.46875 1076.449219 C 1095.351562 1074.578125 1095.460938 1072.539062 1095.808594 1070.328125 C 1096.828125 1065.390625 1099.179688 1061.398438 1102.828125 1058.371094 C 1104 1057.359375 1105.53125 1056.628906 1107.429688 1056.191406 C 1108.589844 1055.859375 1110.890625 1055.699219 1114.339844 1055.699219 C 1114.378906 1055.699219 1114.421875 1055.699219 1114.460938 1055.699219 L 1114.578125 1055.699219 L 1116.5 1055.769531 L 1120.070312 1061.128906 C 1120.800781 1062.050781 1121.351562 1062.78125 1121.710938 1063.320312 C 1122.058594 1063.839844 1122.390625 1064.378906 1122.679688 1064.941406 C 1124.378906 1068.351562 1124.910156 1071.339844 1124.261719 1073.898438 C 1123.519531 1077.488281 1121.230469 1081.269531 1117.390625 1085.25 C 1115.339844 1087.140625 1113.320312 1088.371094 1111.320312 1088.941406 C 1123.140625 1096.179688 1136.480469 1100.21875 1151.328125 1101.070312 C 1152.230469 1101.089844 1153.128906 1101.109375 1154.019531 1101.109375 C 1176.171875 1101.109375 1195.410156 1093.769531 1211.738281 1079.089844 C 1228.519531 1063.328125 1237.601562 1043.949219 1238.96875 1020.949219 C 1239.828125 998.101562 1232.558594 977.929688 1217.160156 960.429688 C 1201.460938 943.589844 1182.070312 934.460938 1158.980469 933.03125 L 1158.699219 933.019531 C 1157.628906 932.980469 1156.558594 932.960938 1155.488281 932.960938 Z M 1155.488281 932.960938 "/>
<path fill-rule="nonzero" fill="rgb(29.80957%, 26.268005%, 26.268005%)" fill-opacity="1" d="M 1779.539062 922.160156 C 1780.609375 922.160156 1781.679688 922.179688 1782.75 922.21875 L 1783.039062 922.230469 C 1806.121094 923.660156 1825.511719 932.789062 1841.210938 949.628906 C 1856.609375 967.121094 1863.878906 987.300781 1863.019531 1010.148438 C 1861.648438 1033.148438 1852.570312 1052.53125 1835.789062 1068.289062 C 1819.460938 1082.96875 1800.21875 1090.308594 1778.070312 1090.308594 C 1777.179688 1090.308594 1776.289062 1090.289062 1775.378906 1090.269531 C 1760.53125 1089.421875 1747.191406 1085.378906 1735.371094 1078.140625 L 1735.359375 1078.140625 C 1734.488281 1078.390625 1733.628906 1078.519531 1732.761719 1078.519531 C 1732.589844 1078.519531 1732.410156 1078.511719 1732.238281 1078.5 C 1727.570312 1078.320312 1724.101562 1076.558594 1721.808594 1073.199219 C 1720.46875 1071.089844 1719.710938 1068.570312 1719.519531 1065.648438 C 1718.691406 1064.828125 1717.871094 1063.988281 1717.058594 1063.128906 C 1701.578125 1045.691406 1694.21875 1025.550781 1694.980469 1002.691406 C 1695.019531 1001.960938 1695.070312 1001.238281 1695.121094 1000.519531 C 1694.480469 999.351562 1693.871094 998.109375 1693.28125 996.820312 C 1688.769531 986.070312 1688.628906 974.691406 1692.851562 962.671875 C 1697.578125 950.660156 1705.46875 940.578125 1716.53125 932.410156 C 1724.808594 926.070312 1736.089844 922.820312 1750.351562 922.660156 L 1750.46875 922.660156 C 1753.808594 922.660156 1757.050781 922.898438 1760.191406 923.371094 L 1760.988281 924.089844 C 1766.949219 922.808594 1773.128906 922.160156 1779.539062 922.160156 Z M 1779.980469 887.871094 C 1749.28125 887.871094 1722.390625 898.121094 1699.320312 918.621094 C 1675.808594 940.371094 1662.949219 967.578125 1660.730469 1000.25 C 1659.449219 1032.640625 1669.601562 1061.109375 1691.160156 1085.679688 C 1713.230469 1109.460938 1740.480469 1122.410156 1772.910156 1124.519531 C 1774.660156 1124.578125 1776.390625 1124.609375 1778.121094 1124.609375 C 1808.609375 1124.609375 1835.359375 1114.449219 1858.390625 1094.128906 C 1882.25 1072.039062 1895.21875 1044.710938 1897.289062 1012.160156 C 1898.550781 979.769531 1888.378906 951.300781 1866.800781 926.75 C 1844.71875 902.96875 1817.460938 890.050781 1785.019531 887.960938 L 1784.679688 887.941406 C 1783.101562 887.890625 1781.539062 887.871094 1779.980469 887.871094 Z M 1779.980469 887.871094 "/>
<path fill-rule="nonzero" fill="rgb(29.80957%, 26.268005%, 26.268005%)" fill-opacity="1" d="M 1779.539062 922.160156 C 1773.128906 922.160156 1766.949219 922.808594 1760.988281 924.089844 L 1762.378906 925.320312 C 1765.839844 926.359375 1770.339844 928.699219 1775.871094 932.339844 C 1781.558594 937.210938 1783.441406 942.960938 1781.488281 949.570312 C 1780.441406 952.378906 1778.46875 954.628906 1775.589844 956.308594 C 1774.269531 957.019531 1772.871094 957.621094 1771.398438 958.121094 C 1762.839844 960.53125 1757.519531 962.261719 1755.429688 963.289062 C 1751.269531 965.191406 1748.128906 967.269531 1746.03125 969.53125 C 1743.28125 972.339844 1741.230469 975.351562 1739.878906 978.550781 C 1738.890625 980.75 1738.050781 982.878906 1737.359375 984.941406 C 1734.398438 994.621094 1732.75 999.769531 1732.410156 1000.371094 C 1731.210938 1003.519531 1729.988281 1006.058594 1728.738281 1008 C 1724.710938 1014.210938 1720.199219 1017.328125 1715.230469 1017.371094 C 1707.121094 1015.96875 1700.421875 1010.351562 1695.121094 1000.519531 C 1695.070312 1001.238281 1695.019531 1001.960938 1694.980469 1002.691406 C 1694.21875 1025.550781 1701.578125 1045.691406 1717.058594 1063.128906 C 1717.871094 1063.988281 1718.691406 1064.828125 1719.519531 1065.648438 C 1719.390625 1063.78125 1719.511719 1061.738281 1719.859375 1059.53125 C 1720.878906 1054.589844 1723.21875 1050.601562 1726.878906 1047.570312 C 1728.050781 1046.558594 1729.578125 1045.828125 1731.480469 1045.390625 C 1732.640625 1045.058594 1734.941406 1044.898438 1738.390625 1044.898438 C 1738.429688 1044.898438 1738.46875 1044.898438 1738.511719 1044.898438 L 1738.628906 1044.898438 L 1740.550781 1044.960938 L 1744.121094 1050.328125 C 1744.851562 1051.25 1745.398438 1051.980469 1745.761719 1052.519531 C 1746.109375 1053.039062 1746.441406 1053.578125 1746.730469 1054.140625 C 1748.429688 1057.550781 1748.960938 1060.539062 1748.308594 1063.101562 C 1747.570312 1066.691406 1745.289062 1070.46875 1741.441406 1074.449219 C 1739.390625 1076.339844 1737.371094 1077.570312 1735.359375 1078.140625 L 1735.371094 1078.140625 C 1747.191406 1085.378906 1760.53125 1089.421875 1775.378906 1090.269531 C 1776.289062 1090.289062 1777.179688 1090.308594 1778.070312 1090.308594 C 1800.21875 1090.308594 1819.460938 1082.96875 1835.789062 1068.289062 C 1852.570312 1052.53125 1861.648438 1033.148438 1863.019531 1010.148438 C 1863.878906 987.300781 1856.609375 967.121094 1841.210938 949.628906 C 1825.511719 932.789062 1806.121094 923.660156 1783.039062 922.230469 L 1782.75 922.21875 C 1781.679688 922.179688 1780.609375 922.160156 1779.539062 922.160156 Z M 1779.539062 922.160156 "/>
<path fill-rule="nonzero" fill="rgb(29.80957%, 26.268005%, 26.268005%)" fill-opacity="1" d="M 1779.539062 922.160156 C 1780.609375 922.160156 1781.679688 922.179688 1782.75 922.21875 L 1783.039062 922.230469 C 1806.121094 923.660156 1825.511719 932.789062 1841.210938 949.628906 C 1856.609375 967.121094 1863.878906 987.300781 1863.019531 1010.148438 C 1861.648438 1033.148438 1852.570312 1052.53125 1835.789062 1068.289062 C 1819.460938 1082.96875 1800.21875 1090.308594 1778.070312 1090.308594 C 1777.179688 1090.308594 1776.289062 1090.289062 1775.378906 1090.269531 C 1760.53125 1089.421875 1747.191406 1085.378906 1735.371094 1078.140625 L 1735.359375 1078.140625 C 1734.488281 1078.390625 1733.628906 1078.519531 1732.761719 1078.519531 C 1732.589844 1078.519531 1732.410156 1078.511719 1732.238281 1078.5 C 1727.570312 1078.320312 1724.101562 1076.558594 1721.808594 1073.199219 C 1720.46875 1071.089844 1719.710938 1068.570312 1719.519531 1065.648438 C 1718.691406 1064.828125 1717.871094 1063.988281 1717.058594 1063.128906 C 1701.578125 1045.691406 1694.21875 1025.550781 1694.980469 1002.691406 C 1695.019531 1001.960938 1695.070312 1001.238281 1695.121094 1000.519531 C 1694.480469 999.351562 1693.871094 998.109375 1693.28125 996.820312 C 1688.769531 986.070312 1688.628906 974.691406 1692.851562 962.671875 C 1697.578125 950.660156 1705.46875 940.578125 1716.53125 932.410156 C 1724.808594 926.070312 1736.089844 922.820312 1750.351562 922.660156 L 1750.46875 922.660156 C 1753.808594 922.660156 1757.050781 922.898438 1760.191406 923.371094 L 1760.988281 924.089844 C 1766.949219 922.808594 1773.128906 922.160156 1779.539062 922.160156 Z M 1779.980469 887.871094 C 1749.28125 887.871094 1722.390625 898.121094 1699.320312 918.621094 C 1675.808594 940.371094 1662.949219 967.578125 1660.730469 1000.25 C 1659.449219 1032.640625 1669.601562 1061.109375 1691.160156 1085.679688 C 1713.230469 1109.460938 1740.480469 1122.410156 1772.910156 1124.519531 C 1774.660156 1124.578125 1776.390625 1124.609375 1778.121094 1124.609375 C 1808.609375 1124.609375 1835.359375 1114.449219 1858.390625 1094.128906 C 1882.25 1072.039062 1895.21875 1044.710938 1897.289062 1012.160156 C 1898.550781 979.769531 1888.378906 951.300781 1866.800781 926.75 C 1844.71875 902.96875 1817.460938 890.050781 1785.019531 887.960938 L 1784.679688 887.941406 C 1783.101562 887.890625 1781.539062 887.871094 1779.980469 887.871094 Z M 1779.980469 887.871094 "/>
<path fill-rule="nonzero" fill="rgb(29.80957%, 26.268005%, 26.268005%)" fill-opacity="1" d="M 1779.539062 922.160156 C 1773.128906 922.160156 1766.949219 922.808594 1760.988281 924.089844 L 1762.378906 925.320312 C 1765.839844 926.359375 1770.339844 928.699219 1775.871094 932.339844 C 1781.558594 937.210938 1783.441406 942.960938 1781.488281 949.570312 C 1780.441406 952.378906 1778.46875 954.628906 1775.589844 956.308594 C 1774.269531 957.019531 1772.871094 957.621094 1771.398438 958.121094 C 1762.839844 960.53125 1757.519531 962.261719 1755.429688 963.289062 C 1751.269531 965.191406 1748.128906 967.269531 1746.03125 969.53125 C 1743.28125 972.339844 1741.230469 975.351562 1739.878906 978.550781 C 1738.890625 980.75 1738.050781 982.878906 1737.359375 984.941406 C 1734.398438 994.621094 1732.75 999.769531 1732.410156 1000.371094 C 1731.210938 1003.519531 1729.988281 1006.058594 1728.738281 1008 C 1724.710938 1014.210938 1720.199219 1017.328125 1715.230469 1017.371094 C 1707.121094 1015.96875 1700.421875 1010.351562 1695.121094 1000.519531 C 1695.070312 1001.238281 1695.019531 1001.960938 1694.980469 1002.691406 C 1694.21875 1025.550781 1701.578125 1045.691406 1717.058594 1063.128906 C 1717.871094 1063.988281 1718.691406 1064.828125 1719.519531 1065.648438 C 1719.390625 1063.78125 1719.511719 1061.738281 1719.859375 1059.53125 C 1720.878906 1054.589844 1723.21875 1050.601562 1726.878906 1047.570312 C 1728.050781 1046.558594 1729.578125 1045.828125 1731.480469 1045.390625 C 1732.640625 1045.058594 1734.941406 1044.898438 1738.390625 1044.898438 C 1738.429688 1044.898438 1738.46875 1044.898438 1738.511719 1044.898438 L 1738.628906 1044.898438 L 1740.550781 1044.960938 L 1744.121094 1050.328125 C 1744.851562 1051.25 1745.398438 1051.980469 1745.761719 1052.519531 C 1746.109375 1053.039062 1746.441406 1053.578125 1746.730469 1054.140625 C 1748.429688 1057.550781 1748.960938 1060.539062 1748.308594 1063.101562 C 1747.570312 1066.691406 1745.289062 1070.46875 1741.441406 1074.449219 C 1739.390625 1076.339844 1737.371094 1077.570312 1735.359375 1078.140625 L 1735.371094 1078.140625 C 1747.191406 1085.378906 1760.53125 1089.421875 1775.378906 1090.269531 C 1776.289062 1090.289062 1777.179688 1090.308594 1778.070312 1090.308594 C 1800.21875 1090.308594 1819.460938 1082.96875 1835.789062 1068.289062 C 1852.570312 1052.53125 1861.648438 1033.148438 1863.019531 1010.148438 C 1863.878906 987.300781 1856.609375 967.121094 1841.210938 949.628906 C 1825.511719 932.789062 1806.121094 923.660156 1783.039062 922.230469 L 1782.75 922.21875 C 1781.679688 922.179688 1780.609375 922.160156 1779.539062 922.160156 Z M 1779.539062 922.160156 "/>
</svg>
