<?xml version="1.0" encoding="UTF-8"?>
<svg xmlns="http://www.w3.org/2000/svg" xmlns:xlink="http://www.w3.org/1999/xlink" width="2640" height="2640" viewBox="0 0 2640 2640">
<path fill-rule="nonzero" fill="rgb(0%, 0%, 0%)" fill-opacity="1" d="M 1955.679688 1492.410156 C 1964.53125 1506.800781 1965.671875 1522.21875 1960.910156 1537.480469 C 1957.398438 1548.761719 1950.570312 1559.71875 1941.28125 1569.820312 C 1932.558594 1579.289062 1921.628906 1588.089844 1909.308594 1595.660156 C 1901.449219 1600.488281 1892.949219 1604.871094 1884.011719 1608.648438 C 1855.359375 1641.867188 1824.28125 1671.929688 1791.238281 1698.820312 C 1653.488281 1810.972656 1482.269531 1867.386719 1311.988281 1867.164062 C 1141.570312 1866.941406 972.015625 1810.015625 837.761719 1695.496094 C 806.925781 1669.191406 777.929688 1639.820312 751.199219 1607.359375 C 746.019531 1604.941406 741 1602.320312 736.183594 1599.511719 C 723.046875 1591.859375 711.296875 1582.851562 701.851562 1573.109375 C 691.777344 1562.730469 684.1875 1551.421875 680.046875 1539.859375 C 674.367188 1524 674.886719 1507.859375 683.644531 1492.820312 C 746.191406 1385.378906 830.019531 1302.390625 925.707031 1243.578125 C 1041.671875 1172.320312 1175.121094 1136.589844 1309.269531 1135.941406 C 1443.289062 1135.289062 1577.980469 1169.710938 1696.550781 1238.738281 C 1798.320312 1297.980469 1888.230469 1382.640625 1955.679688 1492.410156 Z M 1309.199219 1832.90625 L 1309.199219 1686.894531 C 1307.390625 1686.898438 1305.570312 1686.902344 1303.761719 1686.902344 C 1259.730469 1686.902344 1215.730469 1684.835938 1171.820312 1680.59375 C 1175.140625 1708.445312 1179.359375 1735.289062 1184.488281 1761.117188 C 1188.808594 1782.898438 1193.761719 1803.867188 1199.328125 1824.015625 C 1235.640625 1829.757812 1272.390625 1832.71875 1309.199219 1832.90625 Z M 1326.390625 1686.722656 L 1326.390625 1832.792969 C 1363.300781 1832.117188 1400.199219 1828.652344 1436.710938 1822.421875 C 1442.558594 1801.089844 1447.710938 1778.859375 1452.160156 1755.742188 C 1456.96875 1730.789062 1460.941406 1704.863281 1464.089844 1677.976562 C 1418.191406 1683.03125 1372.269531 1685.988281 1326.390625 1686.722656 Z M 1684.671875 1731.550781 C 1689.890625 1716.566406 1694.648438 1701.21875 1698.921875 1685.507812 C 1703.75 1667.738281 1707.960938 1649.570312 1711.539062 1631 C 1677.890625 1640.003906 1644.160156 1647.984375 1610.378906 1654.894531 C 1606.671875 1680.859375 1601.828125 1705.921875 1595.890625 1730.074219 C 1591.480469 1747.976562 1586.460938 1765.398438 1580.828125 1782.335938 C 1616.53125 1768.3125 1651.28125 1751.378906 1684.671875 1731.550781 Z M 1729.941406 1625.980469 C 1725.941406 1647.972656 1721.128906 1669.320312 1715.5 1690.007812 C 1712.988281 1699.257812 1710.308594 1708.394531 1707.460938 1717.414062 C 1728.851562 1703.589844 1749.609375 1688.527344 1769.621094 1672.230469 C 1788.269531 1657.046875 1806.289062 1640.777344 1823.578125 1623.429688 C 1807.441406 1624.480469 1791.269531 1623.101562 1775.988281 1618.648438 L 1775.910156 1618.628906 C 1775.230469 1618.429688 1774.550781 1618.230469 1773.871094 1618.019531 C 1771.21875 1617.191406 1768.570312 1616.371094 1765.910156 1615.558594 C 1753.929688 1619.160156 1741.941406 1622.628906 1729.941406 1625.980469 Z M 1559.988281 1790.15625 C 1567.371094 1769.539062 1573.78125 1748.144531 1579.238281 1725.980469 C 1584.601562 1704.195312 1589.03125 1681.679688 1592.53125 1658.445312 C 1555.589844 1665.589844 1518.601562 1671.445312 1481.578125 1675.949219 C 1478.308594 1704.765625 1474.121094 1732.441406 1469.019531 1758.96875 C 1465.039062 1779.621094 1460.5 1799.632812 1455.390625 1818.992188 C 1490.800781 1812.003906 1525.789062 1802.390625 1559.988281 1790.15625 Z M 929.359375 1721.179688 C 926.144531 1711.1875 923.132812 1701.039062 920.320312 1690.742188 C 914.640625 1669.933594 909.804688 1648.644531 905.816406 1626.890625 C 894.523438 1623.359375 883.246094 1619.671875 871.984375 1615.808594 C 870.101562 1616.46875 868.214844 1617.140625 866.335938 1617.808594 C 865.703125 1618.039062 865.074219 1618.261719 864.441406 1618.46875 L 864.304688 1618.519531 C 847.824219 1624.050781 830.113281 1625.628906 812.414062 1624.148438 L 811.953125 1624.121094 C 827.363281 1640.144531 843.421875 1655.253906 860.054688 1669.441406 C 882.203125 1688.335938 905.359375 1705.578125 929.359375 1721.179688 Z M 924.347656 1632.53125 C 927.929688 1650.957031 932.09375 1668.863281 936.839844 1686.242188 C 941.421875 1703.015625 946.5625 1719.40625 952.265625 1735.421875 C 985.496094 1755.167969 1020.171875 1771.90625 1055.871094 1785.640625 C 1050.109375 1768.644531 1044.988281 1751.195312 1040.488281 1733.289062 C 1034.449219 1709.210938 1029.511719 1684.183594 1025.691406 1658.214844 C 991.808594 1651.058594 958.019531 1642.511719 924.347656 1632.53125 Z M 1043.578125 1661.863281 C 1047.171875 1684.976562 1051.691406 1707.398438 1057.140625 1729.128906 C 1062.71875 1751.339844 1069.25 1772.726562 1076.71875 1793.28125 C 1110.660156 1805.109375 1145.429688 1814.285156 1180.691406 1820.8125 C 1175.828125 1802.570312 1171.480469 1783.765625 1167.628906 1764.40625 C 1162.21875 1737.136719 1157.789062 1708.59375 1154.339844 1678.792969 C 1117.339844 1674.730469 1080.410156 1669.109375 1043.578125 1661.863281 Z M 1326.390625 1170.308594 L 1326.390625 1508.570312 C 1372.398438 1509.308594 1418.429688 1512.269531 1464.441406 1517.339844 C 1456.160156 1444.910156 1441.949219 1379.710938 1421.808594 1321.75 C 1401.871094 1264.371094 1376.109375 1214.070312 1344.570312 1170.871094 C 1338.511719 1170.609375 1332.449219 1170.421875 1326.390625 1170.308594 Z M 1694.378906 1277.410156 C 1730.101562 1317.171875 1760.550781 1357.890625 1785.738281 1399.570312 C 1821.070312 1458.050781 1846.089844 1518.488281 1860.800781 1580.890625 C 1862.988281 1580.121094 1865.160156 1579.300781 1867.308594 1578.441406 L 1868.078125 1578.128906 C 1876.289062 1574.78125 1884.109375 1570.808594 1891.308594 1566.390625 C 1901.089844 1560.378906 1909.539062 1553.640625 1916.03125 1546.578125 C 1921.949219 1540.148438 1926.179688 1533.570312 1928.140625 1527.28125 C 1929.96875 1521.410156 1929.609375 1515.628906 1926.410156 1510.410156 C 1865.351562 1411.050781 1785.140625 1333.308594 1694.378906 1277.410156 Z M 1844.320312 1585.699219 C 1830.058594 1524.789062 1805.628906 1465.699219 1771.03125 1408.429688 C 1737.878906 1353.570312 1695.449219 1300.429688 1643.75 1249.03125 C 1609.929688 1231.828125 1574.941406 1217.441406 1539.191406 1205.859375 C 1582.308594 1246.050781 1618.648438 1291.128906 1648.199219 1341.121094 C 1687.960938 1408.398438 1715.398438 1484.5 1730.5 1569.429688 C 1748.089844 1574.339844 1765.660156 1579.519531 1783.199219 1584.980469 L 1783.261719 1584.988281 L 1783.308594 1585.011719 L 1783.359375 1585.03125 L 1783.421875 1585.039062 L 1783.46875 1585.058594 L 1783.519531 1585.070312 L 1783.570312 1585.089844 L 1783.621094 1585.101562 L 1783.660156 1585.121094 L 1783.710938 1585.128906 L 1783.761719 1585.148438 L 1783.800781 1585.160156 L 1783.851562 1585.179688 L 1783.890625 1585.191406 L 1783.941406 1585.199219 L 1783.988281 1585.21875 L 1784.03125 1585.230469 L 1784.078125 1585.25 C 1784.578125 1585.398438 1785.078125 1585.550781 1785.589844 1585.699219 L 1785.691406 1585.730469 L 1785.789062 1585.761719 C 1786.230469 1585.890625 1786.671875 1586.011719 1787.121094 1586.128906 L 1787.460938 1586.21875 L 1788.550781 1586.5 L 1789.25 1586.679688 L 1789.828125 1586.820312 C 1800.320312 1589.300781 1811.519531 1589.921875 1822.859375 1589.050781 C 1830.03125 1588.5 1837.230469 1587.351562 1844.320312 1585.699219 Z M 1712.128906 1564.410156 C 1697.121094 1484.75 1670.878906 1413.230469 1633.421875 1349.851562 C 1598.691406 1291.089844 1554.28125 1239.28125 1500.210938 1194.429688 C 1480.03125 1189.109375 1459.671875 1184.671875 1439.179688 1181.101562 C 1532.878906 1272.03125 1590.101562 1391.820312 1610.800781 1540.460938 C 1644.640625 1547.390625 1678.429688 1555.390625 1712.128906 1564.410156 Z M 1592.980469 1536.910156 C 1570.769531 1385.558594 1509.421875 1265.421875 1408.941406 1176.480469 C 1394.820312 1174.621094 1380.648438 1173.171875 1366.460938 1172.128906 C 1395.371094 1214.101562 1419.210938 1262.089844 1437.988281 1316.109375 C 1458.929688 1376.371094 1473.570312 1444.128906 1481.921875 1519.371094 C 1518.980469 1523.890625 1556.011719 1529.75 1592.980469 1536.910156 Z M 1309.199219 1508.398438 L 1309.199219 1170.191406 C 1303.230469 1170.21875 1297.261719 1170.320312 1291.289062 1170.5 C 1259.621094 1213.789062 1233.78125 1264.210938 1213.789062 1321.75 C 1193.890625 1379.011719 1179.78125 1443.339844 1171.460938 1514.71875 C 1215.46875 1510.460938 1259.578125 1508.390625 1303.738281 1508.390625 C 1305.558594 1508.390625 1307.378906 1508.398438 1309.199219 1508.398438 Z M 998.230469 1242.730469 C 943.625 1296.089844 899.066406 1351.320312 864.5625 1408.429688 C 829.972656 1465.691406 805.546875 1524.761719 791.285156 1585.640625 C 799.191406 1587.769531 807.238281 1589.238281 815.234375 1589.910156 C 827.496094 1590.929688 839.574219 1590.058594 850.679688 1586.789062 L 851.578125 1586.519531 L 851.953125 1586.398438 C 852.402344 1586.261719 852.851562 1586.109375 853.296875 1585.96875 L 853.3125 1585.960938 C 853.808594 1585.789062 854.296875 1585.621094 854.785156 1585.449219 L 854.929688 1585.398438 L 855.0625 1585.351562 L 855.414062 1585.21875 L 855.515625 1585.191406 L 855.902344 1585.050781 L 855.960938 1585.03125 L 856.015625 1585.011719 L 856.0625 1585 L 856.105469 1584.980469 C 872.453125 1579.148438 888.835938 1573.671875 905.25 1568.53125 C 920.390625 1483.960938 947.773438 1408.160156 987.394531 1341.121094 C 1017.898438 1289.519531 1055.628906 1243.140625 1100.601562 1201.980469 C 1065.578125 1212.800781 1031.328125 1226.371094 998.230469 1242.730469 Z M 774.945312 1580.230469 C 789.679688 1518.070312 814.648438 1457.839844 849.855469 1399.570312 C 876.476562 1355.511719 908.984375 1312.53125 947.382812 1270.621094 C 946.152344 1271.359375 944.925781 1272.109375 943.703125 1272.859375 C 852.601562 1328.839844 772.820312 1407.820312 713.328125 1510.011719 C 710.128906 1515.5 710.089844 1521.820312 712.410156 1528.308594 C 714.890625 1535.230469 719.777344 1542.351562 726.429688 1549.210938 C 733.703125 1556.710938 742.921875 1563.75 753.375 1569.828125 C 757.367188 1572.160156 761.523438 1574.328125 765.800781 1576.339844 L 768.820312 1577.679688 C 770.839844 1578.570312 772.882812 1579.421875 774.945312 1580.230469 Z M 1139.238281 1191.25 C 1083.410156 1236.828125 1037.71875 1289.699219 1002.171875 1349.851562 C 964.945312 1412.820312 938.808594 1483.839844 923.75 1562.890625 C 957.46875 1552.878906 991.3125 1544.308594 1025.25 1537.140625 C 1046.488281 1389.019531 1104.179688 1269.730469 1198.320312 1179.25 C 1178.480469 1182.421875 1158.761719 1186.421875 1139.238281 1191.25 Z M 1228.191406 1175.121094 C 1127.558594 1263.53125 1065.871094 1382.980469 1043.121094 1533.488281 C 1079.980469 1526.230469 1116.941406 1520.601562 1153.988281 1516.519531 C 1162.390625 1442.410156 1176.929688 1375.609375 1197.601562 1316.109375 C 1216.480469 1261.808594 1240.46875 1213.589844 1269.589844 1171.46875 C 1255.761719 1172.289062 1241.949219 1173.511719 1228.191406 1175.121094 Z M 1703.621094 1597.671875 C 1571.011719 1562.148438 1437.160156 1542.769531 1303.738281 1542.769531 C 1177.421875 1542.769531 1051.5 1560.148438 927.40625 1597.660156 C 1051.429688 1635.148438 1177.371094 1652.523438 1303.761719 1652.523438 C 1437.25 1652.523438 1571.089844 1633.160156 1703.621094 1597.671875 "/>
<path fill-rule="evenodd" fill="rgb(77.734375%, 45.092773%, 45.092773%)" fill-opacity="1" d="M 1303.738281 1542.769531 C 1177.421875 1542.769531 1051.5 1560.148438 927.40625 1597.660156 C 1051.429688 1635.148438 1177.371094 1652.523438 1303.761719 1652.523438 C 1437.25 1652.523438 1571.089844 1633.160156 1703.621094 1597.671875 C 1571.011719 1562.148438 1437.160156 1542.769531 1303.738281 1542.769531 "/>
<path fill-rule="evenodd" fill="rgb(100%, 95.3125%, 90.234375%)" fill-opacity="1" d="M 1765.910156 1615.558594 C 1753.929688 1619.160156 1741.941406 1622.628906 1729.941406 1625.980469 C 1725.941406 1647.972656 1721.128906 1669.320312 1715.5 1690.007812 C 1712.988281 1699.257812 1710.308594 1708.394531 1707.460938 1717.414062 C 1728.851562 1703.589844 1749.609375 1688.527344 1769.621094 1672.230469 C 1788.269531 1657.046875 1806.289062 1640.777344 1823.578125 1623.429688 C 1807.441406 1624.480469 1791.269531 1623.101562 1775.988281 1618.648438 L 1775.910156 1618.628906 L 1773.871094 1618.019531 Z M 1785.738281 1399.570312 C 1821.070312 1458.050781 1846.089844 1518.488281 1860.800781 1580.890625 C 1862.988281 1580.121094 1865.160156 1579.300781 1867.308594 1578.441406 L 1868.078125 1578.128906 C 1876.289062 1574.78125 1884.109375 1570.808594 1891.308594 1566.390625 C 1901.089844 1560.378906 1909.539062 1553.640625 1916.03125 1546.578125 C 1921.949219 1540.148438 1926.179688 1533.570312 1928.140625 1527.28125 C 1929.96875 1521.410156 1929.609375 1515.628906 1926.410156 1510.410156 C 1865.351562 1411.050781 1785.140625 1333.308594 1694.378906 1277.410156 C 1730.101562 1317.171875 1760.550781 1357.890625 1785.738281 1399.570312 Z M 1648.199219 1341.121094 C 1687.960938 1408.398438 1715.398438 1484.5 1730.5 1569.429688 C 1748.089844 1574.339844 1765.660156 1579.519531 1783.199219 1584.980469 L 1783.261719 1584.988281 L 1783.308594 1585.011719 L 1783.359375 1585.03125 L 1783.421875 1585.039062 L 1783.46875 1585.058594 L 1783.519531 1585.070312 L 1783.570312 1585.089844 L 1783.621094 1585.101562 L 1783.660156 1585.121094 L 1783.710938 1585.128906 L 1783.761719 1585.148438 L 1783.800781 1585.160156 L 1783.851562 1585.179688 L 1783.890625 1585.191406 L 1783.941406 1585.199219 L 1783.988281 1585.21875 L 1784.03125 1585.230469 L 1784.078125 1585.25 L 1785.589844 1585.699219 L 1785.691406 1585.730469 L 1785.789062 1585.761719 L 1787.121094 1586.128906 L 1787.460938 1586.21875 L 1788.550781 1586.5 L 1789.25 1586.679688 L 1789.828125 1586.820312 C 1800.320312 1589.300781 1811.519531 1589.921875 1822.859375 1589.050781 C 1830.03125 1588.5 1837.230469 1587.351562 1844.320312 1585.699219 C 1830.058594 1524.789062 1805.628906 1465.699219 1771.03125 1408.429688 C 1737.878906 1353.570312 1695.449219 1300.429688 1643.75 1249.03125 C 1609.929688 1231.828125 1574.941406 1217.441406 1539.191406 1205.859375 C 1582.308594 1246.050781 1618.648438 1291.128906 1648.199219 1341.121094 Z M 1439.179688 1181.101562 C 1532.878906 1272.03125 1590.101562 1391.820312 1610.800781 1540.460938 C 1644.640625 1547.390625 1678.429688 1555.390625 1712.128906 1564.410156 C 1697.121094 1484.75 1670.878906 1413.230469 1633.421875 1349.851562 C 1598.691406 1291.089844 1554.28125 1239.28125 1500.210938 1194.429688 C 1480.03125 1189.109375 1459.671875 1184.671875 1439.179688 1181.101562 Z M 1437.988281 1316.109375 C 1458.929688 1376.371094 1473.570312 1444.128906 1481.921875 1519.371094 C 1518.980469 1523.890625 1556.011719 1529.75 1592.980469 1536.910156 C 1570.769531 1385.558594 1509.421875 1265.421875 1408.941406 1176.480469 C 1394.820312 1174.621094 1380.648438 1173.171875 1366.460938 1172.128906 C 1395.371094 1214.101562 1419.210938 1262.089844 1437.988281 1316.109375 Z M 1326.390625 1170.308594 L 1326.390625 1508.570312 C 1372.398438 1509.308594 1418.429688 1512.269531 1464.441406 1517.339844 C 1456.160156 1444.910156 1441.949219 1379.710938 1421.808594 1321.75 C 1401.871094 1264.371094 1376.109375 1214.070312 1344.570312 1170.871094 C 1338.511719 1170.609375 1332.449219 1170.421875 1326.390625 1170.308594 Z M 1213.789062 1321.75 C 1193.890625 1379.011719 1179.78125 1443.339844 1171.460938 1514.71875 C 1215.46875 1510.460938 1259.578125 1508.390625 1303.738281 1508.390625 L 1309.199219 1508.398438 L 1309.199219 1170.191406 C 1303.230469 1170.21875 1297.261719 1170.320312 1291.289062 1170.5 C 1259.621094 1213.789062 1233.78125 1264.210938 1213.789062 1321.75 Z M 1228.191406 1175.121094 C 1127.558594 1263.53125 1065.871094 1382.980469 1043.121094 1533.488281 C 1079.980469 1526.230469 1116.941406 1520.601562 1153.988281 1516.519531 C 1162.390625 1442.410156 1176.929688 1375.609375 1197.601562 1316.109375 C 1216.480469 1261.808594 1240.46875 1213.589844 1269.589844 1171.46875 C 1255.761719 1172.289062 1241.949219 1173.511719 1228.191406 1175.121094 Z M 1002.171875 1349.851562 C 964.945312 1412.820312 938.808594 1483.839844 923.75 1562.890625 C 957.46875 1552.878906 991.3125 1544.308594 1025.25 1537.140625 C 1046.488281 1389.019531 1104.179688 1269.730469 1198.320312 1179.25 C 1178.480469 1182.421875 1158.761719 1186.421875 1139.238281 1191.25 C 1083.410156 1236.828125 1037.71875 1289.699219 1002.171875 1349.851562 Z M 864.5625 1408.429688 C 829.972656 1465.691406 805.546875 1524.761719 791.285156 1585.640625 C 799.191406 1587.769531 807.238281 1589.238281 815.234375 1589.910156 C 827.496094 1590.929688 839.574219 1590.058594 850.679688 1586.789062 L 851.578125 1586.519531 L 851.953125 1586.398438 L 853.296875 1585.96875 L 853.3125 1585.960938 L 854.785156 1585.449219 L 854.929688 1585.398438 L 855.0625 1585.351562 L 855.414062 1585.21875 L 855.515625 1585.191406 L 855.902344 1585.050781 L 855.960938 1585.03125 L 856.015625 1585.011719 L 856.0625 1585 L 856.105469 1584.980469 C 872.453125 1579.148438 888.835938 1573.671875 905.25 1568.53125 C 920.390625 1483.960938 947.773438 1408.160156 987.394531 1341.121094 C 1017.898438 1289.519531 1055.628906 1243.140625 1100.601562 1201.980469 C 1065.578125 1212.800781 1031.328125 1226.371094 998.230469 1242.730469 C 943.625 1296.089844 899.066406 1351.320312 864.5625 1408.429688 Z M 774.945312 1580.230469 C 789.679688 1518.070312 814.648438 1457.839844 849.855469 1399.570312 C 876.476562 1355.511719 908.984375 1312.53125 947.382812 1270.621094 L 943.703125 1272.859375 C 852.601562 1328.839844 772.820312 1407.820312 713.328125 1510.011719 C 710.128906 1515.5 710.089844 1521.820312 712.410156 1528.308594 C 714.890625 1535.230469 719.777344 1542.351562 726.429688 1549.210938 C 733.703125 1556.710938 742.921875 1563.75 753.375 1569.828125 C 757.367188 1572.160156 761.523438 1574.328125 765.800781 1576.339844 L 768.820312 1577.679688 C 770.839844 1578.570312 772.882812 1579.421875 774.945312 1580.230469 Z M 920.320312 1690.742188 C 914.640625 1669.933594 909.804688 1648.644531 905.816406 1626.890625 C 894.523438 1623.359375 883.246094 1619.671875 871.984375 1615.808594 L 866.335938 1617.808594 L 864.441406 1618.46875 L 864.304688 1618.519531 C 847.824219 1624.050781 830.113281 1625.628906 812.414062 1624.148438 L 811.953125 1624.121094 C 827.363281 1640.144531 843.421875 1655.253906 860.054688 1669.441406 C 882.203125 1688.335938 905.359375 1705.578125 929.359375 1721.179688 C 926.144531 1711.1875 923.132812 1701.039062 920.320312 1690.742188 Z M 1040.488281 1733.289062 C 1034.449219 1709.210938 1029.511719 1684.183594 1025.691406 1658.214844 C 991.808594 1651.058594 958.019531 1642.511719 924.347656 1632.53125 C 927.929688 1650.957031 932.09375 1668.863281 936.839844 1686.242188 C 941.421875 1703.015625 946.5625 1719.40625 952.265625 1735.421875 C 985.496094 1755.167969 1020.171875 1771.90625 1055.871094 1785.640625 C 1050.109375 1768.644531 1044.988281 1751.195312 1040.488281 1733.289062 Z M 1167.628906 1764.40625 C 1162.21875 1737.136719 1157.789062 1708.59375 1154.339844 1678.792969 C 1117.339844 1674.730469 1080.410156 1669.109375 1043.578125 1661.863281 C 1047.171875 1684.976562 1051.691406 1707.398438 1057.140625 1729.128906 C 1062.71875 1751.339844 1069.25 1772.726562 1076.71875 1793.28125 C 1110.660156 1805.109375 1145.429688 1814.285156 1180.691406 1820.8125 C 1175.828125 1802.570312 1171.480469 1783.765625 1167.628906 1764.40625 Z M 1309.199219 1832.90625 L 1309.199219 1686.894531 L 1303.761719 1686.902344 C 1259.730469 1686.902344 1215.730469 1684.835938 1171.820312 1680.59375 C 1175.140625 1708.445312 1179.359375 1735.289062 1184.488281 1761.117188 C 1188.808594 1782.898438 1193.761719 1803.867188 1199.328125 1824.015625 C 1235.640625 1829.757812 1272.390625 1832.71875 1309.199219 1832.90625 Z M 1452.160156 1755.742188 C 1456.96875 1730.789062 1460.941406 1704.863281 1464.089844 1677.976562 C 1418.191406 1683.03125 1372.269531 1685.988281 1326.390625 1686.722656 L 1326.390625 1832.792969 C 1363.300781 1832.117188 1400.199219 1828.652344 1436.710938 1822.421875 C 1442.558594 1801.089844 1447.710938 1778.859375 1452.160156 1755.742188 Z M 1579.238281 1725.980469 C 1584.601562 1704.195312 1589.03125 1681.679688 1592.53125 1658.445312 C 1555.589844 1665.589844 1518.601562 1671.445312 1481.578125 1675.949219 C 1478.308594 1704.765625 1474.121094 1732.441406 1469.019531 1758.96875 C 1465.039062 1779.621094 1460.5 1799.632812 1455.390625 1818.992188 C 1490.800781 1812.003906 1525.789062 1802.390625 1559.988281 1790.15625 C 1567.371094 1769.539062 1573.78125 1748.144531 1579.238281 1725.980469 Z M 1698.921875 1685.507812 C 1703.75 1667.738281 1707.960938 1649.570312 1711.539062 1631 C 1677.890625 1640.003906 1644.160156 1647.984375 1610.378906 1654.894531 C 1606.671875 1680.859375 1601.828125 1705.921875 1595.890625 1730.074219 C 1591.480469 1747.976562 1586.460938 1765.398438 1580.828125 1782.335938 C 1616.53125 1768.3125 1651.28125 1751.378906 1684.671875 1731.550781 C 1689.890625 1716.566406 1694.648438 1701.21875 1698.921875 1685.507812 "/>
<path fill-rule="evenodd" fill="rgb(0%, 0%, 0%)" fill-opacity="1" d="M 1084.820312 1389.101562 C 1151.539062 1389.101562 1205.621094 1454.328125 1205.621094 1534.789062 C 1205.621094 1615.25 1151.539062 1680.476562 1084.820312 1680.476562 C 1018.101562 1680.476562 964.015625 1615.25 964.015625 1534.789062 C 964.015625 1454.328125 1018.101562 1389.101562 1084.820312 1389.101562 "/>
<path fill-rule="evenodd" fill="rgb(100%, 100%, 100%)" fill-opacity="1" d="M 1068.058594 1428.480469 C 1082.800781 1428.480469 1094.738281 1442.878906 1094.738281 1460.660156 C 1094.738281 1478.429688 1082.800781 1492.828125 1068.058594 1492.828125 C 1053.320312 1492.828125 1041.378906 1478.429688 1041.378906 1460.660156 C 1041.378906 1442.878906 1053.320312 1428.480469 1068.058594 1428.480469 "/>
<path fill-rule="evenodd" fill="rgb(55.664062%, 91.40625%, 100%)" fill-opacity="1" d="M 1118.101562 1433.660156 C 1151.441406 1449.628906 1175.019531 1488.890625 1175.019531 1534.789062 C 1175.019531 1594.859375 1134.628906 1643.5625 1084.820312 1643.5625 C 1035.011719 1643.5625 994.625 1594.859375 994.625 1534.789062 C 994.625 1498.210938 1009.601562 1465.839844 1032.558594 1446.121094 C 1018.800781 1461.941406 1010.21875 1484.269531 1010.21875 1509 C 1010.21875 1556.96875 1042.46875 1595.859375 1082.238281 1595.859375 C 1122.019531 1595.859375 1154.261719 1556.96875 1154.261719 1509.011719 C 1154.261719 1476.78125 1139.710938 1448.648438 1118.101562 1433.660156 "/>
<path fill-rule="evenodd" fill="rgb(0%, 0%, 0%)" fill-opacity="1" d="M 1494.808594 1389.101562 C 1561.53125 1389.101562 1615.621094 1454.328125 1615.621094 1534.789062 C 1615.621094 1615.25 1561.53125 1680.476562 1494.808594 1680.476562 C 1428.101562 1680.476562 1374.011719 1615.25 1374.011719 1534.789062 C 1374.011719 1454.328125 1428.101562 1389.101562 1494.808594 1389.101562 "/>
<path fill-rule="evenodd" fill="rgb(100%, 100%, 100%)" fill-opacity="1" d="M 1478.050781 1428.480469 C 1492.789062 1428.480469 1504.738281 1442.878906 1504.738281 1460.660156 C 1504.738281 1478.429688 1492.789062 1492.828125 1478.050781 1492.828125 C 1463.320312 1492.828125 1451.371094 1478.429688 1451.371094 1460.660156 C 1451.371094 1442.878906 1463.320312 1428.480469 1478.050781 1428.480469 "/>
<path fill-rule="evenodd" fill="rgb(55.664062%, 91.40625%, 100%)" fill-opacity="1" d="M 1528.089844 1433.660156 C 1561.429688 1449.628906 1585.011719 1488.890625 1585.011719 1534.789062 C 1585.011719 1594.859375 1544.628906 1643.5625 1494.808594 1643.5625 C 1445 1643.5625 1404.621094 1594.859375 1404.621094 1534.789062 C 1404.621094 1498.210938 1419.589844 1465.839844 1442.550781 1446.121094 C 1428.789062 1461.941406 1420.21875 1484.269531 1420.21875 1509 C 1420.21875 1556.96875 1452.460938 1595.859375 1492.238281 1595.859375 C 1532.011719 1595.859375 1564.261719 1556.96875 1564.261719 1509.011719 C 1564.261719 1476.78125 1549.699219 1448.648438 1528.089844 1433.660156 "/>
<path fill-rule="evenodd" fill="rgb(55.664062%, 91.40625%, 100%)" fill-opacity="1" d="M 807.691406 1181.148438 C 835.597656 1181.148438 858.21875 1203.769531 858.21875 1231.671875 C 858.21875 1259.578125 835.597656 1282.199219 807.691406 1282.199219 C 779.785156 1282.199219 757.164062 1259.578125 757.164062 1231.671875 C 757.164062 1203.769531 779.785156 1181.148438 807.691406 1181.148438 "/>
<path fill-rule="nonzero" fill="rgb(100%, 100%, 100%)" fill-opacity="1" d="M 807.691406 1263.808594 C 810.136719 1263.808594 812.121094 1265.789062 812.121094 1268.238281 C 812.121094 1270.691406 810.136719 1272.671875 807.691406 1272.671875 C 803.105469 1272.671875 798.652344 1271.921875 794.453125 1270.519531 C 790.132812 1269.089844 786.121094 1266.96875 782.558594 1264.300781 C 777.355469 1260.410156 773.082031 1255.320312 770.140625 1249.449219 C 767.296875 1243.78125 765.695312 1237.398438 765.695312 1230.679688 C 765.695312 1226.078125 766.453125 1221.609375 767.855469 1217.410156 C 769.300781 1213.070312 771.429688 1209.058594 774.105469 1205.488281 C 775.570312 1203.539062 778.339844 1203.148438 780.285156 1204.609375 C 782.238281 1206.070312 782.632812 1208.839844 781.171875 1210.789062 C 779.050781 1213.609375 777.371094 1216.78125 776.238281 1220.179688 C 775.148438 1223.441406 774.5625 1226.96875 774.5625 1230.679688 C 774.5625 1236.03125 775.8125 1241.070312 778.035156 1245.511719 C 780.355469 1250.140625 783.734375 1254.148438 787.855469 1257.238281 C 790.671875 1259.339844 793.828125 1261.011719 797.226562 1262.140625 C 800.476562 1263.21875 803.996094 1263.808594 807.691406 1263.808594 Z M 790.359375 1202.421875 C 788.273438 1203.691406 785.554688 1203.039062 784.28125 1200.949219 C 783.011719 1198.871094 783.667969 1196.148438 785.753906 1194.871094 C 788.996094 1192.878906 792.535156 1191.320312 796.285156 1190.261719 C 799.933594 1189.230469 803.761719 1188.679688 807.691406 1188.679688 C 810.136719 1188.679688 812.121094 1190.671875 812.121094 1193.109375 C 812.121094 1195.558594 810.136719 1197.550781 807.691406 1197.550781 C 804.546875 1197.550781 801.519531 1197.980469 798.675781 1198.78125 C 795.714844 1199.609375 792.921875 1200.851562 790.359375 1202.421875 "/>
<path fill-rule="evenodd" fill="rgb(55.664062%, 91.40625%, 100%)" fill-opacity="1" d="M 909.542969 1023.859375 C 948.128906 1023.859375 979.410156 1055.140625 979.410156 1093.71875 C 979.410156 1132.308594 948.128906 1163.589844 909.542969 1163.589844 C 870.957031 1163.589844 839.675781 1132.308594 839.675781 1093.71875 C 839.675781 1055.140625 870.957031 1023.859375 909.542969 1023.859375 "/>
<path fill-rule="nonzero" fill="rgb(100%, 100%, 100%)" fill-opacity="1" d="M 909.542969 1138.148438 C 912.925781 1138.148438 915.671875 1140.898438 915.671875 1144.28125 C 915.671875 1147.671875 912.925781 1150.410156 909.542969 1150.410156 C 903.203125 1150.410156 897.046875 1149.371094 891.242188 1147.441406 C 885.261719 1145.449219 879.71875 1142.519531 874.789062 1138.839844 C 867.59375 1133.449219 861.6875 1126.421875 857.621094 1118.308594 C 853.691406 1110.460938 851.476562 1101.640625 851.476562 1092.339844 C 851.476562 1085.988281 852.527344 1079.808594 854.464844 1074 C 856.460938 1068 859.402344 1062.449219 863.105469 1057.519531 C 865.128906 1054.820312 868.953125 1054.269531 871.652344 1056.300781 C 874.347656 1058.320312 874.894531 1062.148438 872.871094 1064.839844 C 869.941406 1068.75 867.617188 1073.121094 866.050781 1077.828125 C 864.546875 1082.339844 863.734375 1087.21875 863.734375 1092.339844 C 863.734375 1099.75 865.464844 1106.71875 868.539062 1112.851562 C 871.746094 1119.25 876.417969 1124.800781 882.117188 1129.070312 C 886.007812 1131.980469 890.375 1134.289062 895.070312 1135.851562 C 899.566406 1137.339844 904.433594 1138.148438 909.542969 1138.148438 Z M 885.578125 1053.269531 C 882.695312 1055.03125 878.933594 1054.121094 877.175781 1051.238281 C 875.417969 1048.359375 876.328125 1044.601562 879.210938 1042.839844 C 883.695312 1040.078125 888.585938 1037.921875 893.773438 1036.460938 C 898.816406 1035.039062 904.109375 1034.28125 909.542969 1034.28125 C 912.925781 1034.28125 915.671875 1037.019531 915.671875 1040.398438 C 915.671875 1043.789062 912.925781 1046.53125 909.542969 1046.53125 C 905.191406 1046.53125 901.011719 1047.128906 897.078125 1048.238281 C 892.984375 1049.390625 889.121094 1051.101562 885.578125 1053.269531 "/>
<path fill-rule="evenodd" fill="rgb(55.664062%, 91.40625%, 100%)" fill-opacity="1" d="M 1084.25 915.550781 C 1135.308594 915.550781 1176.691406 956.941406 1176.691406 1007.988281 C 1176.691406 1059.050781 1135.308594 1100.429688 1084.25 1100.429688 C 1033.199219 1100.429688 991.8125 1059.050781 991.8125 1007.988281 C 991.8125 956.941406 1033.199219 915.550781 1084.25 915.550781 "/>
<path fill-rule="nonzero" fill="rgb(100%, 100%, 100%)" fill-opacity="1" d="M 1084.25 1066.78125 C 1088.730469 1066.78125 1092.359375 1070.410156 1092.359375 1074.890625 C 1092.359375 1079.371094 1088.730469 1083 1084.25 1083 C 1075.871094 1083 1067.71875 1081.609375 1060.039062 1079.058594 C 1052.128906 1076.441406 1044.789062 1072.558594 1038.269531 1067.679688 C 1028.75 1060.558594 1020.941406 1051.261719 1015.558594 1040.519531 C 1010.351562 1030.140625 1007.429688 1018.46875 1007.429688 1006.171875 C 1007.429688 997.761719 1008.808594 989.589844 1011.378906 981.890625 C 1014.019531 973.960938 1017.910156 966.609375 1022.808594 960.089844 C 1025.488281 956.519531 1030.550781 955.800781 1034.121094 958.480469 C 1037.691406 961.148438 1038.410156 966.21875 1035.730469 969.78125 C 1031.859375 974.949219 1028.78125 980.738281 1026.710938 986.960938 C 1024.71875 992.929688 1023.640625 999.390625 1023.640625 1006.171875 C 1023.640625 1015.96875 1025.929688 1025.179688 1030 1033.300781 C 1034.238281 1041.769531 1040.429688 1049.121094 1047.96875 1054.761719 C 1053.121094 1058.609375 1058.890625 1061.671875 1065.109375 1063.730469 C 1071.050781 1065.710938 1077.488281 1066.78125 1084.25 1066.78125 Z M 1052.550781 954.480469 C 1048.730469 956.800781 1043.75 955.601562 1041.429688 951.789062 C 1039.101562 947.96875 1040.308594 942.988281 1044.121094 940.671875 C 1050.050781 937.019531 1056.53125 934.160156 1063.390625 932.230469 C 1070.058594 930.351562 1077.058594 929.339844 1084.25 929.339844 C 1088.730469 929.339844 1092.359375 932.96875 1092.359375 937.449219 C 1092.359375 941.929688 1088.730469 945.558594 1084.25 945.558594 C 1078.5 945.558594 1072.96875 946.339844 1067.761719 947.808594 C 1062.351562 949.339844 1057.230469 951.601562 1052.550781 954.480469 "/>
<path fill-rule="evenodd" fill="rgb(55.664062%, 91.40625%, 100%)" fill-opacity="1" d="M 1012.050781 711.851562 C 1063.109375 711.851562 1104.488281 753.230469 1104.488281 804.289062 C 1104.488281 855.339844 1063.109375 896.730469 1012.050781 896.730469 C 961 896.730469 919.613281 855.339844 919.613281 804.289062 C 919.613281 753.230469 961 711.851562 1012.050781 711.851562 "/>
<path fill-rule="nonzero" fill="rgb(100%, 100%, 100%)" fill-opacity="1" d="M 1012.050781 863.070312 C 1016.53125 863.070312 1020.160156 866.710938 1020.160156 871.179688 C 1020.160156 875.660156 1016.53125 879.289062 1012.050781 879.289062 C 1003.660156 879.289062 995.519531 877.910156 987.839844 875.359375 C 979.929688 872.730469 972.59375 868.859375 966.074219 863.980469 C 956.550781 856.851562 948.738281 847.558594 943.355469 836.820312 C 938.152344 826.441406 935.226562 814.761719 935.226562 802.460938 C 935.226562 794.050781 936.613281 785.890625 939.179688 778.191406 C 941.820312 770.261719 945.710938 762.910156 950.609375 756.390625 C 953.285156 752.820312 958.351562 752.101562 961.917969 754.769531 C 965.484375 757.449219 966.210938 762.511719 963.535156 766.078125 C 959.65625 771.238281 956.582031 777.03125 954.511719 783.261719 C 952.519531 789.230469 951.441406 795.679688 951.441406 802.460938 C 951.441406 812.261719 953.734375 821.480469 957.800781 829.601562 C 962.042969 838.070312 968.226562 845.410156 975.765625 851.058594 C 980.914062 854.910156 986.691406 857.960938 992.90625 860.03125 C 998.855469 862 1005.289062 863.070312 1012.050781 863.070312 Z M 980.347656 750.769531 C 976.53125 753.101562 971.554688 751.890625 969.230469 748.078125 C 966.902344 744.269531 968.105469 739.289062 971.921875 736.960938 C 977.851562 733.320312 984.324219 730.460938 991.1875 728.519531 C 997.859375 726.640625 1004.859375 725.640625 1012.050781 725.640625 C 1016.53125 725.640625 1020.160156 729.269531 1020.160156 733.738281 C 1020.160156 738.21875 1016.53125 741.851562 1012.050781 741.851562 C 1006.300781 741.851562 1000.769531 742.640625 995.5625 744.109375 C 990.144531 745.628906 985.035156 747.890625 980.347656 750.769531 "/>
</svg>
