<?xml version="1.0" encoding="UTF-8"?>
<svg xmlns="http://www.w3.org/2000/svg" xmlns:xlink="http://www.w3.org/1999/xlink" width="2640" height="2640" viewBox="0 0 2640 2640">

<path fill-rule="nonzero" fill="rgb(0%, 0%, 0%)" fill-opacity="1" d="M 972.597656 1432.160156 C 957.09375 1454.988281 937.917969 1477.578125 915.074219 1499.910156 C 896.914062 1517.679688 876.507812 1535.21875 853.855469 1552.53125 C 886.226562 1563.21875 920.066406 1567.589844 953.589844 1565.75 C 995.488281 1563.441406 1036.789062 1551.460938 1074.011719 1529.96875 C 1084.378906 1523.988281 1094.378906 1517.269531 1103.949219 1509.898438 C 1110.671875 1504.71875 1117.128906 1499.230469 1123.320312 1493.449219 C 1055.011719 1448.121094 1014.378906 1432.371094 972.597656 1432.160156 Z M 1147.878906 1509.738281 C 1139.578125 1517.851562 1130.75 1525.519531 1121.429688 1532.699219 C 1111.078125 1540.671875 1100.03125 1548.078125 1088.308594 1554.839844 C 1047.03125 1578.660156 1001.378906 1591.949219 955.210938 1594.488281 C 909.222656 1597.019531 862.609375 1588.910156 819.152344 1569.96875 C 816.585938 1568.988281 814.273438 1567.269531 812.5625 1564.871094 C 807.960938 1558.410156 809.46875 1549.441406 815.933594 1544.839844 C 846.214844 1523.171875 872.585938 1501.359375 895.042969 1479.398438 C 909.820312 1464.941406 922.964844 1450.371094 934.464844 1435.679688 C 915.746094 1438.898438 895.347656 1444.089844 871.183594 1450.238281 C 836.394531 1459.089844 794.214844 1469.820312 739.421875 1479.671875 C 708.355469 1485.25 677.839844 1477.628906 653.703125 1460.851562 C 629.566406 1444.058594 611.792969 1418.109375 606.207031 1387.050781 L 546.570312 1055.25 C 541.175781 1025.230469 548.523438 997.859375 564.253906 975.238281 C 580.902344 951.300781 607.007812 932.878906 637.117188 922.578125 L 1039.191406 785.070312 C 1067.679688 775.328125 1093.730469 781.660156 1116.019531 797.148438 C 1141.109375 814.601562 1161.03125 843.980469 1173.601562 874.160156 C 1188.300781 909.5 1200.261719 946.078125 1211.699219 981.101562 C 1246.390625 1087.261719 1276.078125 1178.101562 1370.269531 1174.738281 C 1370.539062 1174.730469 1370.808594 1174.730469 1371.078125 1174.738281 C 1587.789062 1172.429688 1750.609375 1264.621094 1859.53125 1451.308594 C 1911.878906 1448.121094 1957.601562 1453.351562 1996.699219 1467.011719 C 2038.800781 1481.710938 2073.039062 1506.058594 2099.410156 1540.050781 C 2104.179688 1546.210938 2103.148438 1555.039062 2097.148438 1559.941406 L 2097.160156 1559.949219 C 2063.488281 1587.371094 2024.019531 1605.378906 1982.628906 1613.21875 C 1951.269531 1619.160156 1918.820312 1619.269531 1886.960938 1613.230469 C 1901.628906 1651.832031 1903.308594 1693.109375 1893.46875 1731.417969 C 1881.140625 1779.371094 1850.738281 1822.691406 1805.109375 1850.320312 C 1798.808594 1854.117188 1790.761719 1852.503906 1786.371094 1846.824219 L 1786.359375 1846.828125 C 1755.050781 1806.5625 1733.648438 1760.304688 1722.949219 1711.683594 C 1713.839844 1670.265625 1712.488281 1627.160156 1719.398438 1584.621094 C 1667.371094 1596.050781 1616.578125 1604.28125 1566.75 1608.320312 C 1511.828125 1612.78125 1458.140625 1612.128906 1405.359375 1605.050781 C 1399.699219 1616.800781 1393.289062 1628.148438 1386.179688 1639.039062 C 1360.839844 1677.800781 1326.480469 1710.703125 1285.210938 1734.519531 C 1243.921875 1758.347656 1198.269531 1771.632812 1152.101562 1774.175781 C 1106.121094 1776.703125 1059.5 1768.597656 1016.050781 1749.648438 C 1013.480469 1748.675781 1011.171875 1746.957031 1009.449219 1744.554688 C 1004.851562 1738.09375 1006.359375 1729.121094 1012.828125 1724.519531 C 1078.21875 1677.738281 1125.621094 1629.980469 1155.011719 1581.25 C 1165.460938 1563.921875 1173.628906 1546.441406 1179.519531 1528.828125 C 1172.511719 1524.859375 1165.71875 1520.859375 1159.160156 1516.828125 C 1155.449219 1514.550781 1151.679688 1512.191406 1147.878906 1509.738281 Z M 1416.910156 1577.621094 C 1465.019531 1583.460938 1514.089844 1583.800781 1564.359375 1579.71875 C 1619.21875 1575.269531 1675.558594 1565.53125 1733.660156 1551.921875 C 1735.980469 1551.230469 1738.5 1551.109375 1741.03125 1551.699219 C 1748.769531 1553.488281 1753.589844 1561.21875 1751.789062 1568.960938 C 1741.238281 1614.488281 1741.21875 1661.144531 1751.011719 1705.609375 C 1759.859375 1745.867188 1776.75 1784.363281 1801.128906 1818.636719 C 1834.039062 1795.085938 1856.148438 1761.316406 1865.671875 1724.300781 C 1876.128906 1683.589844 1871.351562 1638.960938 1848.949219 1599.691406 C 1846.679688 1596.210938 1845.941406 1591.78125 1847.289062 1587.511719 C 1849.679688 1579.949219 1857.761719 1575.761719 1865.320312 1578.148438 C 1902.109375 1589.910156 1940.589844 1591.980469 1977.328125 1585.019531 C 2009.429688 1578.941406 2040.238281 1565.96875 2067.449219 1546.53125 C 2045.960938 1522.71875 2019.230469 1505.230469 1987.269531 1494.070312 C 1949.828125 1481 1905.039062 1476.488281 1852.910156 1480.550781 C 1847.441406 1481.050781 1841.941406 1478.390625 1839.070312 1473.300781 C 1735.710938 1291.121094 1579.730469 1201.179688 1371.140625 1203.480469 C 1255.460938 1207.5 1222.679688 1107.210938 1184.378906 990.011719 C 1173.238281 955.898438 1161.589844 920.261719 1147.011719 885.230469 C 1136.320312 859.550781 1119.839844 834.890625 1099.578125 820.800781 C 1084.5 810.308594 1067.101562 805.941406 1048.429688 812.328125 L 646.363281 949.839844 C 621.964844 958.179688 601.007812 972.828125 587.898438 991.679688 C 576.375 1008.261719 570.980469 1028.261719 574.914062 1050.148438 L 634.554688 1381.949219 C 638.730469 1405.191406 652.050781 1424.621094 670.140625 1437.199219 C 688.234375 1449.78125 711.085938 1455.5 734.328125 1451.320312 C 788.675781 1441.550781 830.015625 1431.039062 864.117188 1422.359375 C 975.355469 1394.058594 1013.539062 1384.351562 1148.511719 1475.761719 C 1156.78125 1481.351562 1165.339844 1486.871094 1174.179688 1492.300781 C 1178.570312 1494.988281 1182.871094 1497.578125 1187.089844 1500.039062 C 1191.210938 1478.601562 1192.011719 1456.960938 1189.480469 1435.121094 C 1188.570312 1427.230469 1194.21875 1420.101562 1202.109375 1419.191406 C 1209.988281 1418.28125 1217.121094 1423.929688 1218.03125 1431.808594 C 1224.539062 1488.03125 1211.730469 1542.769531 1179.609375 1596.03125 C 1151.480469 1642.667969 1108.53125 1688.066406 1050.75 1732.214844 C 1083.121094 1742.902344 1116.960938 1747.277344 1150.480469 1745.433594 C 1192.378906 1743.128906 1233.679688 1731.140625 1270.910156 1709.65625 C 1308.140625 1688.171875 1339.171875 1658.433594 1362.101562 1623.371094 C 1385.019531 1588.300781 1399.808594 1547.929688 1404.550781 1505.179688 C 1405.410156 1497.300781 1412.488281 1491.601562 1420.378906 1492.449219 C 1428.269531 1493.308594 1433.96875 1500.390625 1433.109375 1508.28125 C 1430.460938 1532.21875 1424.960938 1555.46875 1416.910156 1577.621094 "/>
<path fill-rule="evenodd" fill="rgb(255, 236, 165)" fill-opacity="1" d="M 864.117188 1422.359375 C 975.355469 1394.058594 1013.539062 1384.351562 1148.511719 1475.761719 C 1156.78125 1481.351562 1165.339844 1486.871094 1174.179688 1492.300781 C 1178.570312 1494.988281 1182.871094 1497.578125 1187.089844 1500.039062 C 1191.210938 1478.601562 1192.011719 1456.960938 1189.480469 1435.121094 C 1188.570312 1427.230469 1194.21875 1420.101562 1202.109375 1419.191406 C 1209.988281 1418.28125 1217.121094 1423.929688 1218.03125 1431.808594 C 1224.539062 1488.03125 1211.730469 1542.769531 1179.609375 1596.03125 C 1151.480469 1642.667969 1108.53125 1688.066406 1050.75 1732.214844 C 1083.121094 1742.902344 1116.960938 1747.277344 1150.480469 1745.433594 C 1192.378906 1743.128906 1233.679688 1731.140625 1270.910156 1709.65625 C 1308.140625 1688.171875 1339.171875 1658.433594 1362.101562 1623.371094 C 1385.019531 1588.300781 1399.808594 1547.929688 1404.550781 1505.179688 C 1405.410156 1497.300781 1412.488281 1491.601562 1420.378906 1492.449219 C 1428.269531 1493.308594 1433.96875 1500.390625 1433.109375 1508.28125 C 1430.460938 1532.21875 1424.960938 1555.46875 1416.910156 1577.621094 C 1465.019531 1583.460938 1514.089844 1583.800781 1564.359375 1579.71875 C 1619.21875 1575.269531 1675.558594 1565.53125 1733.660156 1551.921875 C 1735.980469 1551.230469 1738.5 1551.109375 1741.03125 1551.699219 C 1748.769531 1553.488281 1753.589844 1561.21875 1751.789062 1568.960938 C 1741.238281 1614.488281 1741.21875 1661.144531 1751.011719 1705.609375 C 1759.859375 1745.867188 1776.75 1784.363281 1801.128906 1818.636719 C 1834.039062 1795.085938 1856.148438 1761.316406 1865.671875 1724.300781 C 1876.128906 1683.589844 1871.351562 1638.960938 1848.949219 1599.691406 C 1846.679688 1596.210938 1845.941406 1591.78125 1847.289062 1587.511719 C 1849.679688 1579.949219 1857.761719 1575.761719 1865.320312 1578.148438 C 1902.109375 1589.910156 1940.589844 1591.980469 1977.328125 1585.019531 C 2009.429688 1578.941406 2040.238281 1565.96875 2067.449219 1546.53125 C 2045.960938 1522.71875 2019.230469 1505.230469 1987.269531 1494.070312 C 1949.828125 1481 1905.039062 1476.488281 1852.910156 1480.550781 C 1847.441406 1481.050781 1841.941406 1478.390625 1839.070312 1473.300781 C 1735.710938 1291.121094 1579.730469 1201.179688 1371.140625 1203.480469 C 1255.460938 1207.5 1222.679688 1107.210938 1184.378906 990.011719 C 1173.238281 955.898438 1161.589844 920.261719 1147.011719 885.230469 C 1136.320312 859.550781 1119.839844 834.890625 1099.578125 820.800781 C 1084.5 810.308594 1067.101562 805.941406 1048.429688 812.328125 L 646.363281 949.839844 C 621.964844 958.179688 601.007812 972.828125 587.898438 991.679688 C 576.375 1008.261719 570.980469 1028.261719 574.914062 1050.148438 L 634.554688 1381.949219 C 638.730469 1405.191406 652.050781 1424.621094 670.140625 1437.199219 C 688.234375 1449.78125 711.085938 1455.5 734.328125 1451.320312 C 788.675781 1441.550781 830.015625 1431.039062 864.117188 1422.359375 Z M 1123.320312 1493.449219 C 1055.011719 1448.121094 1014.378906 1432.371094 972.597656 1432.160156 C 957.09375 1454.988281 937.917969 1477.578125 915.074219 1499.910156 C 896.914062 1517.679688 876.507812 1535.21875 853.855469 1552.53125 C 886.226562 1563.21875 920.066406 1567.589844 953.589844 1565.75 C 995.488281 1563.441406 1036.789062 1551.460938 1074.011719 1529.96875 C 1084.378906 1523.988281 1094.378906 1517.269531 1103.949219 1509.898438 C 1110.671875 1504.71875 1117.128906 1499.230469 1123.320312 1493.449219 "/>
<path fill-rule="evenodd" fill="rgb(100%, 100%, 100%)" fill-opacity="1" d="M 1190.5 1446.539062 C 1070.03125 1338.589844 890.902344 1330.289062 653.105469 1421.628906 C 658.078125 1427.570312 663.816406 1432.808594 670.140625 1437.199219 C 688.234375 1449.78125 711.085938 1455.5 734.328125 1451.320312 C 788.675781 1441.550781 830.015625 1431.039062 864.117188 1422.359375 C 975.355469 1394.058594 1013.539062 1384.351562 1148.511719 1475.761719 C 1156.78125 1481.351562 1165.339844 1486.871094 1174.179688 1492.300781 C 1178.570312 1494.988281 1182.871094 1497.578125 1187.089844 1500.039062 C 1190.488281 1482.351562 1191.628906 1464.511719 1190.5 1446.539062 Z M 1427.980469 1539.449219 C 1425.128906 1552.46875 1421.421875 1565.21875 1416.910156 1577.621094 C 1465.019531 1583.460938 1514.089844 1583.800781 1564.359375 1579.71875 C 1596.851562 1577.078125 1629.859375 1572.589844 1663.449219 1566.539062 C 1587.039062 1567.148438 1508.550781 1558.121094 1427.980469 1539.449219 "/>
<path fill-rule="evenodd" fill="rgb(0%, 0%, 0%)" fill-opacity="1" d="M 808.332031 1220.988281 L 813.523438 1249.878906 C 816.425781 1266.011719 805.597656 1281.589844 789.460938 1284.488281 L 748.75 1291.808594 C 750.824219 1296.070312 753.453125 1300.03125 756.558594 1303.570312 C 763.425781 1311.390625 772.578125 1317.191406 783.078125 1319.878906 C 793.589844 1322.578125 804.40625 1321.910156 814.195312 1318.351562 C 823.960938 1314.808594 832.679688 1308.378906 839.007812 1299.578125 C 841.316406 1296.351562 845.804688 1295.609375 849.027344 1297.921875 C 852.25 1300.230469 852.992188 1304.71875 850.6875 1307.941406 C 842.609375 1319.179688 831.507812 1327.371094 819.082031 1331.878906 C 806.679688 1336.378906 792.921875 1337.21875 779.519531 1333.78125 C 766.109375 1330.339844 754.453125 1322.980469 745.746094 1313.050781 C 744.640625 1311.789062 743.578125 1310.488281 742.566406 1309.140625 C 742.089844 1310.761719 741.550781 1312.351562 740.949219 1313.921875 C 736.246094 1326.25 727.882812 1337.210938 716.507812 1345.109375 C 705.144531 1353 691.957031 1357 678.757812 1357.101562 C 665.542969 1357.199219 652.285156 1353.390625 640.800781 1345.660156 C 637.511719 1343.449219 636.644531 1338.980469 638.863281 1335.699219 C 641.082031 1332.410156 645.546875 1331.539062 648.832031 1333.761719 C 657.832031 1339.808594 668.242188 1342.800781 678.632812 1342.71875 C 689.046875 1342.640625 699.421875 1339.5 708.332031 1333.320312 C 717.238281 1327.140625 723.800781 1318.511719 727.511719 1308.789062 C 729.191406 1304.390625 730.277344 1299.769531 730.738281 1295.039062 L 705.210938 1299.628906 C 689.074219 1302.53125 673.503906 1291.699219 670.601562 1275.570312 L 665.410156 1246.679688 L 808.332031 1220.988281 "/>
<path fill-rule="evenodd" fill="rgb(0%, 0%, 0%)" fill-opacity="1" d="M 948.929688 777.410156 C 1020.570312 775.128906 1080.941406 845.570312 1083.78125 934.75 C 1086.609375 1023.921875 1030.839844 1098.058594 959.203125 1100.339844 C 887.566406 1102.621094 827.191406 1032.179688 824.355469 943 C 821.519531 853.828125 877.292969 779.691406 948.929688 777.410156 "/>
<path fill-rule="evenodd" fill="rgb(89.84375%, 82.8125%, 89.84375%)" fill-opacity="1" d="M 954.761719 804.511719 C 1013.980469 802.621094 1063.890625 860.859375 1066.238281 934.570312 C 1068.578125 1008.289062 1022.46875 1069.578125 963.253906 1071.460938 C 904.035156 1073.351562 854.128906 1015.121094 851.78125 941.398438 C 851.035156 917.96875 855.1875 895.800781 863.097656 876.398438 C 858.367188 891.03125 855.988281 907.140625 856.523438 924.011719 C 858.566406 988.210938 902.035156 1038.929688 953.613281 1037.289062 C 1005.191406 1035.648438 1045.351562 982.269531 1043.308594 918.058594 C 1041.320312 855.589844 1000.121094 805.898438 950.382812 804.769531 C 951.835938 804.648438 953.292969 804.550781 954.761719 804.511719 "/>
<path fill-rule="evenodd" fill="rgb(100%, 100%, 100%)" fill-opacity="1" d="M 916.507812 821.890625 C 933.664062 821.339844 948.121094 838.210938 948.800781 859.558594 C 949.480469 880.921875 936.121094 898.671875 918.96875 899.21875 C 901.8125 899.761719 887.355469 882.898438 886.675781 861.539062 C 885.996094 840.191406 899.355469 822.429688 916.507812 821.890625 "/>
<path fill-rule="evenodd" fill="rgb(0%, 0%, 0%)" fill-opacity="1" d="M 662.261719 855.269531 C 733.898438 852.988281 794.273438 923.429688 797.109375 1012.609375 C 799.945312 1101.78125 744.171875 1175.921875 672.535156 1178.199219 C 600.898438 1180.480469 540.523438 1110.039062 537.6875 1020.859375 C 534.851562 931.691406 590.625 857.550781 662.261719 855.269531 "/>
<path fill-rule="evenodd" fill="rgb(89.84375%, 82.8125%, 89.84375%)" fill-opacity="1" d="M 668.097656 882.371094 C 727.316406 880.480469 777.222656 938.71875 779.570312 1012.441406 C 781.914062 1086.148438 735.808594 1147.441406 676.589844 1149.328125 C 617.367188 1151.210938 567.460938 1092.980469 565.113281 1019.261719 C 564.367188 995.828125 568.523438 973.660156 576.429688 954.261719 C 571.699219 968.890625 569.320312 985 569.859375 1001.871094 C 571.902344 1066.070312 615.371094 1116.789062 666.949219 1115.148438 C 718.527344 1113.511719 758.683594 1060.128906 756.640625 995.929688 C 754.65625 933.449219 713.449219 883.761719 663.714844 882.628906 C 665.167969 882.511719 666.628906 882.421875 668.097656 882.371094 "/>
<path fill-rule="evenodd" fill="rgb(100%, 100%, 100%)" fill-opacity="1" d="M 629.839844 899.75 C 646.996094 899.199219 661.453125 916.070312 662.132812 937.429688 C 662.8125 958.78125 649.457031 976.53125 632.300781 977.078125 C 615.148438 977.628906 600.6875 960.761719 600.011719 939.398438 C 599.328125 918.050781 612.6875 900.289062 629.839844 899.75 "/>
</svg>
